<svg xmlns="http://www.w3.org/2000/svg" xmlns:xlink="http://www.w3.org/1999/xlink" viewBox="0 0 800.5 801.06"><defs><style>.cls-1{fill:#fed8c1;}.cls-2{fill:url(#linear-gradient);}.cls-3{fill:#fff;opacity:0.15;}.cls-4{fill:url(#linear-gradient-2);}.cls-5{fill:#fc7d48;}.cls-6{fill:#ff9e49;}.cls-7{fill:#ef4335;}.cls-8{fill:#c9223e;}.cls-9{fill:#7f0133;}.cls-10{fill:#510130;}.cls-11{fill:#2b102a;}.cls-12{fill:url(#linear-gradient-3);}</style><linearGradient id="linear-gradient" x1="625.2" y1="339" x2="625.2" y2="236.98" gradientUnits="userSpaceOnUse"><stop offset="0" stop-color="#fff" stop-opacity="0"/><stop offset="0.15" stop-color="#fff" stop-opacity="0.13"/><stop offset="0.48" stop-color="#fff" stop-opacity="0.45"/><stop offset="0.96" stop-color="#fff" stop-opacity="0.95"/><stop offset="1" stop-color="#fff"/></linearGradient><linearGradient id="linear-gradient-2" x1="419.18" y1="372.39" x2="419.18" y2="153.48" gradientTransform="translate(314.22 -217.11) rotate(45)" gradientUnits="userSpaceOnUse"><stop offset="0" stop-color="#fff" stop-opacity="0"/><stop offset="0.12" stop-color="#fff" stop-opacity="0.1"/><stop offset="0.39" stop-color="#fff" stop-opacity="0.35"/><stop offset="0.77" stop-color="#fff" stop-opacity="0.74"/><stop offset="1" stop-color="#fff"/></linearGradient><linearGradient id="linear-gradient-3" x1="143.08" y1="317.73" x2="143.08" y2="237.57" gradientTransform="matrix(1.08, 0.01, 0.01, 1, -3.36, -0.69)" gradientUnits="userSpaceOnUse"><stop offset="0" stop-color="#fff" stop-opacity="0"/><stop offset="0.09" stop-color="#fff" stop-opacity="0.05"/><stop offset="0.26" stop-color="#fff" stop-opacity="0.19"/><stop offset="0.48" stop-color="#fff" stop-opacity="0.41"/><stop offset="0.75" stop-color="#fff" stop-opacity="0.7"/><stop offset="1" stop-color="#fff"/></linearGradient></defs><title>mountain-sunset</title><g id="BACKGROUND"><rect id="_Rectangle_" data-name="&lt;Rectangle&gt;" class="cls-1" width="800" height="800"/></g><g id="OBJECTS"><g id="_Group_" data-name="&lt;Group&gt;"><path id="_Path_" data-name="&lt;Path&gt;" class="cls-2" d="M792,298.06c2.75-19.42-2.45-41-17.61-53.44s-41-11.67-52.14,4.47c-5.68,8.25-6.86,18.7-10.69,28s-12.59,18.2-22.4,16.22c-6.79-1.36-11.42-7.39-16.63-12s-13.48-7.78-18.7-3.23c-2.09,1.82-3.16,4.51-4.72,6.81a19,19,0,0,1-21.82,6.92c-6.22-2.36-12.29-8.14-18.47-5.67-4,1.62-6,6.23-9.73,8.53-4.73,3-10.81,1.44-16.33.7-10-1.34-20.07.18-30,1.7q-48.29,7.4-96.56,14.82c30.87,6.62,63.2-1.86,94.46,2.54,16.65,2.34,32.81,8.32,49.62,8.56,11.89.17,23.94-2.54,35.6-.13,17.31,3.58,32.88,18.19,50.17,14.51,13.63-2.9,24.27-16.87,38.15-15.56,3.93.36,7.62,2,11.26,3.53,12.33,5.24,25.89,10,38.9,6.78s23.92-17.82,18.42-30" transform="translate(0.5)"/><g id="_Group_2" data-name="&lt;Group&gt;"><circle id="_Path_2" data-name="&lt;Path&gt;" class="cls-3" cx="419.68" cy="270.75" r="189.32"/><circle id="_Path_3" data-name="&lt;Path&gt;" class="cls-4" cx="419.18" cy="270.75" r="113.64" transform="translate(-68.17 375.71) rotate(-45)"/></g><g id="_Group_3" data-name="&lt;Group&gt;"><g id="_Group_4" data-name="&lt;Group&gt;"><polygon id="_Path_4" data-name="&lt;Path&gt;" class="cls-5" points="616.73 400.4 690.54 345.05 729.61 372.72 800.5 321 800.5 469.11 609 469.11 616.73 400.4"/><polygon id="_Path_5" data-name="&lt;Path&gt;" class="cls-6" points="690.54 345.05 717.44 381.67 729.61 372.72 690.54 345.05"/></g><g id="_Group_5" data-name="&lt;Group&gt;"><polygon id="_Path_6" data-name="&lt;Path&gt;" class="cls-5" points="116.91 297 347.93 483.93 0.5 483.93 0.5 392.59 116.91 297"/><polygon id="_Path_7" data-name="&lt;Path&gt;" class="cls-6" points="116.91 297 138.17 345.05 122.08 345.05 163.12 384.42 200.5 364.64 116.91 297"/></g><g id="_Group_6" data-name="&lt;Group&gt;"><path id="_Path_8" data-name="&lt;Path&gt;" class="cls-5" d="M0,448.69s68.26-8,235-103.64h30l10-14,142-70.28L800,441.05V578H0Z" transform="translate(0.5)"/><g id="_Group_7" data-name="&lt;Group&gt;"><polygon id="_Path_9" data-name="&lt;Path&gt;" class="cls-6" points="417.5 260.77 528.68 353.03 445.61 339 607.77 434.73 800.5 441.05 417.5 260.77"/><polygon id="_Path_10" data-name="&lt;Path&gt;" class="cls-6" points="607.77 434.73 505.38 516.71 641.81 434.73 607.77 434.73"/></g><polygon id="_Path_11" data-name="&lt;Path&gt;" class="cls-6" points="265.5 345.05 228.17 381.67 251.5 345.05 265.5 345.05"/></g></g><path id="_Compound_Path_" data-name="&lt;Compound Path&gt;" class="cls-7" d="M789.3,469.11v0a6.28,6.28,0,0,0-1.6-3.76c-.93-1.23-1.55-2.54-2.34-3.82-.91-1.46-1.91-2.73-2.11-4.5,1.6-1.54,3.21,3.41,5.33,2.73,1.48-.48.77-2.71-.12-4a28.41,28.41,0,0,1-4.12-9.83c-.39-1.74-.67-3.5-.9-5.27-.09-.71,0-4.52-1.64-3.46a2.28,2.28,0,0,0-.77,1.5c-.68,2.94-1.29,5.91-2.06,8.83-.61,2.33-.89,5.47-2.38,7.44-.82,1.06-1.82,1.88-1.73,3.36a.81.81,0,0,0,.08.34.82.82,0,0,0,.45.3c1.72.57,2.9-.69,4-1.82a1.66,1.66,0,0,1,.49-.39.55.55,0,0,1,.59.08c.38.37,0,1.53,0,2a9.4,9.4,0,0,1-1.82,4.09c-1.45,2-3.33,3.61-4.47,5.76-.08.15-.15.3-.22.46h-8.61l-58,58c-1-2-2.79-3.72-4.18-5.49a9.47,9.47,0,0,1-1.91-3.51c-.08-.34-.5-1.55-.3-1.84.45-.69,1.15.2,1.39.61a18.68,18.68,0,0,0,1.23,1.86,4.46,4.46,0,0,0,1.19,1.22,1.79,1.79,0,0,0,1.64.21,2.08,2.08,0,0,0,1.06-1.89,5.69,5.69,0,0,0-1.09-3.33A24.73,24.73,0,0,0,704,512.3c-.6-.65-1.17-1.31-1.72-2s-3-5.28-1.19-5.89a1.34,1.34,0,0,1,1.27.38c.34.31.58.72.89,1.06a3.63,3.63,0,0,0,2.87,1.2,1.19,1.19,0,0,0,1.26-1.39,6.32,6.32,0,0,0-1.6-3.75c-.93-1.24-1.55-2.55-2.34-3.83-.91-1.45-1.91-2.72-2.11-4.49,1.6-1.54,3.21,3.4,5.33,2.72,1.48-.47.77-2.7-.12-4a28.15,28.15,0,0,1-4.12-9.83c-.39-1.74-.67-3.5-.9-5.26-.09-.71,0-4.52-1.64-3.46a2.32,2.32,0,0,0-.78,1.5c-.67,2.94-1.28,5.9-2.05,8.82-.61,2.34-.89,5.48-2.38,7.44-.82,1.07-1.82,1.88-1.73,3.36a.77.77,0,0,0,.08.34.74.74,0,0,0,.45.3c1.72.58,2.9-.68,4-1.82a1.62,1.62,0,0,1,.49-.38.55.55,0,0,1,.59.07c.38.38,0,1.53,0,2a9.34,9.34,0,0,1-1.83,4.1c-1.44,2-3.33,3.6-4.46,5.75a2.62,2.62,0,0,0-.4,1.42,1.85,1.85,0,0,0,1.88,1.54c1.19.08,1.85-.83,2.26-1.85a3.08,3.08,0,0,1,1.17-1.71c.16-.09.4-.12.5,0a.42.42,0,0,1,.05.22,8.43,8.43,0,0,1-.79,4.14,10.29,10.29,0,0,1-2.66,3.19,8.33,8.33,0,0,0-1.53,1.77,2.69,2.69,0,0,0-.39,1.63,1.64,1.64,0,0,0,.95,1.33,2.06,2.06,0,0,0,2.11-.68c.27-.28,1.82-2.76,2.39-1.78.2.35-.24,1.69-.32,2.09a21.27,21.27,0,0,1-1.18,3.89c0,.13-.13.26-.19.4L693,517.75h-34a8.36,8.36,0,0,0-2.25-5.25c-1.79-2.15-4-4.53-3.53-7.28,1.87.16,2.38,3.38,4.26,3.35,1.38,0,1.94-1.88,1.64-3.23-.65-2.86-3-4.91-4.77-7.12a9.2,9.2,0,0,1-1.91-3.51c-.09-.34-.5-1.54-.31-1.84.45-.69,1.15.2,1.39.61q.57,1,1.23,1.86a4.8,4.8,0,0,0,1.19,1.23,1.87,1.87,0,0,0,1.65.21,2.1,2.1,0,0,0,1.05-1.9,5.59,5.59,0,0,0-1.09-3.32,22,22,0,0,0-2.32-2.7c-.59-.65-1.17-1.31-1.71-2s-3-5.27-1.2-5.89a1.34,1.34,0,0,1,1.27.38c.34.31.58.72.89,1.06a3.7,3.7,0,0,0,2.88,1.21,1.47,1.47,0,0,0,.77-.22,1.42,1.42,0,0,0,.48-1.18,6.28,6.28,0,0,0-1.6-3.75c-.92-1.24-1.54-2.54-2.34-3.82-.9-1.46-1.9-2.73-2.11-4.5,1.61-1.54,3.21,3.41,5.33,2.73,1.49-.48.77-2.71-.12-4a28,28,0,0,1-4.11-9.83c-.4-1.74-.67-3.5-.91-5.26-.09-.71,0-4.52-1.63-3.46a2.29,2.29,0,0,0-.78,1.5c-.68,2.94-1.29,5.9-2,8.82-.61,2.34-.9,5.48-2.39,7.44-.81,1.07-1.81,1.88-1.73,3.36a.86.86,0,0,0,.09.35.81.81,0,0,0,.44.3c1.73.57,2.9-.69,4-1.83a1.8,1.8,0,0,1,.49-.38.55.55,0,0,1,.59.07c.38.38,0,1.53,0,2a9.27,9.27,0,0,1-1.82,4.1c-1.44,2-3.33,3.6-4.47,5.76a2.68,2.68,0,0,0-.4,1.42,1.86,1.86,0,0,0,1.89,1.53c1.18.08,1.84-.83,2.25-1.84a3,3,0,0,1,1.18-1.72c.16-.08.39-.12.49,0a.51.51,0,0,1,.06.21,8.54,8.54,0,0,1-.79,4.14,10.57,10.57,0,0,1-2.66,3.19,8.05,8.05,0,0,0-1.53,1.77,2.71,2.71,0,0,0-.39,1.63,1.62,1.62,0,0,0,.94,1.33,2.06,2.06,0,0,0,2.11-.68c.27-.28,1.82-2.76,2.39-1.78.2.35-.23,1.69-.32,2.09a20.52,20.52,0,0,1-1.18,3.89,21.52,21.52,0,0,1-4.51,6.9c-.83.85-1.81,1.8-1.74,3,.08,1.59,2.07,2.29,3.41,1.91,1.87-.52,1.82-2.46,3.2-3.47a.43.43,0,0,1,.32-.12c.28,0,.31.42.26.69a18.16,18.16,0,0,1-3,7.4,30.54,30.54,0,0,0-2.37,3.41,6.18,6.18,0,0,0-.42,1h-9.57a8.1,8.1,0,0,0-1.37-1.92c-.64-.65-1.38-1.18-2-1.85-.42-.45-2.13-3.36-.37-3.29a1,1,0,0,1,.59.29c.42.39.69.92,1.09,1.33a1.41,1.41,0,0,0,1.53.48c.73-.34.69-1.38.44-2.15a13,13,0,0,0-2.48-4.36c-1-1.18-2.66-2.4-2.11-4.14a1.17,1.17,0,0,1,.36-.59,1,1,0,0,1,1.1,0,3,3,0,0,1,.85.79c.36.45,1.9,3,2.6,1.58a1.27,1.27,0,0,0,.08-.61,10.84,10.84,0,0,0-1.89-5.57c-1-1.49-2.43-2.75-3.11-4.42-.4-1-.47-2.78.92-2.81,1.16,0,2,1.36,2.91,1.89.71.42,1.87.34,2.11-.46a1.71,1.71,0,0,0-.09-1A12,12,0,0,0,631.4,486c-1.28-1.28-2.35-2-3.09-3.83-.28-.68-.42-1.61.19-2a1.33,1.33,0,0,1,1.55.29c.43.37.72.88,1.14,1.25a1.34,1.34,0,0,0,1.55.3,1.2,1.2,0,0,0,.44-1.2,3.56,3.56,0,0,0-.56-1.22c-.77-1.25-1.62-2.45-2.38-3.71-.58-.95-1.63-2.21-1.79-3.31a1,1,0,0,1,.39-1.06.81.81,0,0,1,.8.15,5.66,5.66,0,0,1,.6.6,2.73,2.73,0,0,0,1.54.77,1.22,1.22,0,0,0,1.08-.27,1.19,1.19,0,0,0,.22-.9c-.11-1.32-1.16-2.33-2.13-3.23-.6-.56-3.63-4.31-2.23-5.06,1.09-.59,2.52,2.84,3.67,1.44a1.48,1.48,0,0,0,.12-1.43,3,3,0,0,0-.93-1.33,13.49,13.49,0,0,0-1.76-1c-.75-.45-2.62-3-1.24-3.61,1-.48,1.77,1.06,2.53,1.47a.66.66,0,0,0,.8,0l0,0a.77.77,0,0,0,.08-.34,7.63,7.63,0,0,0-1.63-4.53,11.57,11.57,0,0,1-2.14-4.35,1.42,1.42,0,0,1,0-.82.62.62,0,0,1,.67-.38c.44.11.18.91.57,1.23a1.28,1.28,0,0,0,1.37,0,1.78,1.78,0,0,0,.55-2,6.54,6.54,0,0,0-1.09-1.87,16.53,16.53,0,0,1-2.66-6.27c-.44-2.22-.09-4.28-.13-6.48,0-.58.11-3.52-.88-3.46s-1,2.61-1,3.22c-.31,4.92-.73,10.22-3.89,14a3.48,3.48,0,0,0-1,1.63,1.5,1.5,0,0,0,2.54,1.27c.3-.3.67-1.06,1.18-.55a1.22,1.22,0,0,1,.28.82,9.84,9.84,0,0,1-1.9,5.66,24.63,24.63,0,0,0-3,5.29,3.45,3.45,0,0,0-.17,1.9,1.6,1.6,0,0,0,1.31,1.24c1.06.07,1.23-.93,2-1.34a1.05,1.05,0,0,1,1.23.13,1.13,1.13,0,0,1,.24.84c-.06,1.52-1.43,2.59-2.51,3.66a12.47,12.47,0,0,0-2.86,4.43,4,4,0,0,0-.31,1.51,1.68,1.68,0,0,0,.67,1.34,1.85,1.85,0,0,0,2.19-.37,8.23,8.23,0,0,0,1.31-2,1.66,1.66,0,0,1,1-.9c1.79-.39.51,2.63.13,3.12-2.12,2.79-5.07,5.52-4.89,9a1.59,1.59,0,0,0,.72,1.43c.74.34,1.5-.41,2-1.07.3-.43,2.32-4.58,2.6-2.41s-1.31,3-2.45,4.38a14.8,14.8,0,0,0-2.82,5.33c-.24.83-.27,2,.54,2.3,1.24.49,1.66-1.18,2.39-1.74a1.25,1.25,0,0,1,2.06.73,2.63,2.63,0,0,1-.42,1.8c-1.31,2.29-4,3.68-4.9,6.15a1.73,1.73,0,0,0,.29,2c1,.71,1.91-.51,2.54-1.07a1.12,1.12,0,0,1,.74-.38.75.75,0,0,1,.63.58,1.77,1.77,0,0,1-.08.91c-.79,2.56-3,3.66-4.56,5.66a6.84,6.84,0,0,0-1.31,3,2.9,2.9,0,0,0,.1,1.6,1.39,1.39,0,0,0,1.24.9c.69,0,1.19-.67,1.44-1.31a5.52,5.52,0,0,1,.89-1.86c.6-.63,1.87-.55,2,.46.06.77-1.17,1.81-1.57,2.43-.89,1.39-1.74,2.79-2.59,4.2H608.3l-26.79,26.79a19.34,19.34,0,0,0-1.54-1.69,14.74,14.74,0,0,1-3.7-6.54,14.88,14.88,0,0,0,2.81,2.74c.76.55,1.58.47,1.89-.54a3.16,3.16,0,0,0,0-1.3,9.25,9.25,0,0,0-.64-2.76,18,18,0,0,0-3-3.84c-1-1.25-1.93-2.86-1.57-4.45a.92.92,0,0,1,.39-.64c.37-.18.81.12,1,.48.46.77.47,1.34,1.46,1a1.86,1.86,0,0,0,1.15-1.76,3.62,3.62,0,0,0-.62-1.63c-1.54-2.64-4.56-5-4.07-8.44a1,1,0,0,1,.29-.65c.46-.39,1.13.12,1.47.62s.85,1.11,1.41.9.55-1,.4-1.54c-.65-2.55-2.26-4.74-3.34-7.15a3.92,3.92,0,0,1-.44-2,.65.65,0,0,1,.12-.36.57.57,0,0,1,.82,0c.54.47.59,1.42,1.49,1.54s1.48-.87,1.4-1.71a5.41,5.41,0,0,0-1.06-2.28c-3.3-5.25-3.26-12.19-5.28-18a1.26,1.26,0,0,0-.35-.59.84.84,0,0,0-1.16.44,2.52,2.52,0,0,0-.07,1.39c.47,4-.27,8-1,11.89a27.8,27.8,0,0,1-1.08,4.43c-.66,1.85-1.7,3.54-2.44,5.36-.37.92-.47,2.29.47,2.6,1.18.38,2-1.51,3.25-1.47,2,.07.43,2.82.05,3.59-.9,1.81-2.38,3.51-2.43,5.62a1.59,1.59,0,0,0,.18.84c1.09,1.69,2.59-1,3.06-1.67a.77.77,0,0,1,1-.33c.31.2.3.64.27,1-.44,4.21-4.79,6.77-5.92,10.78a2.1,2.1,0,0,0,0,1.52c.53,1.08,2.21.8,3.08,0,.6-.59,1-1.38,1.58-2s1.76-.92,1.48.46a2.85,2.85,0,0,1-.77,1.24c-.93,1-1.86,2.07-2.88,3a10.46,10.46,0,0,0-1.5,1.55,8.58,8.58,0,0,0-1.07,2.39c-.25.75-.45,1.7.15,2.21a1.32,1.32,0,0,0,1.37.13,3.31,3.31,0,0,0,1.11-.93,11.77,11.77,0,0,0,1.36-2,.53.53,0,0,1,.71.27,1.33,1.33,0,0,1,.06.84c-.36,2.33-1.49,3.41-3.14,4.88s-3.87,3.28-4.09,5.66a2.29,2.29,0,0,0,.19,1.27H501.28a1.22,1.22,0,0,0,0-.26,6.35,6.35,0,0,0-1.6-3.75c-.93-1.24-1.55-2.55-2.35-3.83-.9-1.45-1.9-2.72-2.11-4.49,1.61-1.55,3.21,3.4,5.33,2.72,1.49-.47.77-2.7-.11-4a28.15,28.15,0,0,1-4.12-9.83c-.39-1.74-.67-3.5-.91-5.27-.09-.7,0-4.52-1.63-3.45a2.32,2.32,0,0,0-.78,1.49c-.68,2.94-1.29,5.91-2,8.83-.61,2.33-.9,5.48-2.39,7.44-.81,1.07-1.81,1.88-1.72,3.36a.66.66,0,0,0,.08.34.76.76,0,0,0,.44.3c1.73.58,2.91-.68,4-1.82a1.41,1.41,0,0,1,.49-.38.51.51,0,0,1,.58.07c.38.38,0,1.53,0,2a9.21,9.21,0,0,1-1.82,4.1c-1.44,2-3.33,3.6-4.47,5.75a2.8,2.8,0,0,0-.4,1.42,1.86,1.86,0,0,0,1.89,1.54c1.18.08,1.85-.84,2.25-1.85a3.06,3.06,0,0,1,1.18-1.71c.16-.09.39-.13.49,0a.4.4,0,0,1,.06.22,8.41,8.41,0,0,1-.56,3.55L480.6,555.3v0c-.65-2.86-3-4.91-4.77-7.12a9.33,9.33,0,0,1-1.91-3.51c-.08-.34-.5-1.54-.31-1.84.45-.69,1.15.2,1.39.61q.57,1,1.23,1.86a4.68,4.68,0,0,0,1.2,1.23,1.81,1.81,0,0,0,1.64.2,2.08,2.08,0,0,0,1.05-1.89,5.64,5.64,0,0,0-1.09-3.33,22.72,22.72,0,0,0-2.32-2.69c-.59-.65-1.16-1.31-1.71-2s-3-5.27-1.19-5.89a1.32,1.32,0,0,1,1.26.38,12.8,12.8,0,0,1,.89,1.06,3.71,3.71,0,0,0,2.88,1.21,1.57,1.57,0,0,0,.77-.22,1.46,1.46,0,0,0,.49-1.18,6.41,6.41,0,0,0-1.6-3.75c-.93-1.24-1.55-2.54-2.35-3.82-.9-1.46-1.9-2.73-2.11-4.5,1.61-1.54,3.21,3.41,5.33,2.73,1.49-.48.77-2.71-.11-4a28.15,28.15,0,0,1-4.12-9.83c-.39-1.74-.67-3.5-.91-5.26-.09-.71,0-4.52-1.63-3.46a2.32,2.32,0,0,0-.78,1.5c-.68,2.94-1.29,5.9-2.05,8.82-.61,2.34-.9,5.48-2.39,7.44-.81,1.07-1.81,1.88-1.72,3.36a.66.66,0,0,0,.08.34.78.78,0,0,0,.44.31c1.73.57,2.91-.69,4-1.83a1.41,1.41,0,0,1,.49-.38.53.53,0,0,1,.58.07c.38.38.05,1.53,0,2a9.21,9.21,0,0,1-1.82,4.1c-1.44,2-3.33,3.6-4.47,5.75a2.83,2.83,0,0,0-.4,1.43,1.86,1.86,0,0,0,1.89,1.53c1.18.08,1.85-.83,2.25-1.84a3.09,3.09,0,0,1,1.18-1.72c.16-.09.39-.12.49,0a.39.39,0,0,1,.06.21,8.43,8.43,0,0,1-.79,4.14,10.57,10.57,0,0,1-2.66,3.19,8.05,8.05,0,0,0-1.53,1.77,2.69,2.69,0,0,0-.39,1.63,1.64,1.64,0,0,0,.95,1.33,2,2,0,0,0,2.1-.68c.28-.28,1.83-2.76,2.39-1.78.2.35-.23,1.69-.31,2.09a22.08,22.08,0,0,1-1.18,3.89,21.72,21.72,0,0,1-4.52,6.9c-.83.85-1.8,1.8-1.74,3,.08,1.59,2.07,2.29,3.41,1.91,1.88-.52,1.82-2.46,3.2-3.48a.44.44,0,0,1,.33-.11c.27,0,.3.42.26.69a18.62,18.62,0,0,1-1,3.64l-17,6.06c-.39-.44-.78-.87-1.15-1.33-.59-.74-3-5.27-1.19-5.88a1.31,1.31,0,0,1,1.27.38,13.12,13.12,0,0,1,.89,1.06,3.63,3.63,0,0,0,2.87,1.2,1.39,1.39,0,0,0,.78-.22,1.42,1.42,0,0,0,.48-1.17,6.23,6.23,0,0,0-1.6-3.75c-.93-1.24-1.55-2.55-2.34-3.83-.91-1.45-1.91-2.72-2.11-4.49,1.6-1.55,3.21,3.4,5.33,2.72,1.48-.47.77-2.71-.12-4A28.13,28.13,0,0,1,451,536.4c-.4-1.74-.68-3.5-.91-5.27-.09-.71,0-4.52-1.64-3.45a2.26,2.26,0,0,0-.77,1.49c-.68,2.94-1.29,5.91-2.06,8.83-.61,2.33-.89,5.48-2.38,7.44-.82,1.07-1.82,1.88-1.73,3.36a.77.77,0,0,0,.08.34.82.82,0,0,0,.45.3c1.72.58,2.9-.68,4-1.82a1.62,1.62,0,0,1,.49-.38.53.53,0,0,1,.59.07c.38.38,0,1.53,0,2a9.44,9.44,0,0,1-1.82,4.1c-1.45,2-3.33,3.6-4.47,5.75a2.7,2.7,0,0,0-.4,1.42,1.86,1.86,0,0,0,1.88,1.54c1.19.08,1.85-.84,2.26-1.85a3,3,0,0,1,1.17-1.71c.16-.09.4-.13.5,0a.4.4,0,0,1,.05.22,8.56,8.56,0,0,1-.78,4.14,10.43,10.43,0,0,1-2.67,3.18,8.06,8.06,0,0,0-1.52,1.78,2.71,2.71,0,0,0-.4,1.61l-10.74,3.84H391.18l-19-8.79a25.26,25.26,0,0,0-2.25-2.6c-.59-.65-1.17-1.31-1.71-2s-3-5.27-1.2-5.89a1.34,1.34,0,0,1,1.27.38c.34.31.58.72.89,1.06a3.7,3.7,0,0,0,2.88,1.21,1.47,1.47,0,0,0,.77-.22,1.42,1.42,0,0,0,.48-1.18,6.33,6.33,0,0,0-1.59-3.75c-.93-1.24-1.55-2.54-2.35-3.82-.9-1.46-1.9-2.73-2.11-4.5,1.61-1.54,3.21,3.41,5.33,2.73,1.49-.48.77-2.71-.12-4a28,28,0,0,1-4.11-9.83c-.4-1.74-.67-3.5-.91-5.26-.09-.71,0-4.52-1.63-3.46a2.34,2.34,0,0,0-.78,1.5c-.68,2.94-1.29,5.9-2.05,8.82-.61,2.34-.9,5.48-2.39,7.44-.81,1.07-1.81,1.88-1.72,3.36a.72.72,0,0,0,.08.35.81.81,0,0,0,.44.3c1.73.57,2.9-.69,4-1.83a1.8,1.8,0,0,1,.49-.38.55.55,0,0,1,.59.07c.38.38,0,1.53,0,2a9.27,9.27,0,0,1-1.82,4.1c-1.44,2-3.33,3.6-4.47,5.76a2.68,2.68,0,0,0-.4,1.42,1.86,1.86,0,0,0,1.89,1.53c1.18.08,1.85-.83,2.25-1.84a3,3,0,0,1,1.18-1.72c.16-.08.39-.12.49,0a.51.51,0,0,1,.06.21,8.54,8.54,0,0,1-.79,4.14,6.45,6.45,0,0,1-.76,1.22L355.83,557a5.71,5.71,0,0,0-1.08-3.14,22,22,0,0,0-2.32-2.7c-.59-.65-1.16-1.31-1.71-2s-3-5.27-1.19-5.89a1.32,1.32,0,0,1,1.26.38,12.8,12.8,0,0,1,.89,1.06,3.7,3.7,0,0,0,2.88,1.21,1.2,1.2,0,0,0,1.26-1.4,6.41,6.41,0,0,0-1.6-3.75c-.93-1.23-1.55-2.54-2.35-3.82-.9-1.46-1.9-2.73-2.11-4.5,1.61-1.54,3.21,3.41,5.33,2.73,1.49-.48.77-2.71-.12-4a28,28,0,0,1-4.11-9.83c-.39-1.74-.67-3.5-.91-5.26-.09-.71,0-4.52-1.63-3.46a2.34,2.34,0,0,0-.78,1.5c-.68,2.94-1.29,5.91-2.05,8.82-.61,2.34-.9,5.48-2.39,7.44-.81,1.07-1.81,1.88-1.72,3.36a.72.72,0,0,0,.08.35.81.81,0,0,0,.44.3c1.73.57,2.91-.69,4-1.82a1.66,1.66,0,0,1,.49-.39.57.57,0,0,1,.59.07c.38.38,0,1.54,0,2a9.27,9.27,0,0,1-1.82,4.1c-1.44,2-3.33,3.61-4.47,5.76a2.77,2.77,0,0,0-.4,1.42,1.86,1.86,0,0,0,1.89,1.53c1.18.08,1.85-.83,2.25-1.84a3,3,0,0,1,1.18-1.72c.16-.08.39-.12.49,0a.39.39,0,0,1,.06.21,8.43,8.43,0,0,1-.79,4.14A10,10,0,0,1,342.8,551L333,546.44a9.78,9.78,0,0,0-2.13-4c-1.79-2.14-4-4.53-3.53-7.28,1.87.16,2.38,3.39,4.26,3.35,1.38,0,1.94-1.88,1.64-3.23-.65-2.86-3-4.91-4.77-7.12a9.2,9.2,0,0,1-1.91-3.51c-.09-.34-.5-1.54-.31-1.84.45-.69,1.15.21,1.39.61q.57,1,1.23,1.86a4.8,4.8,0,0,0,1.19,1.23,1.84,1.84,0,0,0,1.65.21,2.08,2.08,0,0,0,1.05-1.9,5.66,5.66,0,0,0-1.09-3.32,23.92,23.92,0,0,0-2.32-2.7c-.59-.64-1.17-1.31-1.71-2s-3-5.27-1.2-5.89a1.34,1.34,0,0,1,1.27.38c.34.31.58.72.89,1.06a3.66,3.66,0,0,0,2.88,1.21,1.38,1.38,0,0,0,.77-.22,1.42,1.42,0,0,0,.48-1.18,6.28,6.28,0,0,0-1.6-3.75c-.93-1.23-1.54-2.54-2.34-3.82-.9-1.46-1.9-2.73-2.11-4.5,1.61-1.54,3.21,3.41,5.33,2.73,1.49-.48.77-2.71-.12-4a28,28,0,0,1-4.11-9.83c-.4-1.73-.67-3.5-.91-5.26-.09-.71,0-4.52-1.63-3.46a2.29,2.29,0,0,0-.78,1.5c-.68,2.94-1.29,5.91-2.05,8.82-.62,2.34-.9,5.48-2.39,7.44-.81,1.07-1.81,1.88-1.73,3.37a.86.86,0,0,0,.09.34.76.76,0,0,0,.44.3c1.72.57,2.9-.69,4-1.82a1.66,1.66,0,0,1,.49-.39.57.57,0,0,1,.59.07c.38.38,0,1.54,0,2a9.29,9.29,0,0,1-1.82,4.09c-1.44,2-3.33,3.61-4.47,5.76a2.68,2.68,0,0,0-.4,1.42,1.88,1.88,0,0,0,1.89,1.54c1.18.07,1.84-.84,2.25-1.85a3,3,0,0,1,1.18-1.72c.16-.08.39-.12.49,0a.51.51,0,0,1,.06.21,8.66,8.66,0,0,1-.79,4.14,10.57,10.57,0,0,1-2.66,3.19,8.05,8.05,0,0,0-1.53,1.77,2.72,2.72,0,0,0-.39,1.64,1.6,1.6,0,0,0,.94,1.32,2.06,2.06,0,0,0,2.11-.68c.27-.28,1.82-2.76,2.39-1.78.2.35-.24,1.69-.32,2.09a21.74,21.74,0,0,1-5.7,10.8c-.82.84-1.8,1.79-1.73,3,.08,1.59,2.07,2.29,3.41,1.91,1.87-.52,1.82-2.46,3.2-3.47a.43.43,0,0,1,.32-.12c.28,0,.31.42.26.69a18,18,0,0,1-1.64,5l-16.51-7.63a2.2,2.2,0,0,0,.87-1.76,5.67,5.67,0,0,0-1.09-3.33,25.82,25.82,0,0,0-2.32-2.7c-.6-.64-1.17-1.31-1.72-2s-3-5.27-1.19-5.88a1.33,1.33,0,0,1,1.27.37c.34.32.58.72.89,1.07a3.67,3.67,0,0,0,2.87,1.2,1.42,1.42,0,0,0,.78-.22,1.45,1.45,0,0,0,.48-1.17,6.29,6.29,0,0,0-1.6-3.75c-.93-1.24-1.55-2.55-2.34-3.83-.91-1.46-1.91-2.73-2.11-4.5,1.6-1.54,3.21,3.41,5.33,2.73,1.48-.48.76-2.71-.12-4a28.15,28.15,0,0,1-4.12-9.83c-.39-1.74-.67-3.5-.9-5.27-.1-.71,0-4.52-1.64-3.45a2.29,2.29,0,0,0-.78,1.49c-.67,2.94-1.28,5.91-2.05,8.83-.61,2.33-.89,5.48-2.39,7.44-.81,1.07-1.81,1.88-1.72,3.36a.77.77,0,0,0,.08.34.76.76,0,0,0,.45.3c1.72.57,2.9-.68,4-1.82a1.69,1.69,0,0,1,.49-.39.55.55,0,0,1,.59.08c.38.38,0,1.53,0,2a9.26,9.26,0,0,1-1.82,4.1c-1.44,2-3.33,3.6-4.46,5.75a2.59,2.59,0,0,0-.4,1.42,1.86,1.86,0,0,0,1.88,1.54c1.18.07,1.85-.84,2.26-1.85A3,3,0,0,1,295,517.8c.16-.09.39-.13.5,0a.4.4,0,0,1,.05.22,8.47,8.47,0,0,1-.79,4.14,10.37,10.37,0,0,1-2.66,3.18,9.35,9.35,0,0,0-1.39,1.56l-15.85-7.32-.73-.78c-.59-.64-1.17-1.31-1.71-2s-3-5.27-1.2-5.89a1.34,1.34,0,0,1,1.27.38c.34.31.58.72.89,1.06a3.66,3.66,0,0,0,2.88,1.21,1.38,1.38,0,0,0,.77-.22,1.42,1.42,0,0,0,.48-1.18,6.28,6.28,0,0,0-1.6-3.75c-.93-1.23-1.54-2.54-2.34-3.82-.9-1.46-1.9-2.73-2.11-4.5,1.61-1.54,3.21,3.41,5.33,2.73,1.49-.48.77-2.71-.12-4a28,28,0,0,1-4.11-9.83c-.4-1.73-.67-3.5-.91-5.26-.09-.71,0-4.52-1.63-3.46a2.29,2.29,0,0,0-.78,1.5c-.68,2.94-1.29,5.91-2,8.82-.62,2.34-.9,5.48-2.39,7.44-.81,1.07-1.81,1.88-1.73,3.37a.86.86,0,0,0,.09.34.76.76,0,0,0,.44.3c1.72.57,2.9-.69,4-1.82a1.66,1.66,0,0,1,.49-.39.57.57,0,0,1,.59.07c.38.38,0,1.54,0,2a9.29,9.29,0,0,1-1.82,4.09c-1.44,2-3.33,3.61-4.47,5.76a2.68,2.68,0,0,0-.4,1.42,1.35,1.35,0,0,0,.15.53l-4-1.84a27.1,27.1,0,0,0-2.17-2.51c-.59-.64-1.17-1.3-1.71-2s-3-5.27-1.2-5.88a1.31,1.31,0,0,1,1.27.38,13.12,13.12,0,0,1,.89,1.06,3.66,3.66,0,0,0,2.88,1.2,1.19,1.19,0,0,0,1.25-1.39,6.23,6.23,0,0,0-1.6-3.75c-.93-1.24-1.54-2.55-2.34-3.83-.9-1.45-1.9-2.72-2.11-4.49,1.6-1.55,3.21,3.4,5.33,2.72,1.49-.47.77-2.7-.12-4a28.13,28.13,0,0,1-4.11-9.83c-.4-1.74-.68-3.5-.91-5.27-.09-.71,0-4.52-1.63-3.45a2.27,2.27,0,0,0-.78,1.49c-.68,2.94-1.29,5.91-2.05,8.83-.62,2.33-.9,5.48-2.39,7.44-.81,1.07-1.81,1.88-1.73,3.36a.78.78,0,0,0,.09.34.76.76,0,0,0,.44.3c1.72.58,2.9-.68,4-1.82a1.62,1.62,0,0,1,.49-.38.53.53,0,0,1,.59.07c.38.38,0,1.53,0,2a9.32,9.32,0,0,1-1.82,4.1c-1.44,2-3.33,3.6-4.47,5.75a2.7,2.7,0,0,0-.4,1.42,1.86,1.86,0,0,0,1.89,1.54c1.18.08,1.84-.84,2.25-1.85a3,3,0,0,1,1.18-1.71c.16-.09.39-.13.49,0a.51.51,0,0,1,.06.22,8.68,8.68,0,0,1-.79,4.14,5.94,5.94,0,0,1-.73,1.17l-18.81-8.69c-.77-.93-1.6-1.82-2.32-2.74a9.29,9.29,0,0,1-1.91-3.5c-.08-.35-.5-1.55-.3-1.85.45-.69,1.15.21,1.39.61a20.51,20.51,0,0,0,1.22,1.86,4.84,4.84,0,0,0,1.2,1.23,1.82,1.82,0,0,0,1.64.21,2.08,2.08,0,0,0,1.06-1.89,5.67,5.67,0,0,0-1.09-3.33,23.92,23.92,0,0,0-2.32-2.7c-.6-.64-1.17-1.31-1.72-2s-3-5.27-1.19-5.89a1.36,1.36,0,0,1,1.27.38c.34.32.58.72.89,1.07a3.67,3.67,0,0,0,2.87,1.2,1.42,1.42,0,0,0,.78-.22,1.48,1.48,0,0,0,.48-1.18,6.34,6.34,0,0,0-1.6-3.75c-.93-1.23-1.55-2.54-2.34-3.82-.91-1.46-1.91-2.73-2.11-4.5,1.6-1.54,3.21,3.41,5.33,2.73,1.48-.48.77-2.71-.12-4a28.19,28.19,0,0,1-4.12-9.84c-.39-1.73-.67-3.49-.9-5.26-.09-.71,0-4.52-1.64-3.46a2.34,2.34,0,0,0-.78,1.5c-.67,2.94-1.28,5.91-2.05,8.83-.61,2.33-.89,5.47-2.38,7.44-.82,1.06-1.82,1.88-1.73,3.36a.81.81,0,0,0,.08.34.76.76,0,0,0,.45.3c1.72.57,2.9-.69,4-1.82a1.66,1.66,0,0,1,.49-.39.55.55,0,0,1,.59.08c.38.37,0,1.53,0,2a9.3,9.3,0,0,1-1.83,4.09c-1.44,2-3.33,3.61-4.46,5.76a2.59,2.59,0,0,0-.4,1.42,1.86,1.86,0,0,0,1.88,1.54c1.18.07,1.85-.84,2.26-1.85a3.11,3.11,0,0,1,1.17-1.72c.16-.08.39-.12.5,0a.38.38,0,0,1,0,.21,8.49,8.49,0,0,1-.79,4.15,10.37,10.37,0,0,1-2.66,3.18,8.33,8.33,0,0,0-1.53,1.77,2.72,2.72,0,0,0-.39,1.64,1.63,1.63,0,0,0,.95,1.32,2.05,2.05,0,0,0,2.11-.67c.27-.29,1.82-2.77,2.39-1.79.2.35-.24,1.69-.32,2.09a20.89,20.89,0,0,1-1.09,3.64l-17.27-8v0a6.35,6.35,0,0,0-1.6-3.75c-.93-1.24-1.55-2.55-2.34-3.83-.91-1.45-1.91-2.72-2.11-4.49,1.6-1.55,3.21,3.4,5.32,2.72,1.49-.47.77-2.7-.11-4a28.15,28.15,0,0,1-4.12-9.83c-.39-1.74-.67-3.5-.9-5.27-.1-.7,0-4.52-1.64-3.45a2.32,2.32,0,0,0-.78,1.49c-.67,2.94-1.29,5.91-2,8.83-.61,2.33-.89,5.48-2.39,7.44-.81,1.07-1.81,1.88-1.72,3.36a.77.77,0,0,0,.08.34.76.76,0,0,0,.45.3c1.72.58,2.9-.68,4-1.82a1.51,1.51,0,0,1,.49-.38.51.51,0,0,1,.58.07c.39.38,0,1.53,0,2a9.21,9.21,0,0,1-1.82,4.1c-.23.32-.49.63-.74.94l-8.53-3.94c-.44-.51-.92-1-1.38-1.5s-1.16-1.31-1.71-2-3-5.27-1.19-5.89a1.35,1.35,0,0,1,1.26.38,12.94,12.94,0,0,1,.89,1.07,3.7,3.7,0,0,0,2.88,1.2,1.38,1.38,0,0,0,.77-.22,1.45,1.45,0,0,0,.49-1.17,6.41,6.41,0,0,0-1.6-3.76c-.93-1.23-1.55-2.54-2.35-3.82-.9-1.46-1.9-2.73-2.11-4.5,1.61-1.54,3.21,3.41,5.33,2.73,1.49-.48.77-2.71-.11-4a28.22,28.22,0,0,1-4.12-9.83c-.39-1.74-.67-3.5-.91-5.27-.09-.71,0-4.52-1.63-3.46a2.34,2.34,0,0,0-.78,1.5c-.68,2.94-1.29,5.91-2.05,8.83-.61,2.33-.9,5.47-2.39,7.44-.81,1.06-1.81,1.88-1.72,3.36a.68.68,0,0,0,.08.34.76.76,0,0,0,.45.3c1.72.57,2.9-.69,4-1.82a1.44,1.44,0,0,1,.49-.39.53.53,0,0,1,.58.08c.38.37.05,1.53,0,2a9.18,9.18,0,0,1-1.82,4.09c-1.44,2-3.33,3.61-4.47,5.76a2.77,2.77,0,0,0-.4,1.42,1.88,1.88,0,0,0,1.89,1.54c1.18.07,1.85-.84,2.25-1.85a3.12,3.12,0,0,1,1.18-1.72c.16-.08.39-.12.49,0a.39.39,0,0,1,.06.21,8.49,8.49,0,0,1-.79,4.15,6.51,6.51,0,0,1-.39.69l-11.86-5.48a8.79,8.79,0,0,0-2.26-4.89c-1.79-2.15-4-4.53-3.53-7.28,1.88.16,2.38,3.38,4.26,3.34,1.38,0,1.94-1.87,1.64-3.22-.65-2.86-3-4.91-4.77-7.12a9.33,9.33,0,0,1-1.91-3.51c-.09-.34-.5-1.55-.31-1.84.45-.69,1.15.2,1.39.61q.57,1,1.23,1.86a4.61,4.61,0,0,0,1.19,1.22A1.81,1.81,0,0,0,161,447a2.08,2.08,0,0,0,1.05-1.89A5.64,5.64,0,0,0,161,441.8a22.72,22.72,0,0,0-2.32-2.69c-.59-.65-1.16-1.31-1.71-2s-3-5.28-1.2-5.89a1.34,1.34,0,0,1,1.27.38c.34.31.58.72.89,1.06a3.7,3.7,0,0,0,2.88,1.21,1.57,1.57,0,0,0,.77-.22,1.46,1.46,0,0,0,.49-1.18,6.38,6.38,0,0,0-1.6-3.75c-.93-1.24-1.55-2.55-2.35-3.83-.9-1.45-1.9-2.72-2.11-4.49,1.61-1.54,3.21,3.4,5.33,2.73,1.49-.48.77-2.71-.12-4a28.13,28.13,0,0,1-4.11-9.83c-.39-1.74-.67-3.5-.91-5.26-.09-.71,0-4.52-1.63-3.46a2.32,2.32,0,0,0-.78,1.5c-.68,2.94-1.29,5.9-2,8.82-.61,2.34-.9,5.48-2.39,7.44-.81,1.07-1.81,1.88-1.72,3.36a.66.66,0,0,0,.08.34.72.72,0,0,0,.44.3c1.73.58,2.91-.68,4-1.82a1.62,1.62,0,0,1,.49-.38.55.55,0,0,1,.59.07c.38.38,0,1.53,0,2a9.32,9.32,0,0,1-1.82,4.1c-1.44,2-3.33,3.6-4.47,5.75a2.83,2.83,0,0,0-.4,1.42,1.86,1.86,0,0,0,1.89,1.54c1.18.08,1.85-.83,2.25-1.85a3,3,0,0,1,1.18-1.71c.16-.09.39-.12.49,0a.51.51,0,0,1,.06.21,8.43,8.43,0,0,1-.79,4.14,10.57,10.57,0,0,1-2.66,3.19,8.05,8.05,0,0,0-1.53,1.77,2.69,2.69,0,0,0-.39,1.63,1.62,1.62,0,0,0,.94,1.33,2.06,2.06,0,0,0,2.11-.68c.28-.28,1.83-2.76,2.39-1.78.2.35-.23,1.69-.31,2.09a22.08,22.08,0,0,1-1.18,3.89,21.72,21.72,0,0,1-4.52,6.9c-.83.85-1.81,1.8-1.74,3,.08,1.59,2.07,2.29,3.41,1.91,1.88-.52,1.82-2.47,3.2-3.48a.43.43,0,0,1,.32-.11c.28,0,.31.41.26.69a18,18,0,0,1-2,5.69L137.23,456c-.53-.64-1.12-1.24-1.68-1.85s-1.17-1.31-1.72-2-3-5.27-1.19-5.89a1.36,1.36,0,0,1,1.27.38c.34.32.58.72.89,1.07a3.68,3.68,0,0,0,2.87,1.2,1.19,1.19,0,0,0,1.26-1.39,6.28,6.28,0,0,0-1.6-3.76c-.93-1.23-1.54-2.54-2.34-3.82-.9-1.46-1.9-2.73-2.11-4.5,1.6-1.54,3.21,3.41,5.33,2.73,1.49-.48.77-2.71-.12-4a28.2,28.2,0,0,1-4.11-9.83c-.4-1.74-.68-3.5-.91-5.27-.09-.71,0-4.52-1.63-3.45a2.25,2.25,0,0,0-.78,1.49c-.68,2.94-1.29,5.91-2.06,8.83-.61,2.33-.89,5.47-2.38,7.44-.81,1.07-1.82,1.88-1.73,3.36a.94.94,0,0,0,.08.34.82.82,0,0,0,.45.3c1.72.57,2.9-.68,4-1.82a1.83,1.83,0,0,1,.49-.39.55.55,0,0,1,.59.08c.38.38,0,1.53,0,2a9.49,9.49,0,0,1-1.82,4.1c-1.45,2-3.33,3.6-4.47,5.75a2.68,2.68,0,0,0-.4,1.42,1.88,1.88,0,0,0,1.88,1.54c1.19.07,1.85-.84,2.26-1.85a3.11,3.11,0,0,1,1.17-1.72c.17-.08.4-.12.5,0a.51.51,0,0,1,.06.22,8.71,8.71,0,0,1-.79,4.14,7.13,7.13,0,0,1-.49.86L113.41,445c-.63-.73-1.27-1.44-1.85-2.17a9.47,9.47,0,0,1-1.91-3.51c-.08-.34-.5-1.55-.3-1.84.45-.69,1.15.2,1.39.61a18.68,18.68,0,0,0,1.23,1.86,4.46,4.46,0,0,0,1.19,1.22,1.79,1.79,0,0,0,1.64.21,2.08,2.08,0,0,0,1.06-1.89,5.71,5.71,0,0,0-1.09-3.33,24.73,24.73,0,0,0-2.32-2.69c-.6-.65-1.17-1.31-1.72-2s-3-5.28-1.19-5.89a1.34,1.34,0,0,1,1.27.38c.34.31.58.72.89,1.06a3.68,3.68,0,0,0,2.87,1.21,1.51,1.51,0,0,0,.78-.23,1.42,1.42,0,0,0,.48-1.17,6.32,6.32,0,0,0-1.6-3.75c-.93-1.24-1.55-2.55-2.34-3.83-.91-1.45-1.91-2.72-2.11-4.49,1.6-1.54,3.21,3.4,5.33,2.73,1.48-.48.77-2.71-.12-4a28.15,28.15,0,0,1-4.12-9.83c-.39-1.74-.67-3.5-.9-5.26-.09-.71,0-4.52-1.64-3.46a2.32,2.32,0,0,0-.78,1.5c-.67,2.94-1.28,5.9-2,8.82-.61,2.34-.89,5.48-2.38,7.44-.82,1.07-1.82,1.88-1.73,3.36a.77.77,0,0,0,.08.34.74.74,0,0,0,.45.3c1.72.58,2.9-.68,4-1.82a1.62,1.62,0,0,1,.49-.38.55.55,0,0,1,.59.07c.38.38,0,1.53,0,2a9.34,9.34,0,0,1-1.83,4.1c-1.44,2-3.33,3.6-4.46,5.75a2.7,2.7,0,0,0-.4,1.42,1.85,1.85,0,0,0,1.88,1.54c1.19.08,1.85-.83,2.26-1.85a3.08,3.08,0,0,1,1.17-1.71c.16-.09.4-.12.5,0a.38.38,0,0,1,0,.21,8.43,8.43,0,0,1-.79,4.14,10.29,10.29,0,0,1-2.66,3.19,8.33,8.33,0,0,0-1.53,1.77,2.69,2.69,0,0,0-.39,1.63,1.64,1.64,0,0,0,.95,1.33,2.06,2.06,0,0,0,2.11-.68c.27-.28,1.82-2.76,2.39-1.78.2.35-.24,1.69-.32,2.09a20.64,20.64,0,0,1-1,3.34l-13.65-6.3c-.59-.77-1.27-1.47-1.93-2.19s-1.17-1.31-1.72-2-3-5.27-1.19-5.88a1.33,1.33,0,0,1,1.27.37c.34.32.58.72.89,1.07a3.67,3.67,0,0,0,2.87,1.2A1.19,1.19,0,0,0,92.73,426a6.35,6.35,0,0,0-1.6-3.75c-.93-1.24-1.55-2.55-2.34-3.83-.91-1.46-1.91-2.73-2.11-4.5,1.6-1.54,3.21,3.41,5.32,2.73,1.49-.48.77-2.71-.11-4a28.15,28.15,0,0,1-4.12-9.83c-.39-1.74-.67-3.5-.9-5.27-.1-.71,0-4.52-1.64-3.45a2.29,2.29,0,0,0-.78,1.49c-.67,2.94-1.29,5.91-2,8.83-.61,2.33-.89,5.47-2.39,7.44-.81,1.07-1.81,1.88-1.72,3.36a.77.77,0,0,0,.08.34.76.76,0,0,0,.45.3c1.72.57,2.9-.68,4-1.82a1.69,1.69,0,0,1,.49-.39.53.53,0,0,1,.58.08c.39.38,0,1.53,0,2a9.26,9.26,0,0,1-1.82,4.1c-1.44,2-3.33,3.6-4.46,5.75a2.69,2.69,0,0,0-.41,1.42,1.88,1.88,0,0,0,1.89,1.54c1.18.07,1.85-.84,2.25-1.85a3.12,3.12,0,0,1,1.18-1.72c.16-.08.39-.12.5,0a.4.4,0,0,1,0,.22,8.47,8.47,0,0,1-.79,4.14,6.83,6.83,0,0,1-.6,1l-15.74-7.28-.24-.41c-.91-1.46-1.91-2.73-2.12-4.5,1.61-1.54,3.21,3.41,5.33,2.73,1.49-.48.77-2.71-.11-4A28.07,28.07,0,0,1,64.67,407c-.39-1.73-.67-3.5-.9-5.26-.1-.71,0-4.52-1.64-3.46a2.34,2.34,0,0,0-.78,1.5c-.67,2.94-1.29,5.91-2.05,8.82-.61,2.34-.9,5.48-2.39,7.44a10.64,10.64,0,0,0-1.5,2.11L42.08,412a5.48,5.48,0,0,1-.94-3.94c1.87.17,2.37,3.39,4.25,3.35,1.38,0,1.94-1.88,1.64-3.23-.65-2.86-3-4.9-4.77-7.11a9.41,9.41,0,0,1-1.91-3.51c-.09-.35-.5-1.55-.31-1.84.45-.7,1.15.2,1.39.6q.57,1,1.23,1.86a4.53,4.53,0,0,0,1.2,1.23,1.78,1.78,0,0,0,1.64.21,2.08,2.08,0,0,0,1-1.89,5.6,5.6,0,0,0-1.09-3.33,22.81,22.81,0,0,0-2.32-2.7c-.59-.64-1.16-1.31-1.71-2s-3-5.27-1.19-5.89a1.35,1.35,0,0,1,1.26.38,12.94,12.94,0,0,1,.89,1.07,3.69,3.69,0,0,0,2.88,1.2,1.38,1.38,0,0,0,.77-.22,1.44,1.44,0,0,0,.49-1.17,6.41,6.41,0,0,0-1.6-3.76c-.93-1.23-1.55-2.54-2.35-3.82-.9-1.46-1.9-2.73-2.11-4.5,1.61-1.54,3.21,3.41,5.33,2.73,1.49-.48.77-2.71-.12-4a28.2,28.2,0,0,1-4.11-9.83c-.39-1.74-.67-3.5-.91-5.27-.09-.71,0-4.52-1.63-3.45a2.29,2.29,0,0,0-.78,1.49c-.68,2.94-1.29,5.91-2,8.83-.61,2.33-.9,5.47-2.39,7.44-.81,1.07-1.81,1.88-1.72,3.36a.66.66,0,0,0,.08.34.76.76,0,0,0,.44.3c1.73.57,2.91-.68,4-1.82a1.83,1.83,0,0,1,.49-.39.55.55,0,0,1,.59.08c.38.38,0,1.53,0,2a9.38,9.38,0,0,1-1.82,4.1c-1.44,1.95-3.33,3.6-4.47,5.75a2.77,2.77,0,0,0-.4,1.42,1.88,1.88,0,0,0,1.89,1.54c1.18.07,1.85-.84,2.25-1.85a3.07,3.07,0,0,1,1.18-1.72c.16-.08.39-.12.49,0a.4.4,0,0,1,.06.22,8.47,8.47,0,0,1-.79,4.14,10.66,10.66,0,0,1-2.66,3.18,8.05,8.05,0,0,0-1.53,1.77,2.72,2.72,0,0,0-.39,1.64,1.62,1.62,0,0,0,.94,1.32,2.05,2.05,0,0,0,2.11-.67c.28-.29,1.83-2.77,2.39-1.79.2.35-.23,1.7-.31,2.09a21.74,21.74,0,0,1-5.7,10.8l-.06.05-8.52-3.94a24.19,24.19,0,0,0-2.3-2.67c-.59-.64-1.17-1.3-1.71-2s-3-5.27-1.2-5.88a1.31,1.31,0,0,1,1.27.38,13.12,13.12,0,0,1,.89,1.06,3.69,3.69,0,0,0,2.88,1.2,1.19,1.19,0,0,0,1.25-1.39,6.23,6.23,0,0,0-1.6-3.75c-.93-1.24-1.54-2.55-2.34-3.83-.9-1.45-1.9-2.72-2.11-4.49C19,380,20.58,385,22.7,384.27c1.49-.47.77-2.71-.12-4a28.13,28.13,0,0,1-4.11-9.83c-.4-1.74-.67-3.5-.91-5.27-.09-.71,0-4.52-1.63-3.45a2.27,2.27,0,0,0-.78,1.49c-.68,2.94-1.29,5.91-2.05,8.83-.62,2.33-.9,5.48-2.39,7.44-.81,1.07-1.81,1.88-1.73,3.36a.78.78,0,0,0,.09.34.76.76,0,0,0,.44.3c1.72.58,2.9-.68,4-1.82a1.62,1.62,0,0,1,.49-.38.53.53,0,0,1,.59.07c.38.38,0,1.53,0,2a9.32,9.32,0,0,1-1.82,4.1c-1.44,2-3.33,3.6-4.47,5.75a2.68,2.68,0,0,0-.4,1.42,1.86,1.86,0,0,0,1.89,1.54c1.18.08,1.84-.84,2.25-1.85a3,3,0,0,1,1.18-1.71c.16-.09.39-.13.49,0a.51.51,0,0,1,.06.22A8.68,8.68,0,0,1,13,397a6.32,6.32,0,0,1-.79,1.25L0,392.59V800H800V469.11ZM298.76,529.47c.46-.69,1.16.2,1.39.6.36.6.74,1.17,1.15,1.73l-2.4-1.11C298.77,530.22,298.64,529.66,298.76,529.47Zm-3.1-1.84a3.17,3.17,0,0,1-.17,1.49l-1.47-.68C294.59,527.74,295.31,527,295.66,527.63Zm-29.51-14.75a3,3,0,0,1,1.18-1.72c.16-.08.39-.12.49,0a.51.51,0,0,1,.06.21,8.54,8.54,0,0,1-.79,4.14c-.06.13-.14.24-.21.36l-2.57-1.19C265.24,514.58,265.79,513.77,266.15,512.88ZM59.73,418.27a1.44,1.44,0,0,1,.49-.39.55.55,0,0,1,.58.07c.38.38.05,1.54,0,2a5,5,0,0,1-.15.67l-2.29-1.05A12.85,12.85,0,0,0,59.73,418.27ZM35.79,408.21a.49.49,0,0,1,.32-.12c.28,0,.31.42.26.69s-.08.37-.12.56l-1.08-.5A3.08,3.08,0,0,1,35.79,408.21ZM783,467.82a1.36,1.36,0,0,1,1.27.38,8.41,8.41,0,0,1,.77.91h-2.7C782.33,468.49,782.5,468,783,467.82Zm-3.93.22c.16-.08.4-.12.5,0a.38.38,0,0,1,0,.21c0,.28,0,.56,0,.83h-1.45A2.24,2.24,0,0,1,779.08,468ZM577.77,548.28l-.77.77h-.29a8.77,8.77,0,0,1-.48-2A14.7,14.7,0,0,0,577.77,548.28Zm-9.92-.54c.84-1.38,2.44-3,3.74-2a5,5,0,0,1-2,3.36H566.7A5.24,5.24,0,0,0,567.85,547.74Zm-72.83-.2a1.3,1.3,0,0,1,1.26.38,11.34,11.34,0,0,1,.89,1.06,4,4,0,0,0,.32.28l-2.83,1C494.25,549,494.14,547.83,495,547.54Zm-20.31,7.6c.86.07,1.43.8,2,1.55l-1.84.66A4.58,4.58,0,0,1,474.71,555.14Z" transform="translate(0.5)"/><path id="_Compound_Path_2" data-name="&lt;Compound Path&gt;" class="cls-8" d="M726.52,595a3.15,3.15,0,0,0,2.47-1.42c1.35-2.29-1.13-4.84-3-6.74a19.24,19.24,0,0,1-4.88-8.62,18.93,18.93,0,0,0,3.71,3.61c1,.73,2.08.63,2.48-.7a4.33,4.33,0,0,0,.07-1.72,11.87,11.87,0,0,0-.85-3.63c-.87-2-2.55-3.42-3.93-5.07s-2.55-3.76-2.07-5.86a1.16,1.16,0,0,1,.52-.84c.48-.25,1.06.16,1.34.63.61,1,.62,1.77,1.93,1.35a2.44,2.44,0,0,0,1.51-2.32,4.73,4.73,0,0,0-.82-2.14c-2-3.48-6-6.64-5.36-11.12a1.33,1.33,0,0,1,.37-.86c.61-.51,1.5.16,1.94.82s1.12,1.47,1.86,1.18.72-1.28.54-2c-.86-3.37-3-6.26-4.41-9.43a5.17,5.17,0,0,1-.59-2.6,1,1,0,0,1,.16-.47.77.77,0,0,1,1.09,0c.7.62.77,1.88,2,2s1.95-1.15,1.85-2.26a7.11,7.11,0,0,0-1.4-3c-4.35-6.92-4.3-16.06-7-23.68a1.53,1.53,0,0,0-.47-.78,1.09,1.09,0,0,0-1.52.58,3.37,3.37,0,0,0-.09,1.84c.62,5.22-.36,10.5-1.33,15.67a38.43,38.43,0,0,1-1.42,5.83c-.88,2.44-2.25,4.67-3.22,7.07-.49,1.21-.62,3,.62,3.42,1.55.51,2.66-2,4.28-1.93,2.68.09.57,3.7.06,4.72-1.18,2.39-3.13,4.63-3.19,7.41a1.91,1.91,0,0,0,.24,1.11c1.42,2.22,3.4-1.34,4-2.21.29-.41.88-.71,1.3-.43s.4.84.35,1.32c-.57,5.54-6.31,8.93-7.81,14.21a2.84,2.84,0,0,0,0,2c.7,1.41,2.92,1,4.05-.05.8-.77,1.3-1.81,2.09-2.58s2.32-1.22,2,.61a3.79,3.79,0,0,1-1,1.63c-1.23,1.36-2.46,2.73-3.8,4a14.6,14.6,0,0,0-2,2,11.55,11.55,0,0,0-1.42,3.16c-.33,1-.59,2.24.2,2.91a1.73,1.73,0,0,0,1.81.16,4.17,4.17,0,0,0,1.46-1.22A15.66,15.66,0,0,0,713,578a.71.71,0,0,1,.94.35,1.75,1.75,0,0,1,.08,1.11c-.48,3.08-2,4.49-4.14,6.44-2.35,2.09-5.1,4.32-5.4,7.46a3.09,3.09,0,0,0,.25,1.65H682.51l-16.19,9.26a25.77,25.77,0,0,0-1.91-2.09,19.35,19.35,0,0,1-4.88-8.62,19.52,19.52,0,0,0,3.71,3.61c1,.73,2.08.63,2.48-.71a4.32,4.32,0,0,0,.07-1.72,11.87,11.87,0,0,0-.85-3.63c-.87-2-2.55-3.42-3.93-5.06s-2.55-3.77-2.07-5.86a1.13,1.13,0,0,1,.52-.84c.48-.25,1.06.15,1.34.62.61,1,.62,1.77,1.93,1.36a2.47,2.47,0,0,0,1.51-2.33,4.78,4.78,0,0,0-.82-2.14c-2-3.47-6-6.64-5.36-11.12a1.35,1.35,0,0,1,.37-.86c.61-.51,1.5.16,1.94.82s1.12,1.47,1.86,1.18.72-1.28.54-2c-.86-3.37-3-6.25-4.41-9.43a5.16,5.16,0,0,1-.59-2.59,1,1,0,0,1,.16-.48.78.78,0,0,1,1.09,0c.7.62.77,1.88,2,2s1.95-1.14,1.85-2.25a7.15,7.15,0,0,0-1.4-3c-4.35-6.92-4.3-16.06-7-23.68a1.53,1.53,0,0,0-.47-.78,1.09,1.09,0,0,0-1.52.58,3.37,3.37,0,0,0-.09,1.84c.62,5.23-.36,10.5-1.33,15.67a38.43,38.43,0,0,1-1.42,5.83c-.88,2.44-2.25,4.67-3.22,7.07-.49,1.21-.62,3,.62,3.42,1.55.51,2.66-2,4.28-1.93,2.68.09.57,3.71.06,4.73-1.18,2.38-3.13,4.62-3.19,7.41a1.9,1.9,0,0,0,.24,1.1c1.42,2.23,3.4-1.34,4-2.21a1,1,0,0,1,1.3-.43c.4.26.4.84.35,1.32-.57,5.55-6.31,8.93-7.81,14.21a2.84,2.84,0,0,0,0,2c.7,1.41,2.92,1,4.05,0,.8-.77,1.3-1.81,2.09-2.57s2.32-1.23,1.95.6a3.73,3.73,0,0,1-1,1.63c-1.23,1.37-2.46,2.74-3.8,4a14,14,0,0,0-2,2,11.55,11.55,0,0,0-1.42,3.16c-.33,1-.58,2.24.2,2.91a1.76,1.76,0,0,0,1.81.17,4.4,4.4,0,0,0,1.46-1.22,16.53,16.53,0,0,0,1.79-2.61.7.7,0,0,1,.94.34,1.75,1.75,0,0,1,.08,1.11c-.47,3.08-2,4.49-4.14,6.44-2.35,2.1-5.1,4.32-5.4,7.46a2.74,2.74,0,0,0,.5,2c1.4,1.6,3.9-.29,5-2.1s3.21-4,4.92-2.7c-.12,2.54-2.51,4.56-4.51,5.81s-3.48,2.58-4.11,4.9l-11.28,6.46H577.14c-.25-.3-.51-.58-.76-.88-.59-.75-3-5.27-1.19-5.89a1.34,1.34,0,0,1,1.27.38c.34.31.58.72.89,1.06a3.68,3.68,0,0,0,2.87,1.21,1.6,1.6,0,0,0,.78-.22,1.45,1.45,0,0,0,.48-1.18,6.34,6.34,0,0,0-1.6-3.75c-.93-1.24-1.55-2.54-2.34-3.82-.91-1.46-1.91-2.73-2.11-4.5,1.6-1.54,3.21,3.41,5.33,2.73,1.48-.48.77-2.71-.12-4a28.15,28.15,0,0,1-4.12-9.83c-.39-1.74-.67-3.5-.9-5.26-.09-.71,0-4.52-1.64-3.46a2.32,2.32,0,0,0-.78,1.5c-.67,2.94-1.28,5.9-2.05,8.82-.61,2.34-.89,5.48-2.38,7.44-.82,1.07-1.82,1.88-1.73,3.36a.77.77,0,0,0,.08.34.8.8,0,0,0,.45.31c1.72.57,2.9-.69,4-1.83a1.62,1.62,0,0,1,.49-.38.55.55,0,0,1,.59.07c.38.38,0,1.53,0,2a9.34,9.34,0,0,1-1.83,4.1c-1.44,2-3.33,3.6-4.46,5.76a2.59,2.59,0,0,0-.4,1.42,1.85,1.85,0,0,0,1.88,1.53c1.19.08,1.85-.83,2.26-1.84a3.07,3.07,0,0,1,1.17-1.72c.16-.09.4-.12.5,0a.38.38,0,0,1,0,.21,8.43,8.43,0,0,1-.79,4.14,7.28,7.28,0,0,1-1.6,2.17H550.55a11.29,11.29,0,0,1-.87-3.18,10.62,10.62,0,0,0,3.85,2.45,3.62,3.62,0,0,0,4.07-1.29c1.36-2.29-1.12-4.84-3-6.74a19.29,19.29,0,0,1-4.88-8.62,19.52,19.52,0,0,0,3.71,3.61c1,.73,2.08.63,2.48-.7a4.33,4.33,0,0,0,.07-1.72,11.51,11.51,0,0,0-.84-3.63c-.88-2-2.56-3.43-3.94-5.07s-2.55-3.76-2.07-5.86a1.19,1.19,0,0,1,.52-.84c.48-.25,1.06.15,1.34.62.61,1,.62,1.77,1.93,1.36a2.46,2.46,0,0,0,1.51-2.32,4.77,4.77,0,0,0-.82-2.15c-2-3.47-6-6.64-5.36-11.11a1.31,1.31,0,0,1,.37-.86c.61-.52,1.5.16,1.94.82s1.12,1.46,1.87,1.18.72-1.28.53-2c-.86-3.37-3-6.26-4.41-9.44A5.16,5.16,0,0,1,548,565a1,1,0,0,1,.16-.48.78.78,0,0,1,1.09,0c.71.63.77,1.88,2,2s2-1.14,1.85-2.25a7.06,7.06,0,0,0-1.4-3c-4.35-6.93-4.3-16.07-7-23.69a1.5,1.5,0,0,0-.47-.77,1.1,1.1,0,0,0-1.52.57,3.38,3.38,0,0,0-.09,1.84c.62,5.23-.36,10.5-1.33,15.68a37.83,37.83,0,0,1-1.42,5.83c-.88,2.43-2.25,4.66-3.22,7.06-.49,1.22-.62,3,.62,3.43,1.55.5,2.66-2,4.28-1.93,2.68.09.57,3.7.06,4.72-1.18,2.38-3.13,4.62-3.19,7.41a1.93,1.93,0,0,0,.24,1.11c1.43,2.22,3.4-1.35,4-2.21.29-.41.88-.71,1.3-.43s.4.84.35,1.32c-.57,5.54-6.31,8.92-7.81,14.21a2.87,2.87,0,0,0,0,2c.7,1.42,2.92,1.05,4.06,0,.8-.77,1.29-1.8,2.09-2.57s2.31-1.22,1.94.61a3.7,3.7,0,0,1-1,1.62c-1.23,1.37-2.46,2.74-3.8,4a14.53,14.53,0,0,0-2,2,11.55,11.55,0,0,0-1.42,3.16c-.32,1-.58,2.24.2,2.92a1.76,1.76,0,0,0,1.81.16,4.19,4.19,0,0,0,1.46-1.22,16.8,16.8,0,0,0,1.8-2.61.71.71,0,0,1,.94.35,1.81,1.81,0,0,1,.07,1.11c-.47,3.07-2,4.49-4.14,6.43-2.35,2.1-5.1,4.33-5.4,7.46a2.74,2.74,0,0,0,.51,2,2.18,2.18,0,0,0,.22.21H526c-.86-1.08-1.82-2.09-2.64-3.14a9.2,9.2,0,0,1-1.91-3.51c-.09-.34-.5-1.54-.31-1.84.45-.69,1.15.21,1.39.61q.57,1,1.23,1.86a4.8,4.8,0,0,0,1.19,1.23,1.84,1.84,0,0,0,1.65.21,2.08,2.08,0,0,0,1-1.9,5.59,5.59,0,0,0-1.09-3.32,22,22,0,0,0-2.32-2.7c-.59-.64-1.17-1.31-1.71-2s-3-5.27-1.2-5.89a1.34,1.34,0,0,1,1.27.38c.34.31.58.72.89,1.06a3.66,3.66,0,0,0,2.88,1.21,1.38,1.38,0,0,0,.77-.22,1.42,1.42,0,0,0,.48-1.18A6.33,6.33,0,0,0,526,600.2c-.93-1.23-1.55-2.54-2.35-3.82-.9-1.46-1.9-2.73-2.11-4.5,1.61-1.54,3.21,3.41,5.33,2.73,1.49-.48.77-2.71-.12-4a28,28,0,0,1-4.11-9.83c-.4-1.73-.67-3.5-.91-5.26-.09-.71,0-4.52-1.63-3.46a2.34,2.34,0,0,0-.78,1.5c-.68,2.94-1.29,5.91-2.05,8.82-.61,2.34-.9,5.48-2.39,7.44-.81,1.07-1.81,1.88-1.72,3.37a.71.71,0,0,0,.08.34.76.76,0,0,0,.44.3c1.73.57,2.9-.69,4-1.82a1.66,1.66,0,0,1,.49-.39.57.57,0,0,1,.59.07c.38.38,0,1.54,0,2a9.29,9.29,0,0,1-1.82,4.09c-1.44,2-3.33,3.61-4.47,5.76a2.68,2.68,0,0,0-.4,1.42,1.88,1.88,0,0,0,1.89,1.54c1.18.07,1.85-.84,2.25-1.85a3,3,0,0,1,1.18-1.72c.16-.08.39-.12.49,0a.51.51,0,0,1,.06.21,8.54,8.54,0,0,1-.79,4.14,10.57,10.57,0,0,1-2.66,3.19,8.05,8.05,0,0,0-1.53,1.77,2.72,2.72,0,0,0-.39,1.64,1.62,1.62,0,0,0,.94,1.32,2.06,2.06,0,0,0,2.11-.68c.27-.28,1.82-2.76,2.39-1.78.2.35-.23,1.69-.32,2.09a21.24,21.24,0,0,1-1.17,3.89c-.06.13-.13.25-.18.38l-10.65-10.65h-74.5a3.44,3.44,0,0,0,.3-2.3c-.65-2.86-3-4.91-4.77-7.12a9.33,9.33,0,0,1-1.91-3.51c-.08-.34-.5-1.54-.31-1.84.45-.69,1.15.2,1.39.61q.57,1,1.23,1.86a4.68,4.68,0,0,0,1.2,1.23,1.84,1.84,0,0,0,1.64.21,2.09,2.09,0,0,0,1.05-1.9,5.59,5.59,0,0,0-1.09-3.32,22,22,0,0,0-2.32-2.7c-.59-.65-1.16-1.31-1.71-2s-3-5.27-1.19-5.89a1.32,1.32,0,0,1,1.26.38,12.92,12.92,0,0,1,.9,1.06,3.68,3.68,0,0,0,2.87,1.21,1.2,1.2,0,0,0,1.26-1.4,6.41,6.41,0,0,0-1.6-3.75c-.93-1.23-1.55-2.54-2.35-3.82-.9-1.46-1.9-2.73-2.11-4.5,1.61-1.54,3.21,3.41,5.33,2.73,1.49-.48.77-2.71-.11-4a28.07,28.07,0,0,1-4.12-9.83c-.39-1.73-.67-3.5-.9-5.26-.1-.71,0-4.52-1.64-3.46a2.34,2.34,0,0,0-.78,1.5c-.67,2.94-1.29,5.91-2.05,8.82-.61,2.34-.9,5.48-2.39,7.44-.81,1.07-1.81,1.88-1.72,3.36a.85.85,0,0,0,.08.35.76.76,0,0,0,.45.3c1.72.57,2.9-.69,4-1.82a1.44,1.44,0,0,1,.49-.39.55.55,0,0,1,.58.07c.38.38.05,1.54,0,2a9.16,9.16,0,0,1-1.82,4.1c-1.44,2-3.33,3.61-4.47,5.76a2.77,2.77,0,0,0-.4,1.42,1.88,1.88,0,0,0,1.89,1.54c1.18.07,1.85-.84,2.25-1.85a3.09,3.09,0,0,1,1.18-1.72c.16-.08.39-.12.49,0a.39.39,0,0,1,.06.21,8.43,8.43,0,0,1-.79,4.14,10.43,10.43,0,0,1-2.66,3.19,8.05,8.05,0,0,0-1.53,1.77,2.72,2.72,0,0,0-.39,1.64,1.63,1.63,0,0,0,.95,1.32,2,2,0,0,0,2.1-.68c.28-.28,1.83-2.76,2.39-1.78.21.35-.23,1.69-.31,2.09a22.08,22.08,0,0,1-1.18,3.89,21.44,21.44,0,0,1-4.52,6.9c-.83.85-1.8,1.8-1.74,3a1.78,1.78,0,0,0,.22.74H391.24l-25-13.47H261.74l-2.24.43c-.94-2.27-2.89-4-4.38-5.94a9.2,9.2,0,0,1-1.91-3.51c-.09-.34-.5-1.54-.31-1.84.45-.69,1.15.2,1.39.61q.57,1,1.23,1.86a4.8,4.8,0,0,0,1.19,1.23,1.87,1.87,0,0,0,1.65.21,2.1,2.1,0,0,0,1.05-1.9,5.66,5.66,0,0,0-1.09-3.32,23.92,23.92,0,0,0-2.32-2.7c-.59-.65-1.17-1.31-1.71-2s-3-5.27-1.2-5.89a1.34,1.34,0,0,1,1.27.38c.34.31.58.72.89,1.06a3.7,3.7,0,0,0,2.88,1.21,1.47,1.47,0,0,0,.77-.22,1.42,1.42,0,0,0,.48-1.18,6.28,6.28,0,0,0-1.6-3.75c-.93-1.24-1.54-2.54-2.34-3.82-.9-1.46-1.9-2.73-2.11-4.5,1.6-1.54,3.21,3.41,5.33,2.73,1.49-.48.77-2.71-.12-4a28,28,0,0,1-4.11-9.83c-.4-1.74-.68-3.5-.91-5.26-.09-.71,0-4.52-1.63-3.46a2.29,2.29,0,0,0-.78,1.5c-.68,2.94-1.29,5.9-2.05,8.82-.62,2.34-.9,5.48-2.39,7.44-.81,1.07-1.81,1.88-1.73,3.36a.86.86,0,0,0,.09.35.81.81,0,0,0,.44.3c1.72.57,2.9-.69,4-1.82a1.66,1.66,0,0,1,.49-.39.55.55,0,0,1,.59.07c.38.38,0,1.53,0,2a9.27,9.27,0,0,1-1.82,4.1c-1.44,2-3.33,3.6-4.47,5.76a2.68,2.68,0,0,0-.4,1.42,1.86,1.86,0,0,0,1.89,1.53c1.18.08,1.84-.83,2.25-1.84a3,3,0,0,1,1.18-1.72c.16-.08.39-.12.49,0a.51.51,0,0,1,.06.21,8.66,8.66,0,0,1-.79,4.14,10.57,10.57,0,0,1-2.66,3.19,8.05,8.05,0,0,0-1.53,1.77,2.71,2.71,0,0,0-.39,1.63,1.61,1.61,0,0,0,.94,1.33,2.06,2.06,0,0,0,2.11-.68c.27-.28,1.82-2.76,2.39-1.78.2.35-.24,1.69-.32,2.09a21.67,21.67,0,0,1-5.7,10.79c-.83.85-1.8,1.8-1.73,3a1.78,1.78,0,0,0,.11.54l-51.48,9.76H0V754H800V595Zm-477.29,2.18c0,.07,0,.13,0,.2l-1.45.27a3.69,3.69,0,0,1,.9-1,.47.47,0,0,1,.33-.12C249.24,596.53,249.28,596.91,249.23,597.18Zm171.6,9.56a17.32,17.32,0,0,1-.4,1.73h-1.85a7.89,7.89,0,0,1,1.66-2.3.45.45,0,0,1,.33-.12C420.84,606.09,420.87,606.47,420.83,606.74Zm5,1.73a4.61,4.61,0,0,1-.21-2.42c1.2.11,1.84,1.47,2.64,2.42Zm114.41,14.61h-3.94a6.75,6.75,0,0,0,2.37-2.32c1.11-1.81,3.21-4,4.92-2.7C543.46,620.12,541.87,621.83,540.21,623.08Zm119.33-14.93c0-.14,0-.27-.06-.4l.3.26ZM712.34,595h-3.81a7.07,7.07,0,0,0,1.5-1.71c1.11-1.81,3.21-4,4.92-2.71A6.53,6.53,0,0,1,712.34,595Zm9.36,0a10.85,10.85,0,0,1-.63-2.57,10.64,10.64,0,0,0,3.84,2.44,3.93,3.93,0,0,0,.75.13Z" transform="translate(0.5)"/><path id="_Compound_Path_3" data-name="&lt;Compound Path&gt;" class="cls-9" d="M780.32,622.08a6.08,6.08,0,0,0-1.05-2.66,23.64,23.64,0,0,0-2.32-2.7c-.59-.64-1.16-1.31-1.71-2s-3-5.27-1.19-5.88a1.32,1.32,0,0,1,1.26.37,12.94,12.94,0,0,1,.89,1.07,3.69,3.69,0,0,0,2.88,1.2,1.38,1.38,0,0,0,.77-.22,1.43,1.43,0,0,0,.49-1.17,6.35,6.35,0,0,0-1.6-3.75c-.93-1.24-1.55-2.55-2.35-3.83-.9-1.46-1.9-2.73-2.11-4.5,1.61-1.54,3.21,3.41,5.33,2.73,1.49-.48.77-2.71-.12-4a28.13,28.13,0,0,1-4.11-9.83c-.39-1.74-.67-3.5-.91-5.27-.09-.71,0-4.52-1.63-3.45a2.29,2.29,0,0,0-.78,1.49c-.68,2.94-1.29,5.91-2,8.83-.61,2.33-.9,5.48-2.39,7.44-.81,1.07-1.81,1.88-1.72,3.36a.66.66,0,0,0,.08.34.76.76,0,0,0,.44.3c1.73.57,2.91-.68,4-1.82a1.83,1.83,0,0,1,.49-.39.55.55,0,0,1,.59.08c.38.38,0,1.53,0,2a9.38,9.38,0,0,1-1.82,4.1c-1.44,2-3.33,3.6-4.47,5.75a2.77,2.77,0,0,0-.4,1.42,1.88,1.88,0,0,0,1.89,1.54c1.18.07,1.85-.84,2.25-1.85a3,3,0,0,1,1.18-1.71c.16-.09.39-.13.49,0a.4.4,0,0,1,.06.22,8.47,8.47,0,0,1-.79,4.14,10.66,10.66,0,0,1-2.66,3.18,7.88,7.88,0,0,0-1.53,1.78,2.68,2.68,0,0,0-.39,1.63,1.64,1.64,0,0,0,.94,1.33,2.08,2.08,0,0,0,2.11-.68c.28-.28,1.83-2.77,2.39-1.79.2.35-.23,1.7-.31,2.09s-.19.73-.28,1.09H760a1.71,1.71,0,0,0,.88-1,2.72,2.72,0,0,0,.06-1.3,14.07,14.07,0,0,0-3.86-7.91c-1.11-1.13-2.4-2.07-3.48-3.22-.73-.78-3.69-5.84-.65-5.71a1.64,1.64,0,0,1,1,.51c.73.67,1.19,1.59,1.88,2.31a2.46,2.46,0,0,0,2.66.83c1.27-.59,1.19-2.4.76-3.73a22.94,22.94,0,0,0-4.29-7.57c-1.69-2-4.63-4.17-3.68-7.19a2,2,0,0,1,.63-1,1.8,1.8,0,0,1,1.92,0,5.32,5.32,0,0,1,1.46,1.38c.63.77,3.3,5.13,4.52,2.73a2.11,2.11,0,0,0,.14-1.06,18.91,18.91,0,0,0-3.28-9.65c-1.78-2.59-4.22-4.77-5.4-7.68-.7-1.72-.81-4.83,1.59-4.87,2,0,3.5,2.36,5,3.27,1.24.74,3.26.6,3.67-.78a3,3,0,0,0-.16-1.69,20.92,20.92,0,0,0-5-8.56c-2.23-2.21-4.09-3.5-5.37-6.64-.49-1.19-.73-2.8.34-3.51a2.33,2.33,0,0,1,2.69.5c.73.65,1.24,1.53,2,2.18a2.35,2.35,0,0,0,2.69.51,2,2,0,0,0,.76-2.07,6.07,6.07,0,0,0-1-2.12c-1.35-2.17-2.82-4.26-4.14-6.44-1-1.66-2.82-3.83-3.11-5.75A1.69,1.69,0,0,1,752,535a1.43,1.43,0,0,1,1.38.26,10.41,10.41,0,0,1,1,1.05,4.79,4.79,0,0,0,2.68,1.33,2.08,2.08,0,0,0,1.86-.47,2,2,0,0,0,.39-1.56c-.19-2.29-2-4-3.7-5.61-1-1-6.3-7.46-3.87-8.78,1.89-1,4.38,4.94,6.38,2.5a2.59,2.59,0,0,0,.2-2.48,5.38,5.38,0,0,0-1.62-2.31,23,23,0,0,0-3-1.77c-1.31-.78-4.55-5.17-2.15-6.27,1.82-.84,3.07,1.83,4.37,2.54a1.18,1.18,0,0,0,1.41-.06.18.18,0,0,0,0-.07,1.18,1.18,0,0,0,.15-.59c.19-2.83-1.27-5.48-2.82-7.85s-3.28-4.77-3.73-7.57a2.54,2.54,0,0,1,.08-1.42,1.07,1.07,0,0,1,1.16-.66c.76.21.3,1.6,1,2.14a2.22,2.22,0,0,0,2.38,0,3.09,3.09,0,0,0,.94-3.4,11.49,11.49,0,0,0-1.87-3.25A28.54,28.54,0,0,1,750,479.82c-.76-3.84-.16-7.41-.22-11.23,0-1,.18-6.11-1.54-6s-1.71,4.53-1.78,5.59c-.54,8.54-1.27,17.74-6.74,24.32a6,6,0,0,0-1.69,2.84,2.61,2.61,0,0,0,4.42,2.2c.51-.52,1.14-1.84,2-1A2.14,2.14,0,0,1,745,498c.21,3.51-1.43,6.86-3.3,9.84s-4.05,5.83-5.13,9.17a5.9,5.9,0,0,0-.3,3.29,2.75,2.75,0,0,0,2.28,2.15c1.84.13,2.13-1.61,3.52-2.32a1.81,1.81,0,0,1,2.13.22,2,2,0,0,1,.43,1.47c-.11,2.63-2.49,4.48-4.36,6.34a21.43,21.43,0,0,0-5,7.69,6.84,6.84,0,0,0-.55,2.62,2.93,2.93,0,0,0,1.16,2.33,3.19,3.19,0,0,0,3.8-.65,13.93,13.93,0,0,0,2.28-3.46,2.92,2.92,0,0,1,1.69-1.57c3.12-.67.89,4.57.24,5.42-3.69,4.83-8.81,9.57-8.49,15.64a2.74,2.74,0,0,0,1.24,2.47c1.29.59,2.61-.71,3.44-1.86.52-.73,4-7.95,4.51-4.18.45,3.58-2.27,5.22-4.24,7.6a25.62,25.62,0,0,0-4.9,9.25c-.42,1.45-.46,3.43.93,4,2.15.86,2.89-2,4.15-3a2.17,2.17,0,0,1,3.58,1.27,4.63,4.63,0,0,1-.73,3.13c-2.28,4-6.93,6.37-8.51,10.67-.43,1.18-.5,2.72.52,3.45,1.67,1.22,3.3-.88,4.4-1.86a2,2,0,0,1,1.28-.66,1.28,1.28,0,0,1,1.09,1,2.91,2.91,0,0,1-.14,1.57c-1.37,4.44-5.27,6.35-7.91,9.83a11.88,11.88,0,0,0-2.26,5.27,5,5,0,0,0,.17,2.78,2.4,2.4,0,0,0,2.15,1.56c1.19,0,2.06-1.17,2.5-2.28a9.68,9.68,0,0,1,1.53-3.22c1-1.09,3.25-1,3.39.79.11,1.34-2,3.15-2.72,4.22q-4,6.3-7.73,12.8a7.68,7.68,0,0,0-1.14,2.84,2.68,2.68,0,0,0,1.15,2.67,2.8,2.8,0,0,0,1.89.2c5.21-1,5.1-8,8.41-11a15.38,15.38,0,0,1-3.59,9.7c-1,1.15-2.17,2.29-3.23,3.48l-13.34,5.22-.28-.35a9.2,9.2,0,0,1-1.91-3.51c-.09-.34-.5-1.54-.31-1.84.45-.69,1.15.2,1.39.61q.57,1,1.23,1.86a4.8,4.8,0,0,0,1.19,1.23,1.83,1.83,0,0,0,1.65.2,2.08,2.08,0,0,0,1.05-1.89,5.71,5.71,0,0,0-1.09-3.33,24.73,24.73,0,0,0-2.32-2.69c-.59-.65-1.17-1.31-1.71-2s-3-5.27-1.2-5.89a1.34,1.34,0,0,1,1.27.38c.34.31.58.72.89,1.06a3.7,3.7,0,0,0,2.88,1.21,1.57,1.57,0,0,0,.77-.22,1.42,1.42,0,0,0,.48-1.18,6.28,6.28,0,0,0-1.6-3.75c-.93-1.24-1.54-2.54-2.34-3.82-.9-1.46-1.9-2.73-2.11-4.5,1.6-1.54,3.21,3.41,5.33,2.73,1.49-.48.77-2.71-.12-4a28.13,28.13,0,0,1-4.11-9.83c-.4-1.74-.68-3.5-.91-5.26-.09-.71,0-4.52-1.63-3.46a2.27,2.27,0,0,0-.78,1.5c-.68,2.94-1.29,5.9-2,8.82-.62,2.34-.9,5.48-2.39,7.44-.81,1.07-1.81,1.88-1.73,3.36a.65.65,0,0,0,.53.65c1.72.57,2.9-.69,4-1.83a1.62,1.62,0,0,1,.49-.38.55.55,0,0,1,.59.07c.38.38,0,1.53,0,2a9.32,9.32,0,0,1-1.82,4.1c-1.44,2-3.33,3.6-4.47,5.76a2.68,2.68,0,0,0-.4,1.42,1.86,1.86,0,0,0,1.89,1.53c1.18.08,1.84-.83,2.25-1.84a3,3,0,0,1,1.18-1.72c.16-.09.39-.12.49,0a.51.51,0,0,1,.06.21,8.66,8.66,0,0,1-.79,4.14,10.57,10.57,0,0,1-2.66,3.19,8.05,8.05,0,0,0-1.53,1.77,2.69,2.69,0,0,0-.39,1.63,1.61,1.61,0,0,0,.94,1.33,2.06,2.06,0,0,0,2.11-.68c.27-.28,1.82-2.76,2.39-1.78.2.35-.24,1.69-.32,2.09a21.27,21.27,0,0,1-1.18,3.89,21.54,21.54,0,0,1-3.59,5.86l-42.06,18.37H623.75a3,3,0,0,0-.2-.34,23.64,23.64,0,0,0-2.32-2.7c-.59-.64-1.16-1.31-1.71-2s-3-5.27-1.19-5.88a1.29,1.29,0,0,1,1.26.38,11.44,11.44,0,0,1,.9,1.06,3.67,3.67,0,0,0,2.87,1.2,1.38,1.38,0,0,0,.77-.22,1.43,1.43,0,0,0,.49-1.17,6.35,6.35,0,0,0-1.6-3.75c-.93-1.24-1.55-2.55-2.35-3.83-.9-1.46-1.9-2.73-2.11-4.5,1.61-1.54,3.21,3.41,5.33,2.73,1.49-.48.77-2.71-.11-4a28.15,28.15,0,0,1-4.12-9.83c-.39-1.74-.67-3.5-.9-5.27-.1-.71,0-4.52-1.64-3.45a2.29,2.29,0,0,0-.78,1.49c-.67,2.94-1.29,5.91-2.05,8.83-.61,2.33-.9,5.48-2.39,7.44-.81,1.07-1.81,1.88-1.72,3.36a.77.77,0,0,0,.08.34.76.76,0,0,0,.45.3c1.72.57,2.9-.68,4-1.82a1.57,1.57,0,0,1,.49-.39.53.53,0,0,1,.58.08c.38.38.05,1.53,0,2a9.26,9.26,0,0,1-1.82,4.1c-1.44,2-3.33,3.6-4.47,5.75a2.77,2.77,0,0,0-.4,1.42,1.88,1.88,0,0,0,1.89,1.54c1.18.07,1.85-.84,2.25-1.85a3.06,3.06,0,0,1,1.18-1.71c.16-.09.39-.13.49,0a.4.4,0,0,1,.06.22,8.47,8.47,0,0,1-.79,4.14,10.37,10.37,0,0,1-2.66,3.18,7.88,7.88,0,0,0-1.53,1.78,2.94,2.94,0,0,0-.4,1.35H595.15l-61.57,22.5-46.43-7.6-33.45,7.6h-24L182.43,718.2v82.86H800v-179ZM615,655.72a1.54,1.54,0,0,1,0,.86h-1.66C613.92,655.86,614.67,655.11,615,655.72Zm158.83-35c.45-.69,1.15.2,1.39.6s.33.49.49.74H774C773.88,621.59,773.72,620.94,773.85,620.74Zm-19.57-1.53a16.44,16.44,0,0,1,2,1.8,5.49,5.49,0,0,0,1.59,1.07h-3.66a8.84,8.84,0,0,1-.77-1.23C753,620,752.53,618,754.28,619.21Z" transform="translate(0.5)"/><path id="_Compound_Path_4" data-name="&lt;Compound Path&gt;" class="cls-10" d="M775.62,686.09a5.23,5.23,0,0,1-.67-3.47c1.87.16,2.37,3.39,4.25,3.35,1.38,0,1.94-1.88,1.64-3.23-.65-2.86-3-4.91-4.77-7.12a9.33,9.33,0,0,1-1.91-3.51c-.09-.34-.5-1.54-.31-1.84.45-.69,1.15.2,1.39.61q.57,1,1.23,1.86a4.68,4.68,0,0,0,1.2,1.23,1.84,1.84,0,0,0,1.64.21,2.09,2.09,0,0,0,1.05-1.9,5.59,5.59,0,0,0-1.09-3.32,22,22,0,0,0-2.32-2.7c-.59-.65-1.16-1.31-1.71-2s-3-5.27-1.19-5.89a1.32,1.32,0,0,1,1.26.38,12.8,12.8,0,0,1,.89,1.06,3.7,3.7,0,0,0,2.88,1.21,1.2,1.2,0,0,0,1.26-1.4,6.41,6.41,0,0,0-1.6-3.75c-.93-1.23-1.55-2.54-2.35-3.82-.9-1.46-1.9-2.73-2.11-4.5,1.61-1.54,3.21,3.41,5.33,2.73,1.49-.48.77-2.71-.12-4a28,28,0,0,1-4.11-9.83c-.39-1.73-.67-3.5-.91-5.26-.09-.71,0-4.52-1.63-3.46a2.34,2.34,0,0,0-.78,1.5c-.68,2.94-1.29,5.91-2,8.82-.61,2.34-.9,5.48-2.39,7.44-.81,1.07-1.81,1.88-1.72,3.36a.72.72,0,0,0,.08.35.76.76,0,0,0,.44.3c1.73.57,2.91-.69,4-1.82a1.66,1.66,0,0,1,.49-.39.57.57,0,0,1,.59.07c.38.38,0,1.54,0,2a9.27,9.27,0,0,1-1.82,4.1c-1.44,2-3.33,3.61-4.47,5.76a2.77,2.77,0,0,0-.4,1.42,1.88,1.88,0,0,0,1.89,1.54c1.18.07,1.85-.84,2.25-1.85a3,3,0,0,1,1.18-1.72c.16-.08.39-.12.49,0a.39.39,0,0,1,.06.21,8.43,8.43,0,0,1-.79,4.14,10.57,10.57,0,0,1-2.66,3.19,8.05,8.05,0,0,0-1.53,1.77,2.72,2.72,0,0,0-.39,1.64,1.62,1.62,0,0,0,.94,1.32,2.06,2.06,0,0,0,2.11-.68c.28-.28,1.83-2.76,2.39-1.78.2.35-.23,1.69-.31,2.09a22.08,22.08,0,0,1-1.18,3.89,21.61,21.61,0,0,1-4.52,6.9c-.83.85-1.81,1.8-1.74,3a1,1,0,0,0,0,.25L485,650.64a19.4,19.4,0,0,1-4.62-8.35,18.93,18.93,0,0,0,3.71,3.61c1,.73,2.08.63,2.48-.7a4.32,4.32,0,0,0,.07-1.72,12.15,12.15,0,0,0-.84-3.63c-.88-2-2.56-3.42-3.94-5.07s-2.55-3.76-2.07-5.85a1.16,1.16,0,0,1,.52-.85c.48-.24,1.06.16,1.34.63.61,1,.62,1.77,1.93,1.35a2.44,2.44,0,0,0,1.51-2.32,4.78,4.78,0,0,0-.82-2.14c-2-3.47-6-6.64-5.36-11.12a1.35,1.35,0,0,1,.37-.86c.61-.51,1.5.16,1.94.82s1.12,1.47,1.86,1.18.72-1.28.54-2c-.86-3.37-3-6.26-4.41-9.43a5.17,5.17,0,0,1-.59-2.6,1,1,0,0,1,.16-.47.78.78,0,0,1,1.09,0c.7.62.77,1.88,2,2s1.95-1.14,1.85-2.25a7.09,7.09,0,0,0-1.4-3c-4.35-6.92-4.3-16.06-7-23.68a1.53,1.53,0,0,0-.47-.78,1.09,1.09,0,0,0-1.52.58,3.37,3.37,0,0,0-.09,1.84c.62,5.23-.36,10.5-1.33,15.67a37.28,37.28,0,0,1-1.42,5.83c-.88,2.44-2.25,4.67-3.22,7.07-.49,1.21-.62,3,.62,3.42,1.55.51,2.66-2,4.28-1.93,2.68.09.57,3.71.06,4.72C471,613,469.08,615.24,469,618a1.91,1.91,0,0,0,.24,1.11c1.42,2.23,3.4-1.34,4-2.21a1,1,0,0,1,1.3-.43c.4.26.4.84.35,1.32-.57,5.55-6.31,8.93-7.81,14.21a2.84,2.84,0,0,0,0,2c.7,1.41,2.92,1,4.05,0,.8-.77,1.3-1.81,2.09-2.57s2.32-1.23,2,.6a3.73,3.73,0,0,1-1,1.63c-1.23,1.36-2.46,2.73-3.8,4a14,14,0,0,0-2,2,11.55,11.55,0,0,0-1.42,3.16c-.32,1-.58,2.24.2,2.91a1.73,1.73,0,0,0,1.81.16,4.08,4.08,0,0,0,1.46-1.22,16,16,0,0,0,1.79-2.6.71.71,0,0,1,1,.34,1.82,1.82,0,0,1,.07,1.11,8.58,8.58,0,0,1-2.94,5.33l-59.62-7.27-31.67-12.16a6.2,6.2,0,0,0-1-2.54,22.72,22.72,0,0,0-2.32-2.69c-.59-.65-1.16-1.31-1.71-2s-3-5.27-1.19-5.89a1.32,1.32,0,0,1,1.26.38,12.8,12.8,0,0,1,.89,1.06,3.7,3.7,0,0,0,2.88,1.21,1.57,1.57,0,0,0,.77-.22,1.46,1.46,0,0,0,.49-1.18,6.41,6.41,0,0,0-1.6-3.75c-.93-1.24-1.55-2.54-2.35-3.82-.9-1.46-1.9-2.73-2.11-4.5,1.61-1.54,3.21,3.41,5.33,2.73,1.49-.48.77-2.71-.12-4a28.13,28.13,0,0,1-4.11-9.83c-.39-1.74-.67-3.5-.91-5.26-.09-.71,0-4.52-1.63-3.46a2.32,2.32,0,0,0-.78,1.5c-.68,2.94-1.29,5.9-2.05,8.82-.61,2.34-.9,5.48-2.39,7.44-.81,1.07-1.81,1.88-1.72,3.36a.66.66,0,0,0,.08.34.78.78,0,0,0,.44.31c1.73.57,2.91-.69,4-1.83a1.62,1.62,0,0,1,.49-.38.55.55,0,0,1,.59.07c.38.38,0,1.53,0,2a9.32,9.32,0,0,1-1.82,4.1c-1.44,2-3.33,3.6-4.47,5.76a2.77,2.77,0,0,0-.4,1.42,1.86,1.86,0,0,0,1.89,1.53c1.18.08,1.85-.83,2.25-1.84a3,3,0,0,1,1.18-1.72c.16-.09.39-.12.49,0a.39.39,0,0,1,.06.21,8.43,8.43,0,0,1-.79,4.14A10.57,10.57,0,0,1,366,624.1l-.22.21-14.23-5.46c-.42-1.62-2-3.23-3.27-4.53a19.37,19.37,0,0,1-4.87-8.62,19,19,0,0,0,3.71,3.61c1,.73,2.07.63,2.48-.7a4.33,4.33,0,0,0,.07-1.72,11.8,11.8,0,0,0-.85-3.63c-.88-2-2.55-3.43-3.94-5.07s-2.55-3.76-2.07-5.86a1.23,1.23,0,0,1,.52-.84c.49-.25,1.07.15,1.34.62.61,1,.63,1.77,1.93,1.36a2.46,2.46,0,0,0,1.51-2.32,4.77,4.77,0,0,0-.82-2.15c-2-3.47-6-6.64-5.36-11.11a1.32,1.32,0,0,1,.38-.86c.6-.52,1.49.16,1.94.82s1.11,1.46,1.86,1.18.72-1.28.53-2c-.86-3.37-3-6.26-4.4-9.44a5.05,5.05,0,0,1-.59-2.59.92.92,0,0,1,.16-.48.78.78,0,0,1,1.09,0c.7.63.77,1.88,1.95,2s1.95-1.14,1.85-2.25a7.16,7.16,0,0,0-1.39-3c-4.35-6.93-4.31-16.07-7-23.69a1.48,1.48,0,0,0-.46-.77,1.1,1.1,0,0,0-1.52.57,3.47,3.47,0,0,0-.1,1.84c.62,5.23-.36,10.5-1.33,15.68a37.83,37.83,0,0,1-1.42,5.83c-.88,2.43-2.25,4.66-3.21,7.06-.49,1.22-.62,3,.62,3.43,1.54.5,2.65-2,4.28-1.93,2.68.09.57,3.7.06,4.72-1.19,2.38-3.13,4.62-3.19,7.41a1.92,1.92,0,0,0,.23,1.11c1.43,2.22,3.41-1.35,4-2.21.3-.41.88-.71,1.3-.43s.4.84.35,1.32c-.57,5.54-6.31,8.92-7.8,14.21a2.81,2.81,0,0,0,0,2c.7,1.42,2.92,1.05,4.06,0,.8-.77,1.3-1.8,2.09-2.57s2.32-1.22,1.94.61a3.7,3.7,0,0,1-1,1.62c-1.22,1.37-2.45,2.74-3.8,4a14.53,14.53,0,0,0-2,2,11.52,11.52,0,0,0-1.41,3.16c-.33,1-.59,2.24.2,2.92a1.75,1.75,0,0,0,1.81.16,4.25,4.25,0,0,0,1.45-1.22,15.53,15.53,0,0,0,1.8-2.61.7.7,0,0,1,.94.35,1.81,1.81,0,0,1,.08,1.11,8.4,8.4,0,0,1-2.67,5.06l-9.16-3.52h-10a17.15,17.15,0,0,0-3.11-5.42c-1.25-1.51-3.42-3.08-2.71-5.31a1.54,1.54,0,0,1,.46-.75,1.34,1.34,0,0,1,1.42,0,4,4,0,0,1,1.08,1c.46.57,2.43,3.79,3.34,2a1.62,1.62,0,0,0,.1-.79,13.9,13.9,0,0,0-2.42-7.12c-1.31-1.92-3.12-3.53-4-5.68-.51-1.26-.6-3.56,1.17-3.6,1.49,0,2.59,1.75,3.74,2.42.91.55,2.4.45,2.7-.58a2.21,2.21,0,0,0-.11-1.24,15.48,15.48,0,0,0-3.69-6.32c-1.65-1.64-3-2.59-4-4.91-.36-.87-.53-2.07.26-2.59a1.71,1.71,0,0,1,2,.37c.54.48.92,1.12,1.46,1.61a1.74,1.74,0,0,0,2,.38,1.53,1.53,0,0,0,.55-1.54,4.47,4.47,0,0,0-.7-1.56c-1-1.6-2.09-3.14-3.06-4.76-.74-1.22-2.09-2.83-2.3-4.25-.07-.51,0-1.14.5-1.35a1.06,1.06,0,0,1,1,.19,9.32,9.32,0,0,1,.77.77,3.53,3.53,0,0,0,2,1,1.55,1.55,0,0,0,1.37-.35,1.47,1.47,0,0,0,.29-1.15c-.14-1.69-1.49-3-2.73-4.14-.77-.72-4.65-5.52-2.86-6.49,1.39-.75,3.24,3.65,4.71,1.84a1.93,1.93,0,0,0,.15-1.83,3.87,3.87,0,0,0-1.2-1.7,16.72,16.72,0,0,0-2.25-1.31c-1-.58-3.35-3.82-1.58-4.63,1.34-.62,2.27,1.35,3.23,1.88a.86.86,0,0,0,1-.05l0,0a.93.93,0,0,0,.11-.44c.14-2.08-.94-4-2.09-5.8s-2.42-3.52-2.75-5.58a1.87,1.87,0,0,1,.06-1,.78.78,0,0,1,.85-.49c.57.15.23,1.18.74,1.58a1.63,1.63,0,0,0,1.75,0,2.28,2.28,0,0,0,.7-2.51,8.4,8.4,0,0,0-1.39-2.4,21.25,21.25,0,0,1-3.41-8c-.56-2.84-.12-5.48-.16-8.3,0-.74.13-4.51-1.14-4.44s-1.27,3.35-1.32,4.13c-.4,6.31-.93,13.1-5,18a4.38,4.38,0,0,0-1.24,2.09,2,2,0,0,0,1.05,2,2,2,0,0,0,2.21-.36c.38-.38.84-1.36,1.51-.7a1.54,1.54,0,0,1,.35,1c.16,2.59-1.05,5.06-2.44,7.26s-3,4.31-3.79,6.78a4.49,4.49,0,0,0-.22,2.43,2,2,0,0,0,1.69,1.59c1.36.1,1.57-1.19,2.6-1.72a1.32,1.32,0,0,1,1.57.17,1.47,1.47,0,0,1,.31,1.08c-.07,1.94-1.83,3.31-3.21,4.68a16.11,16.11,0,0,0-3.67,5.68,5.07,5.07,0,0,0-.4,1.94,2.15,2.15,0,0,0,.85,1.72,2.37,2.37,0,0,0,2.81-.48,10.34,10.34,0,0,0,1.69-2.56,2.16,2.16,0,0,1,1.25-1.16c2.3-.49.65,3.38.17,4-2.72,3.57-6.5,7.06-6.27,11.55a2,2,0,0,0,.92,1.82c1,.44,1.92-.52,2.53-1.37.39-.54,3-5.87,3.34-3.08.33,2.63-1.68,3.85-3.13,5.6a19,19,0,0,0-3.62,6.84c-.31,1.07-.34,2.53.69,2.94,1.59.64,2.13-1.5,3.06-2.23a1.6,1.6,0,0,1,2.64.94,3.42,3.42,0,0,1-.54,2.31c-1.68,2.94-5.11,4.71-6.28,7.89a2.21,2.21,0,0,0,.38,2.55c1.24.89,2.44-.66,3.25-1.38a1.49,1.49,0,0,1,.95-.49.94.94,0,0,1,.8.75,2.1,2.1,0,0,1-.1,1.16c-1,3.28-3.9,4.69-5.84,7.26a8.76,8.76,0,0,0-1.44,2.84H251l-64.4-20.89h-3.7c-1.15-1.54-2-3.2-1.68-5,1.87.16,2.37,3.38,4.25,3.34,1.38,0,1.94-1.88,1.64-3.23-.65-2.85-3-4.9-4.77-7.11a9.41,9.41,0,0,1-1.91-3.51c-.09-.34-.5-1.55-.31-1.84.45-.69,1.15.2,1.39.6a21.37,21.37,0,0,0,1.23,1.86,4.4,4.4,0,0,0,1.2,1.23,1.78,1.78,0,0,0,1.64.21,2.08,2.08,0,0,0,1-1.89,5.62,5.62,0,0,0-1.09-3.33,23.64,23.64,0,0,0-2.32-2.7c-.59-.64-1.16-1.3-1.71-2s-3-5.27-1.19-5.88a1.3,1.3,0,0,1,1.26.38,11.34,11.34,0,0,1,.89,1.06,3.67,3.67,0,0,0,2.88,1.2,1.38,1.38,0,0,0,.77-.22,1.43,1.43,0,0,0,.49-1.17,6.35,6.35,0,0,0-1.6-3.75c-.93-1.24-1.55-2.55-2.35-3.83-.9-1.45-1.9-2.72-2.11-4.49,1.61-1.55,3.21,3.4,5.33,2.72,1.49-.47.77-2.71-.12-4a28.13,28.13,0,0,1-4.11-9.83c-.39-1.74-.67-3.5-.91-5.27-.09-.71,0-4.52-1.63-3.45a2.32,2.32,0,0,0-.78,1.49c-.68,2.94-1.29,5.91-2.05,8.83-.61,2.33-.9,5.48-2.39,7.44-.81,1.07-1.81,1.88-1.72,3.36a.66.66,0,0,0,.08.34.76.76,0,0,0,.44.3c1.73.58,2.91-.68,4-1.82a1.62,1.62,0,0,1,.49-.38.53.53,0,0,1,.59.07c.38.38.05,1.53,0,2a9.32,9.32,0,0,1-1.82,4.1c-1.44,2-3.33,3.6-4.47,5.75a2.8,2.8,0,0,0-.4,1.42A1.86,1.86,0,0,0,173,562.1c1.18.08,1.85-.84,2.25-1.85a3,3,0,0,1,1.18-1.71c.16-.09.39-.13.49,0a.4.4,0,0,1,.06.22,8.45,8.45,0,0,1-.79,4.14,10.53,10.53,0,0,1-2.66,3.18,8.11,8.11,0,0,0-1.53,1.78,2.68,2.68,0,0,0-.39,1.63,1.62,1.62,0,0,0,.94,1.33,2.06,2.06,0,0,0,2.11-.68c.28-.28,1.83-2.77,2.39-1.78.2.34-.23,1.69-.31,2.08a21.74,21.74,0,0,1-5.7,10.8c-.83.85-1.8,1.79-1.74,3,.08,1.58,2.07,2.28,3.41,1.91,1.88-.52,1.82-2.47,3.2-3.48a.49.49,0,0,1,.32-.12c.28,0,.31.42.27.69a18.79,18.79,0,0,1-1.33,4.34H164.92a3,3,0,0,0,0-.6,10.41,10.41,0,0,0-2.85-5.85c-.82-.83-1.77-1.52-2.57-2.37-.54-.58-2.72-4.31-.48-4.22a1.26,1.26,0,0,1,.77.38c.54.49.88,1.17,1.39,1.7a1.8,1.8,0,0,0,2,.62c.94-.44.88-1.78.57-2.76a17,17,0,0,0-3.18-5.59c-1.25-1.51-3.42-3.08-2.71-5.31a1.58,1.58,0,0,1,.46-.75,1.34,1.34,0,0,1,1.42,0,4.18,4.18,0,0,1,1.08,1c.46.57,2.43,3.79,3.34,2a1.59,1.59,0,0,0,.1-.78,13.9,13.9,0,0,0-2.42-7.13c-1.31-1.92-3.12-3.53-4-5.68-.51-1.26-.6-3.56,1.17-3.59,1.49,0,2.59,1.74,3.74,2.42.91.54,2.4.44,2.7-.58a2.24,2.24,0,0,0-.11-1.25,15.48,15.48,0,0,0-3.69-6.32c-1.65-1.64-3-2.59-4-4.91-.36-.87-.53-2.07.25-2.59a1.72,1.72,0,0,1,2,.37c.54.48.92,1.12,1.46,1.61a1.74,1.74,0,0,0,2,.38,1.53,1.53,0,0,0,.55-1.54,4.31,4.31,0,0,0-.71-1.56c-1-1.6-2.08-3.14-3-4.76-.74-1.22-2.09-2.83-2.3-4.25-.07-.51,0-1.14.5-1.35a1.06,1.06,0,0,1,1,.19,9.32,9.32,0,0,1,.77.77,3.54,3.54,0,0,0,2,1,1.54,1.54,0,0,0,1.38-.35,1.5,1.5,0,0,0,.29-1.15c-.14-1.69-1.49-3-2.73-4.14-.77-.72-4.65-5.52-2.86-6.49,1.39-.75,3.23,3.65,4.71,1.85a1.94,1.94,0,0,0,.15-1.83,4,4,0,0,0-1.2-1.71,16.72,16.72,0,0,0-2.25-1.31c-1-.58-3.35-3.82-1.58-4.63,1.34-.62,2.27,1.35,3.23,1.88a.86.86,0,0,0,1-.05l0-.05a.92.92,0,0,0,.11-.43c.14-2.09-.94-4.05-2.09-5.81s-2.42-3.52-2.75-5.58a1.87,1.87,0,0,1,.06-1.05.78.78,0,0,1,.85-.49c.57.15.23,1.18.74,1.58a1.63,1.63,0,0,0,1.75,0,2.29,2.29,0,0,0,.7-2.51,8.4,8.4,0,0,0-1.39-2.4,21.25,21.25,0,0,1-3.41-8c-.56-2.84-.12-5.48-.16-8.3,0-.74.13-4.51-1.14-4.44s-1.27,3.35-1.32,4.13c-.4,6.31-.93,13.1-5,18A4.43,4.43,0,0,0,148,495a1.92,1.92,0,0,0,3.26,1.62c.38-.38.84-1.36,1.51-.7a1.54,1.54,0,0,1,.35,1.05c.16,2.59-1.05,5.07-2.44,7.26s-3,4.31-3.79,6.78a4.49,4.49,0,0,0-.22,2.43,2,2,0,0,0,1.69,1.59c1.36.1,1.57-1.19,2.6-1.72a1.34,1.34,0,0,1,1.57.17,1.47,1.47,0,0,1,.31,1.08c-.07,1.95-1.83,3.31-3.21,4.68A16.06,16.06,0,0,0,146,525a5,5,0,0,0-.4,1.93,2.13,2.13,0,0,0,.85,1.72,2.37,2.37,0,0,0,2.81-.48,10.34,10.34,0,0,0,1.69-2.56,2.16,2.16,0,0,1,1.25-1.16c2.3-.49.65,3.38.17,4-2.73,3.57-6.5,7.06-6.27,11.55a2,2,0,0,0,.92,1.82c1,.44,1.92-.52,2.53-1.37.39-.54,3-5.87,3.34-3.08.33,2.63-1.68,3.85-3.13,5.6a19,19,0,0,0-3.62,6.84c-.31,1.07-.34,2.53.69,3,1.58.63,2.13-1.51,3.06-2.24a1.6,1.6,0,0,1,2.64.94,3.41,3.41,0,0,1-.54,2.31c-1.68,2.94-5.11,4.71-6.28,7.89a2.21,2.21,0,0,0,.38,2.55c1.24.89,2.44-.66,3.25-1.38a1.47,1.47,0,0,1,.95-.49.94.94,0,0,1,.8.75,2.1,2.1,0,0,1-.1,1.16c-1,3.28-3.9,4.69-5.84,7.26a8.7,8.7,0,0,0-1.68,3.89,3.85,3.85,0,0,0,.13,2,1.79,1.79,0,0,0,1.59,1.16c.88,0,1.52-.87,1.85-1.69a7.07,7.07,0,0,1,1.13-2.38c.77-.8,2.4-.7,2.5.59.09,1-1.5,2.32-2,3.12q-2.94,4.6-5.66,9.37H85c-.09-1.84-1.91-3.73-3.37-5.21a19.29,19.29,0,0,1-4.88-8.62,19.52,19.52,0,0,0,3.71,3.61c1,.73,2.07.63,2.48-.7a4.38,4.38,0,0,0,.07-1.73,11.81,11.81,0,0,0-.85-3.62c-.87-2-2.55-3.43-3.94-5.07s-2.54-3.77-2.06-5.86a1.14,1.14,0,0,1,.52-.84c.48-.25,1.06.15,1.34.62.61,1,.62,1.77,1.93,1.36a2.46,2.46,0,0,0,1.51-2.32,4.9,4.9,0,0,0-.83-2.15c-2-3.47-6-6.64-5.36-11.11a1.37,1.37,0,0,1,.38-.86c.61-.52,1.49.16,1.94.82s1.12,1.46,1.86,1.18.72-1.28.54-2c-.86-3.37-3-6.25-4.41-9.43A5.16,5.16,0,0,1,75,533a1,1,0,0,1,.16-.48.78.78,0,0,1,1.09,0c.7.63.77,1.88,2,2s1.95-1.14,1.85-2.25a7.06,7.06,0,0,0-1.4-3c-4.35-6.93-4.3-16.07-7-23.69a1.57,1.57,0,0,0-.47-.78,1.11,1.11,0,0,0-1.52.58,3.37,3.37,0,0,0-.09,1.84c.61,5.23-.36,10.5-1.33,15.67a38.85,38.85,0,0,1-1.42,5.84c-.88,2.43-2.25,4.66-3.22,7.06-.49,1.22-.62,3,.62,3.43,1.55.5,2.66-2,4.28-1.94,2.68.1.57,3.71.06,4.73-1.18,2.38-3.13,4.62-3.19,7.41a2,2,0,0,0,.24,1.11c1.42,2.22,3.4-1.35,4-2.21.29-.41.88-.71,1.3-.43s.4.84.35,1.31c-.57,5.55-6.31,8.93-7.81,14.21a2.84,2.84,0,0,0,0,2c.7,1.42,2.92,1,4-.05.8-.77,1.3-1.81,2.09-2.57s2.32-1.22,2,.6a3.68,3.68,0,0,1-1,1.63c-1.23,1.37-2.46,2.74-3.8,4a14,14,0,0,0-2,2,11.55,11.55,0,0,0-1.42,3.16c-.33,1-.59,2.24.2,2.92a1.76,1.76,0,0,0,1.81.16,4.28,4.28,0,0,0,1.46-1.22,16.09,16.09,0,0,0,1.79-2.61.7.7,0,0,1,.94.35,1.74,1.74,0,0,1,.08,1.11c-.48,3.07-2,4.49-4.15,6.43-2,1.8-4.31,3.69-5.11,6.17H53.65c-.19-.25-.38-.5-.57-.72-1.79-2.15-4-4.53-3.52-7.28,1.87.16,2.37,3.38,4.25,3.34,1.38,0,1.94-1.87,1.64-3.22-.65-2.86-3-4.91-4.77-7.12a9.33,9.33,0,0,1-1.91-3.51c-.08-.34-.5-1.54-.31-1.84.45-.69,1.15.2,1.39.61q.57,1,1.23,1.86a4.68,4.68,0,0,0,1.2,1.23,1.84,1.84,0,0,0,1.64.21,2.1,2.1,0,0,0,1-1.9,5.59,5.59,0,0,0-1.09-3.32,22,22,0,0,0-2.32-2.7c-.59-.65-1.16-1.31-1.71-2s-3-5.27-1.19-5.89a1.32,1.32,0,0,1,1.26.38,12.8,12.8,0,0,1,.89,1.06A3.71,3.71,0,0,0,53.69,558a1.57,1.57,0,0,0,.77-.22,1.46,1.46,0,0,0,.49-1.18,6.41,6.41,0,0,0-1.6-3.75C52.42,551.6,51.8,550.3,51,549c-.9-1.46-1.9-2.73-2.11-4.5,1.61-1.54,3.21,3.41,5.33,2.73,1.49-.48.77-2.71-.11-4A28.15,28.15,0,0,1,50,533.42c-.39-1.74-.67-3.5-.91-5.26-.09-.71,0-4.52-1.63-3.46a2.34,2.34,0,0,0-.78,1.5c-.68,2.94-1.29,5.9-2.05,8.82-.61,2.34-.9,5.48-2.39,7.44-.81,1.07-1.81,1.88-1.72,3.36a.72.72,0,0,0,.08.35.81.81,0,0,0,.44.3c1.73.57,2.91-.69,4-1.83a1.41,1.41,0,0,1,.49-.38.53.53,0,0,1,.58.07c.38.38.05,1.53,0,2a9.16,9.16,0,0,1-1.82,4.1c-1.44,2-3.33,3.6-4.47,5.76a2.77,2.77,0,0,0-.4,1.42,1.86,1.86,0,0,0,1.89,1.53c1.18.08,1.85-.83,2.25-1.84a3.09,3.09,0,0,1,1.18-1.72c.16-.09.39-.12.49,0a.39.39,0,0,1,.06.21,8.43,8.43,0,0,1-.79,4.14,10.57,10.57,0,0,1-2.66,3.19,8.05,8.05,0,0,0-1.53,1.77,2.71,2.71,0,0,0-.39,1.63,1.64,1.64,0,0,0,.94,1.33,2.06,2.06,0,0,0,2.11-.68c.28-.28,1.83-2.76,2.39-1.78.2.35-.23,1.69-.31,2.09a22.08,22.08,0,0,1-1.18,3.89,21.72,21.72,0,0,1-4.52,6.9c-.83.85-1.8,1.8-1.74,3,.08,1.59,2.07,2.29,3.41,1.91,1.88-.52,1.82-2.46,3.2-3.47a.44.44,0,0,1,.32-.12c.28,0,.31.42.27.69a18,18,0,0,1-3,7.31H31.92a2.5,2.5,0,0,0,.5-1.43,5.66,5.66,0,0,0-1.09-3.32,23.92,23.92,0,0,0-2.32-2.7c-.6-.65-1.17-1.31-1.72-2s-3-5.27-1.19-5.89a1.34,1.34,0,0,1,1.27.38c.34.31.58.72.89,1.06a3.68,3.68,0,0,0,2.87,1.21,1.5,1.5,0,0,0,.78-.22,1.48,1.48,0,0,0,.48-1.18,6.34,6.34,0,0,0-1.6-3.75c-.93-1.24-1.55-2.54-2.34-3.82-.91-1.46-1.91-2.73-2.11-4.5,1.6-1.54,3.21,3.41,5.33,2.73,1.48-.48.76-2.71-.12-4a28.07,28.07,0,0,1-4.12-9.83c-.39-1.74-.67-3.5-.9-5.26-.1-.71,0-4.52-1.64-3.46a2.34,2.34,0,0,0-.78,1.5c-.67,2.94-1.28,5.9-2.05,8.82-.61,2.34-.89,5.48-2.38,7.44-.82,1.07-1.82,1.88-1.73,3.36a.85.85,0,0,0,.08.35.8.8,0,0,0,.45.3c1.72.57,2.9-.69,4-1.82a1.54,1.54,0,0,1,.49-.39.55.55,0,0,1,.59.07c.38.38,0,1.53,0,2a9.29,9.29,0,0,1-1.83,4.1c-1.44,2-3.33,3.6-4.46,5.76a2.59,2.59,0,0,0-.4,1.42A1.85,1.85,0,0,0,18.74,576c1.18.08,1.85-.83,2.26-1.84a3.07,3.07,0,0,1,1.17-1.72c.16-.08.39-.12.5,0a.38.38,0,0,1,0,.21,8.43,8.43,0,0,1-.79,4.14A10.29,10.29,0,0,1,19.27,580a8.33,8.33,0,0,0-1.53,1.77,2.71,2.71,0,0,0-.39,1.63,1.64,1.64,0,0,0,.95,1.33,2.06,2.06,0,0,0,2.11-.68c.27-.28,1.82-2.76,2.39-1.78.2.35-.24,1.69-.32,2.09a21,21,0,0,1-.93,3.18H0V754H800V689.06ZM160,586.52a9.37,9.37,0,0,1,1.21,1.06h-1.88C159,586.89,158.79,585.71,160,586.52Zm-9.45-2.74a10.92,10.92,0,0,1-.69,3.8h-1.53A10.69,10.69,0,0,1,150.55,583.78Zm-80,2.33a4.39,4.39,0,0,1-.35,1.47H66.53C67.68,586.21,69.24,585.13,70.56,586.11ZM26.21,586c-.08-.34-.5-1.54-.31-1.84.46-.69,1.16.2,1.4.61a20.51,20.51,0,0,0,1.22,1.86,5.69,5.69,0,0,0,.86,1H26.85A7,7,0,0,1,26.21,586Zm275,22.49h-1.9A1.57,1.57,0,0,1,301.19,608.47ZM769.6,682.74a.44.44,0,0,1,.32-.12c.28,0,.31.42.26.69a16.56,16.56,0,0,1-.47,2.06l-1.83-.23A8.83,8.83,0,0,1,769.6,682.74Z" transform="translate(0.5)"/><path id="_Compound_Path_5" data-name="&lt;Compound Path&gt;" class="cls-11" d="M720.56,716.57c3-3.49,5.89-7.14,7.45-11.45a21.19,21.19,0,0,0,.85-11.43,8.13,8.13,0,0,0-2.29-4.63c-3.23,5.23-6.15,11-7.3,16.93a283.83,283.83,0,0,1-.16-34.51,99.45,99.45,0,0,0-1.05,35.5,12.38,12.38,0,0,0-1.42-2.23A13.12,13.12,0,0,0,707,700a35.16,35.16,0,0,0,3.15,10.17,14,14,0,0,0,6.65,6.45H683.3l-2.51-9.08h-7l-6.74-6.74H645.93L640.71,706h-7.84l-4.39,10.61H600.19a16.8,16.8,0,0,0-.68-2.4,1,1,0,0,0-.36-.56c-.66-.42-1.41.81-2.15.56a7.62,7.62,0,0,0-7.18-7.73,17.61,17.61,0,0,0,2.07,10.13H542.54l-12,4.1-13.13-4.1h-170L319.52,712H262.33l-7.39,4.57h-72l9.32-10.78c-4,2.14-6.86,5.79-9.45,9.64a32.37,32.37,0,0,0,.58-24.09,20.23,20.23,0,0,0-5.13,13.36,27.51,27.51,0,0,0,.2,4.26,17.4,17.4,0,0,0-10.78-9.23A18.93,18.93,0,0,0,170.41,711a14.36,14.36,0,0,0,6.67,5.56h-27L146,697.33H126.33v6.34h-18l-6.85,12.9H0v84.49H800V716.57Zm-1.38-.94c.06.32.14.63.23.94h-.83A1.69,1.69,0,0,0,719.18,715.63Z" transform="translate(0.5)"/><path id="_Path_12" data-name="&lt;Path&gt;" class="cls-12" d="M13.83,290.9c14.21-2.26,41.37,4.59,50.35-9a25.47,25.47,0,0,0,2.88-7.07l3.63-12.36c3.35-11.41,7.88-24.15,19.48-29.07,26.9-11.4,44.18,15,52.77,33.3,1.13,2.41,2.51,5,5.13,6.06,5.86,2.29,10.33-4.72,15.14-8.47,7.12-5.54,19.72-3.1,24,4.66,1.78,3.2,2.86,7.5,6.62,8.4,4.58,1.09,7.73-3.94,11.76-6.17,8.41-4.64,18.06,3.51,26,9,19.15,13.15,45.13,11.94,68.71,10.14,3,1.79-1,5.64-4.45,6.48-42.8,10.49-87.65,11.74-132,12.92-47.67,1.27-95.56,2.54-143-2.84-4.05-.46-8.33-1.05-11.53-3.42s-4.72-7.14-2.05-9.95C8.87,291.82,11.43,291.29,13.83,290.9Z" transform="translate(0.5)"/><g id="_Group_8" data-name="&lt;Group&gt;"><path id="_Path_13" data-name="&lt;Path&gt;" class="cls-10" d="M208.67,412.1s.67-3.07,0-3.55-10.16-5.18-12.66-4.79-.95,1.63,0,2.3a8.66,8.66,0,0,1,2.4,3.26c.38.95,1.06,5,2.3,5.36,0,0-8.82,3.74-9.49,4.61s5.37-1.54,5.37-1.54,7.09.67,9.11-.29a30.19,30.19,0,0,0,6.23-4.79c.88-.88,2.3-.09,2.3-.09S212.21,409.6,208.67,412.1Z" transform="translate(0.5)"/><path id="_Path_14" data-name="&lt;Path&gt;" class="cls-10" d="M134.46,426.64s.67-3.07,0-3.54-10.16-5.18-12.66-4.8-1,1.63,0,2.3a8.66,8.66,0,0,1,2.4,3.26c.38,1,1.06,5,2.3,5.37,0,0-8.82,3.74-9.49,4.6s5.37-1.53,5.37-1.53,7.09.67,9.11-.29a30.54,30.54,0,0,0,6.23-4.79c.88-.89,2.3-.1,2.3-.1S138,424.15,134.46,426.64Z" transform="translate(0.5)"/><path id="_Path_15" data-name="&lt;Path&gt;" class="cls-10" d="M78.25,423.75s2.59-1.87,2.45-3.45-1.73-7.48-3.17-7.91,0,3,0,3-3.3-2.3-3.3-1.15a5.77,5.77,0,0,0,1,2.59s-4.89-1.29-4.74-.72,1.72,1.92,1.72,1.92-4.17.67-4,1.82a1,1,0,0,0,1.29.86s-.29,4,1,5.32c0,0-9.78,3.16-10.35,4.17s7-1.58,7-1.58,6.33,1,8.63.43,6.33-3.31,7.48-3.31,3-.14,3-.14S84,422.46,78.25,423.75Z" transform="translate(0.5)"/><path id="_Path_16" data-name="&lt;Path&gt;" class="cls-10" d="M273.25,377.83s2.59-1.87,2.45-3.45-1.73-7.48-3.16-7.91,0,3,0,3-3.31-2.3-3.31-1.15a5.74,5.74,0,0,0,1,2.59s-4.89-1.29-4.75-.72,1.73,1.92,1.73,1.92-4.17.67-4,1.82a1,1,0,0,0,1.29.86s-.28,4,1,5.32c0,0-9.78,3.17-10.35,4.17s7-1.58,7-1.58,6.33,1,8.63.43,6.33-3.31,7.48-3.31,3-.14,3-.14S279,376.54,273.25,377.83Z" transform="translate(0.5)"/><path id="_Path_17" data-name="&lt;Path&gt;" class="cls-10" d="M319.31,443.76s2.59-1.87,2.44-3.45-1.72-7.48-3.16-7.91,0,3,0,3-3.31-2.3-3.31-1.15a5.74,5.74,0,0,0,1,2.59s-4.89-1.29-4.75-.72,1.73,1.92,1.73,1.92-4.17.67-4,1.82a1,1,0,0,0,1.3.86s-.29,4,1,5.32c0,0-9.77,3.17-10.35,4.17s7.05-1.58,7.05-1.58,6.32,1,8.62.43,6.33-3.31,7.48-3.31,3-.14,3-.14S325.06,442.47,319.31,443.76Z" transform="translate(0.5)"/><path id="_Path_18" data-name="&lt;Path&gt;" class="cls-10" d="M219.28,466.07s2.58-1.87,2.44-3.46-1.73-7.47-3.16-7.9,0,3,0,3-3.31-2.3-3.31-1.15a5.68,5.68,0,0,0,1,2.58s-4.89-1.29-4.75-.71,1.73,1.92,1.73,1.92-4.17.66-4,1.81a1,1,0,0,0,1.29.87s-.28,4,1,5.32c0,0-9.78,3.16-10.35,4.17s7-1.59,7-1.59,6.33,1,8.63.44,6.33-3.31,7.48-3.31,3-.15,3-.15S225,464.77,219.28,466.07Z" transform="translate(0.5)"/><path id="_Path_19" data-name="&lt;Path&gt;" class="cls-10" d="M273.25,496.32s2.59-1.87,2.45-3.45-1.73-7.48-3.16-7.91,0,3,0,3-3.31-2.3-3.31-1.15a5.74,5.74,0,0,0,1,2.59s-4.89-1.29-4.75-.72,1.73,1.92,1.73,1.92-4.17.67-4,1.82a1,1,0,0,0,1.29.86s-.28,4,1,5.32c0,0-9.78,3.17-10.35,4.17s7-1.58,7-1.58,6.33,1,8.63.43,6.33-3.3,7.48-3.3,3-.15,3-.15S279,495,273.25,496.32Z" transform="translate(0.5)"/><g id="_Group_9" data-name="&lt;Group&gt;"><path id="_Path_20" data-name="&lt;Path&gt;" class="cls-10" d="M173.81,447.84s-.36-1.53-2.81-2.15a4.82,4.82,0,0,0-3.71.21,8.39,8.39,0,0,0-3.91-1.17c-2.12,0-12.09.76-13.61,1.43s4.13.11,5.18.32,2.43,0,3.08.21a9.44,9.44,0,0,1,2.84,3.08c.36.81,1.35-.11,1.35-.11s-1.37,5.27,7.95,7.34c0,0,.83-5.58-.4-8.54C169.77,448.46,172.43,447,173.81,447.84Z" transform="translate(0.5)"/><path id="_Path_21" data-name="&lt;Path&gt;" class="cls-10" d="M157.48,445.82s1,1.06.85,1.9-.59,8.82,2.14,11.56l.83-.77s-.35,1.52.28,1.81.86-.86.86-.86.58,1.8.86,1.88.42-1.4.42-1.4a5.9,5.9,0,0,0,.89,1.79c.41.32,1.46-9,1.46-9Z" transform="translate(0.5)"/></g><g id="_Group_10" data-name="&lt;Group&gt;"><path id="_Path_22" data-name="&lt;Path&gt;" class="cls-10" d="M277,423.43s-.36-1.53-2.81-2.16a4.78,4.78,0,0,0-3.71.22,8.26,8.26,0,0,0-3.91-1.17c-2.13,0-12.09.76-13.61,1.43s4.12.11,5.18.32,2.43,0,3.08.21a9.42,9.42,0,0,1,2.83,3.08c.37.81,1.35-.11,1.35-.11s-1.36,5.27,8,7.33c0,0,.83-5.58-.4-8.53C273,424.05,275.66,422.61,277,423.43Z" transform="translate(0.5)"/><path id="_Path_23" data-name="&lt;Path&gt;" class="cls-10" d="M260.71,421.4s1,1.07.85,1.91-.6,8.82,2.13,11.56l.84-.77s-.35,1.52.27,1.81.87-.86.87-.86.58,1.79.86,1.88.41-1.4.41-1.4a5.76,5.76,0,0,0,.89,1.78c.41.33,1.46-9,1.46-9Z" transform="translate(0.5)"/></g></g></g></g></svg>