<svg xmlns="http://www.w3.org/2000/svg" xmlns:xlink="http://www.w3.org/1999/xlink" viewBox="0 0 750 500"><defs><style>.cls-1{fill:url(#Degradado_sin_nombre_14);}.cls-11,.cls-2,.cls-3,.cls-7,.cls-8{fill:#fff;}.cls-2{opacity:0.1;}.cls-3{opacity:0.2;}.cls-4{opacity:0.3;}.cls-5{fill:url(#Degradado_sin_nombre_18);}.cls-6,.cls-8{opacity:0.03;}.cls-9{fill:url(#Degradado_sin_nombre_24);}.cls-10{fill:url(#Degradado_sin_nombre_35);}.cls-11{opacity:0.02;}.cls-12{fill:url(#Degradado_sin_nombre_42);}.cls-13{fill:url(#Degradado_sin_nombre_42-2);}.cls-14{fill:url(#Degradado_sin_nombre_42-3);}.cls-15{fill:url(#Degradado_sin_nombre_48);}</style><linearGradient id="Degradado_sin_nombre_14" x1="375" y1="-0.72" x2="375" y2="216.15" gradientUnits="userSpaceOnUse"><stop offset="0" stop-color="#4e97d4"/><stop offset="1" stop-color="#bdecff"/></linearGradient><linearGradient id="Degradado_sin_nombre_18" x1="375" y1="408.17" x2="375" y2="222.02" gradientUnits="userSpaceOnUse"><stop offset="0" stop-color="#4e97d4"/><stop offset="1" stop-color="#39709e"/></linearGradient><linearGradient id="Degradado_sin_nombre_24" x1="309.66" y1="228" x2="309.66" y2="300" gradientUnits="userSpaceOnUse"><stop offset="0" stop-color="#1d5482"/><stop offset="1" stop-color="#23679e"/></linearGradient><linearGradient id="Degradado_sin_nombre_35" x1="444.26" y1="227.5" x2="444.26" y2="383.82" gradientUnits="userSpaceOnUse"><stop offset="0" stop-color="#053f70"/><stop offset="1" stop-color="#075496"/></linearGradient><linearGradient id="Degradado_sin_nombre_42" x1="374.98" y1="182.52" x2="374.98" y2="417.73" gradientUnits="userSpaceOnUse"><stop offset="0" stop-color="#032a4a"/><stop offset="1" stop-color="#054070"/></linearGradient><linearGradient id="Degradado_sin_nombre_42-2" x1="595.68" y1="246.11" x2="595.68" y2="363.71" gradientTransform="matrix(1.82, 0.11, -0.16, 1.27, -327.84, -174.99)" xlink:href="#Degradado_sin_nombre_42"/><linearGradient id="Degradado_sin_nombre_42-3" x1="710.07" y1="245.25" x2="710.07" y2="362.85" gradientTransform="matrix(1, -0.03, 0.03, 1, -15.18, -0.23)" xlink:href="#Degradado_sin_nombre_42"/><linearGradient id="Degradado_sin_nombre_48" x1="375" y1="343" x2="375" y2="512.85" gradientUnits="userSpaceOnUse"><stop offset="0" stop-color="#0a1f30"/><stop offset="1" stop-color="#10314d"/></linearGradient></defs><title>mountain-night</title><g id="BACKGROUND"><rect class="cls-1" width="750" height="500"/></g><g id="OBJECTS"><path class="cls-2" d="M750,90.1a47.71,47.71,0,0,0-6.69,11S750,56,706.88,56s-49.41,39.72-49.41,39.72-15.41-24.25-39.59-11.73c-16.19,8.37-17.38,27.41-16.9,34.23-20.45,1.1-32.77,2.5-33,4-.62,3.58,66.47,6.48,149.83,6.48,11.05,0,21.83,0,32.22-.14Z"/><path class="cls-3" d="M211.61,98.51c-6.59-15.69-25.87-5.44-25.87-5.44s1.33-15.62-14.8-17-19.85,13.23-19.85,13.23-.62-24.09-26.68-24.09S98.67,86.43,98.67,86.43,85,70.67,73.54,80.17c-8.38,6.94-7.66,14.63-6.66,18.27-12.24.59-19.54,1.33-19.54,2.14,0,1.91,40.82,3.46,91.18,3.46s91.17-1.55,91.17-3.46C229.69,99.8,223,99.09,211.61,98.51Z"/><g class="cls-4"><path class="cls-5" d="M750,324.35a95.65,95.65,0,0,0-11.38-5.84c-17.54-7.88-35.67-14.32-53.36-21.87-25.52-10.89-50.07-24.16-75.61-34.94-6.79-2.87-13.65-6.4-20.56-8.87-4.14-1.48-5.53-2.62-7.9-6.62s-3.08-9.81-5.73-13.52c-1.6-2.25-3.5-2.42-6-2.47-1.64,0-3.85.5-5.42,0s-2-1.91-3.26-2.7c-1.43-.91-2.32-.72-3.88-.36a41.84,41.84,0,0,1-9.88.88c-3.7,0-4.81.3-7.72-1.14a8.93,8.93,0,0,0-4.68-1.12c-2.5,0-5.68-.6-8,.15-1.52,4.32,4.22,10.36-2.24,12-3.37.85-7.29.21-10.71.28a24.47,24.47,0,0,1-5.85-.42c-8.55-2-16.87-7.48-23.6-13a8.17,8.17,0,0,0-5.22-2.39,34.88,34.88,0,0,1-7-2c-6.94-3.23-7-12.06-11.2-17.1-2.08-2.51-1.23-6.22-4-8s-8.33-.77-11.27-.71c-2.7.05-2.91.05-4.07-2.08-1.6-2.94-.35-7.28-3.76-9.38-3-1.84-7.89-.89-11.24-.88-8.19,0-16.39.33-24.57-.41-4.11-.38-9.56-1.16-13.66-3-1.08-.48-2.54-1.72-3.78-2-1.53-.36-2.7.24-4.07-.58-.93-.56-1.18-2.39-1.86-3.06-1.57-1.55-3.37-1-5.72-1-3.55,0-7.26-.48-10.63.6-6.68,2.13-12.91,7.07-18.95,10.58-4.09,2.39-8.49,4.07-12.69,6.18a22.75,22.75,0,0,1-9,2.86c-3.57.18-7.22-.09-10.8-.11-4.32,0-8.3,1-12.5,2.17-9.46,2.58-18.71,5.28-27.93,8.43-3.13,1.06-5.74,2.91-8.75,4.05-.54.21-1.43-.18-2.1.1-.83.35-1.39,1.4-2.18,1.85s-1.47-.11-2.12.15c-2.77,1.13-5.12,3.63-7.41,5.51-6.46,5.28-12.31,9.21-20.76,9.21-2.92,0-5.46-.63-8.14.61-4.68,2.17-7.59,7.63-11.25,11.07-2.93,2.75-6.75,6.46-10.38,8.31-2.69,1.37-5.81,1.18-8.71,1.15s-6.36-.48-9.28-.14c-5.05.6-12,4.83-16.45,6.83C155,255,147,257.16,140.32,262.79a129.08,129.08,0,0,0-15.44,15.13c-.83,1-2.4,2.4-2.5,3.78l.81,0L0,443.19V500H750Z"/><g class="cls-6"><path class="cls-7" d="M275,268.24c.38-.63.73-1.26,1.07-1.88C275.38,266.84,274.82,267.44,275,268.24Z"/><path class="cls-7" d="M240.29,222c2.44,0,5,.3,7.37-.26,5.4-1.26,9.94-5.74,15.39-6.69,1.41-.24,2.75,0,4.15-.34a6.61,6.61,0,0,1,3.24-.24,13.63,13.63,0,0,1-4.44,3.94c-1.07.62-2.85,1.29-3.56,2.41-1.18,1.84.95,2.91,2.47,3.37,2.88.88,4.57-1.43,6.8-2.94,1.8-1.22,3.17-3.05,5.09-4.07,1.84-.6,3.66-1.29,5.45-2a15.91,15.91,0,0,1,3.6-1.55,23.42,23.42,0,0,1,2.84-.3,27.06,27.06,0,0,0,5.68-1.74c2.2-.88,4.42-2.32,6.76-2.85.85-.19,1.61.08,2.45-.12,2.54-.59,4.7-3.06,7.24-3.85a7.4,7.4,0,0,1,2.54-.19c2.37,0,5.23-.41,7.58,0,.24,3.88-3.85,6.89-6.53,8.89-2.48,1.84-5.17,3.38-7.64,5.24-1,.72-3,2-2.78,3.52.06.35.65.52.73.81a27.34,27.34,0,0,1,.72,3.49c.26,1.63.68,4,.15,5.61-.45,1.35-1.57,2.18-2.22,3.48a54.13,54.13,0,0,1-2.93,5.85,46.51,46.51,0,0,1-10,10.29c-1.66,1.31-3.2,2.77-4.78,4.19-2.09,1.87-4.54,3.55-6.44,5.62a23.49,23.49,0,0,0-3.17,4.83c.52-.37,1.1-.66,1.48-.9,3.75-2.32,7.9-3.62,11.93-5.34,2.57-1.1,5.11-2.25,7.56-3.59a4.13,4.13,0,0,1,1.8-.79c.11.91.1,3,1.68,2.21.62-3.78,4.22-6.52,7.22-8.41a17,17,0,0,1,1.95-.85,1.25,1.25,0,0,0,1.05-.07,9.8,9.8,0,0,0,1.58-2.1,31.3,31.3,0,0,0,3.92-8.43c.36-1.28.29-3.57,1.15-4.57s2.36-.35,3.55-.57c.64-2.1,0-4.94,0-7.16a15.35,15.35,0,0,1,1.61-6.09,3.7,3.7,0,0,1,2.95-2q2.81-1.11,5.53-2.38a15.26,15.26,0,0,0,4.58-2.29,13.09,13.09,0,0,1,1.19-1.15c1.57-1.06,3.25-1,5-1.62a46.19,46.19,0,0,0,5.51-2.83q3.89-1.78,7.78-3.51a21.14,21.14,0,0,0,6.15-4.64,1,1,0,0,1,1.11-.69c1.33-.45,4.74,0,5.87.06,1.9,0,5.31-.5,7.3-.11,2.23.45,3,4.34,3.75,6.23.57,1.48.53,1.75,1.64,2.56a15.66,15.66,0,0,0,2.54,1.06c2.29,1.24,4.58,2.47,6.89,3.66a69.13,69.13,0,0,0,7.66,3.19,13.29,13.29,0,0,0,3.55.39c1.92.38,3,2.25,4.15,3.68A50.38,50.38,0,0,0,419,230.89c3.42,2.14,6.89,4.21,10.41,6.18a16.12,16.12,0,0,0,3.38,1.35,34.94,34.94,0,0,0,5.07,2.57,37.22,37.22,0,0,1,6.57,2.86c2.35,1.37,4,4.93,5.21,7.25,1.46,2.74,3.38,5.65,4.35,8.59a157.18,157.18,0,0,1,4.6,18.59c.4,2,.71,1.26,2.09.65a1.13,1.13,0,0,1,1.41-.53,3.85,3.85,0,0,1,1.75,1.13,9.93,9.93,0,0,1,4,4.63,2,2,0,0,0,.18,1.6c.5.6,1,1.2,1.49,1.81.93,1.05,1.8,1.14,2.91,1.93,1.44,1,2.88,2,4.33,2.95s1.72,1.15,1.92,2.73c1.47.69,1.06-1.7,1.05-2.37,0-4.1.3-8.23-.79-12.24-.46-1.66-1.68-4.58-3.13-5.71a1.78,1.78,0,0,1-1.87-.78l-1.35-2c-1.75-2.94-1.95-6-1.93-9.31a18.78,18.78,0,0,0-1.29-7.85c-1.23-2.78-3.43-4.82-5.55-6.88-1.72-1.67-3.85-2.93-4.64-5.25a21.67,21.67,0,0,0-2.13-4.64c-2.69-4.31-6.49-7-10.67-9.7-1.35-.86-3.13-1.64-4.43-2.63-2.09-1.58-4.09-3.4-6.22-5s-4.29-3.25-6.61-4.71a26.91,26.91,0,0,1-4-3.1c-.61-.58-1.41-1.16-.93-2.18.39-.8.85-.57,1.74-.56a16.59,16.59,0,0,1,9.65,2.64c2.61,1.74,2.35,6.43,5.33,7.32,1.12.34,2.26-.54,3.29-.55,2.17,0,3.77,1.59,5.54,2.81,2.83,2,5.52,4.18,8.61,5.66,7.72,3.68,14.92,8.2,22.51,12.1a16.82,16.82,0,0,0,3.65,1.55c1.93.5,3.11,1.67,4.67,2.83,1.87,1.39,4,2.37,6.37,1.67a10.68,10.68,0,0,0-2-1.5c-2.43-1.74-4.6-3.81-6.86-5.78-3.81-3.33-7.78-6.65-11.76-9.76a22.14,22.14,0,0,1-4.83-4.64,32.41,32.41,0,0,0-1.61-2.83,16.13,16.13,0,0,0-3.33-2.19,32.49,32.49,0,0,1-8.67-7.39,16.3,16.3,0,0,1-2.87-6c-.25-1.5.07-3-.29-4.57-.43-1.85-.84-3.8-1.42-5.58-.23-.7-.47-1.3-.66-1.89-2.1,0-4.23.3-5.7.33-2.7.05-2.91.05-4.07-2.08-1.6-2.94-.35-7.28-3.76-9.38-3-1.84-7.89-.89-11.24-.88-8.19,0-16.39.33-24.57-.41-4.11-.38-9.56-1.16-13.66-3-1.08-.48-2.54-1.72-3.78-2-1.53-.36-2.7.24-4.07-.58-.93-.56-1.18-2.39-1.86-3.06-1.57-1.55-3.37-1-5.72-1-3.55,0-7.26-.48-10.63.6-6.68,2.13-12.91,7.07-18.95,10.58-4.09,2.39-8.49,4.07-12.69,6.18a22.75,22.75,0,0,1-9,2.86c-3.57.18-7.22-.09-10.8-.11-4.32,0-8.3,1-12.5,2.17-9.46,2.58-18.71,5.28-27.93,8.43-3.13,1.06-5.74,2.91-8.75,4.05-.54.21-1.43-.18-2.1.1-.83.35-1.39,1.4-2.18,1.85s-1.47-.11-2.12.15a18.09,18.09,0,0,0-4.75,3.21,3.51,3.51,0,0,1-1,1.31,8,8,0,0,1-1.61,1l0,0a48.68,48.68,0,0,1-10.5,7,1.25,1.25,0,0,0-.09.38C238,222.21,239.39,222,240.29,222Z"/></g></g><path class="cls-8" d="M466.46,349c-5.39-32.16-22.27-43.89-39.84-46.79-23.11-3.82-42-21.53-52.26-45.91-5.78-13.77-16.74-26.19-36.86-31.48a59,59,0,0,0-28.15-.93c-26.35,5.85-52-7.65-66.76-32.83-11.42-19.45-30.65-35.92-62.77-40.76C87.34,136.4,73.87,233.42,73.87,233.42S42,166.14,0,184.61V301c55.29,10.58,126,22.59,203.18,34.22,178.75,26.93,324.72,41.69,326,33C529.75,364.61,506.38,357.74,466.46,349Z"/><path class="cls-9" d="M581.57,368.17c-17.75-6.31-35.8-9.09-54-10.36-12.08-.85-23.82-2.07-35.77-5.4-15.7-4.37-30.32-12.63-45.09-20.78-6.83-3.76-12.11-7.69-19.37-8.25-13.59-1-27.65-.21-40.41-7.94-6.22-3.77-12.05-9.63-17.64-14.77-1.82-1.68-3.47-4-5.36-5.51s-4.33-1.65-6.42-1.49c-3.14.24-5.43,3-8.48,3.55a16.56,16.56,0,0,1-4.43-.26c-1.79-.2-3.59-.31-5.39-.45-7.88-.62-16.43-.4-23-7.36-1.29-1.37-1.54-2.08-3.32-2.51-3.19-.78-6.81-.49-10-.75l-22-1.83a9.36,9.36,0,0,1-2.9-.43c-2.5-.93-5.44-3-7.76-4.33-4.64-2.6-9.28-5.17-13.9-7.84-7.53-4.36-15.39-8.58-21.51-15.77-1.62-1.89-3-4.37-4.7-6.1-3.7-3.69-8.29-6.66-12.36-9.66-3.42-2.52-7.09-4.9-10.32-7.79a21.4,21.4,0,0,0-3.2-2.19c-4-2.65-2.06-8.16-2.81-12.34-1.68-1.36-6.7,1.86-8.15,2.13a26.91,26.91,0,0,1-9.78-.34c-5.68-1.2-10.32-8.62-14.47-13.13-3.29-3.58-6.6-8.22-10.74-10.09-2.94-1.33-5.93-1-9-2-8.08-2.63-21.41-7.11-24.35-18.72-4.93-.93-9.64-3.17-14.36-5.26-7.71-3.42-15.92-9.52-24.09-10.26-4-.37-8,2.39-11.69,3.59-8.38,2.73-16.57,4.69-25.38,3.38-1.89-.28-3.41-1.31-5.35-1.55-2.31-.29-4.68-.65-6.82,0-4.75,1.39-9.16,5.85-13.29,8.75A88.45,88.45,0,0,1,1.54,185.22L0,185.74V500H619.31V380.93c-4.75-1.55-9.51-3.09-14.25-4.73C597.24,373.49,589.37,371,581.57,368.17Z"/><path class="cls-8" d="M708.9,317.44q-9.43,1.14-20.58,2.68c.46-14.86-3.09-45.34-35.81-67.06-44.78-29.73-77.25,40.61-77.25,40.61s-15.26-83-100.34-66.23c-29.55,5.82-46.84,21-56.83,38.36-12.94,22.46-36.24,35.42-60.76,31.72a58.57,58.57,0,0,0-26,2.24c-18.44,5.6-28.21,16.86-33.15,29-8.75,21.55-25.73,37.79-47,42.26-16.15,3.4-31.42,14.38-35.47,42.39-36.64,9.55-58,16.67-57.46,19.7,1.47,7.46,136-12.74,300.41-45.11,107.66-21.19,201.45-42.34,253-56.52Z"/><path class="cls-10" d="M750,178.35a2.06,2.06,0,0,1-.84-.24,2.77,2.77,0,0,0-1.13-1.27c-4.1-3.36-5.37-8.43-7.89-12.74q-3.69-5.43-6.95-11.07a24.71,24.71,0,0,0-1.83-4.47c-1-.73-2-1.48-3-2.24a40.7,40.7,0,0,1-6.59-8.45c-5.1-7.06-11.16-13.52-14.88-21.28-2.7,2.34-3.25,8.74-4.58,12-1,2.38-2,5.29-4.14,6.95s-3,1.85-5.2,3.9-4.16,4.49-6.55,6.32C681,150,674.51,152.9,669.93,158c-1.24-1.4-1.25-3.25-1.51-4.93a63.94,63.94,0,0,0-2.3-11.28c-2.14-.47-2.91,1.63-3.77,2.91-1.39,2.08-3.49,3.64-4.91,5.7-.35.51.06,1.43-.23,2-1.35,2.57-4.22,5-6.15,7.29a30.47,30.47,0,0,0-4.84,7.53c-2.38,4.89-5.61,9.78-8.42,14.51-1.6,2.69-2.74,2.4-6,2.19-3-.2-5.95-1.3-9-1.22-3.89.09-2.93,2.36-4.41,5.5-2.3,4.84-3.34,10.18-4,15.56-.5,4-1.33,6-4.83,8.48a72.66,72.66,0,0,0-12.22,10.86c-1.91,2.16-4.75,3.39-6.5,5.61-1.35,1.71-2.13,3.58-3.74,5.17-1.17,1.16-2.24,2.07-3.31,3.32-4,4.74-9,7.86-14.21,11.51-3.25,2.26-6.32,4.71-9.43,7.12-1.32,1-3.76,3.73-5.61,4.15-.49-3.52-.08-7.23,0-10.77s.89-6.38-3.78-6c-6.43.52-12.18,6.35-17.45,9.15a28.19,28.19,0,0,0-4.71,3.52c-2.63,2.07-6.2,2.75-9.29,4.19-5,2.33-9.15,5.58-13.76,8.4-3.37,2.05-7.29,3.13-9.94,6a32.52,32.52,0,0,0-6.22,8.46c-.9,2-1.42,4-3.28,5.63-7.74,6.63-24.22,6.52-33.72,8.43-8.34,1.68-17.1,2.82-24.58,6.39-6.28,3-12,6.79-19.08,8.16a53.45,53.45,0,0,0-8.36,1.95,42.54,42.54,0,0,1-5.51,2.1c-2.73.54-3.08.23-5.2,1.16a53.79,53.79,0,0,0-9.74,5.73c-4.25,3.05-9.2,4.86-13.73,7.5a48.91,48.91,0,0,1-7,3.66c-3.46,1.3-7.17.57-10.5,2.05-3.58,1.6-7.38,4.34-10.93,6.18-16,8.26-31.86,16.13-49.56,21.22-6.83,2-14.46,5.23-21.62,6.14-2.46.32-4.47-.21-6.82-.05-2.54.17-4.84,1.35-7.24,2-7.19,1.8-14.84,2.21-22.13,3.34a228.34,228.34,0,0,0-28.86,6.24c-21.29,6.14-42.25,14.51-62.9,22.38H750Z"/><path class="cls-11" d="M431.7,321.21c1.39.08,3.86-1.46,5.09-2.19,1.51-.89,2.61-3,4.2-3.59,1.1-.44,2.56-.12,3.72-.12a35.58,35.58,0,0,0,9.83-1.7c2.94-.83,8-1.26,10-3.66,1.52-1.81,1.32-4.34,2.54-6.19,1.48-2.24,2.91-.27,4.81.6a11.1,11.1,0,0,0,4.83.85c5.1.06,10-3.4,14.43-5.91,1.66-.95,2.21-2.89,3.75-4.05a31.79,31.79,0,0,1,4.31-2.3,89.11,89.11,0,0,0,8.72-5.54c6.3-4.28,12.1-7.65,16.16-13.89,1.36-2.08,2.64-3.66,5.08-4.47,1.77-.58,3.6-1.44,5.36-1.91.83,3-.84,6.74.07,9.68.6,1.95,1.54,1.34,3.43,1.34,1.66,0,2.67-.61,4.22-.88s2.85.22,4.27-.09c6.79-1.5,11.28-6.81,16.77-10,1.93-1.12,4.42-1.44,6.52-2.22,7-2.61,13.16-7.75,19.43-11.65,1.37-.86,3.66-1.71,4.66-3,.59-.78.71-1.7,1.24-2.52.73-1.13,1.85-1.56,2.81-2.47,1.23-1.17,2.06-2.66,3.42-3.79,2.3-1.91,5.08-3.29,7.28-5.32a22.26,22.26,0,0,0,4.09-5.62c1.09-1.91,1.14-3.49,1.67-5.55.45-1.76-.18-4.52.92-5.92,1.72-2.19,4,.18,5.77-.83,1.5-.84,1.22-4.28,1.27-5.83a33.61,33.61,0,0,1,1.37-7.69c.37-1.42.14-2.8.5-4.17,1.78-.48,2.61-.09,4.42-.91,3.41-1.55,7.43-.87,11.09-.84s4.55.68,6-2.5a13.51,13.51,0,0,0,1.16-6.53c0-1.07-.42-3.66-.13-4.8.37-1.46,1.45-1.73,2.87-2.41a28.52,28.52,0,0,1,7.8-2.37c1.89-.34,4-.39,5.68-1.44a11.45,11.45,0,0,0,3.12-3.16c1.84-2.62,3.14-5.69,5.06-8.38,1.51-2.13,3-4.25,4.7-6.24,1-1.15,2.39-3.47,3.78-4.11,3.05-1.4,7.09.47,10.32-.23,1.66-.35,2-1.38,2.94-2.61,1.65-2.17,2.55-3.48,4.92-4.17,1.35-.4,2.39-1.49,3.77-1.77,2.43-.49,3,.77,1.83,2.54-1,1.38-2.43,2.43-3.39,3.9-1.18,1.8-2,3.76-3.28,5.51a17,17,0,0,0-2.43,3.37c-.49,1.25-.08,2.06-.42,3.21-3.15.71-7.24-1.11-9.9,1.24-2.33,2.06-3.21,6.2-4.7,9-1.57,2.93-3.48,5.75-6.23,7.52-6.43,4.13-12.17,8.19-12.81,16.13-.62,7.76-2.25,15.36-3.18,23.11-.35,3-.71,5.93-1,8.91a4.79,4.79,0,0,1-1.44,3.32c2.72,1,7.9-.67,9.11,3.45.84,2.85-.41,7.12-.91,9.85a115.74,115.74,0,0,1-3.3,14.44c-1.09,3.32-2.63,6.4-4,9.59-.84,1.9-1.28,4.13-2.39,5.88-2.72,4.3-8.46,6.69-12.4,9.72-1.56,1.19-3.74,2.47-5,4-.88,1.13-.94,2.17-1.53,3.44,1.8-1.43.25-5,.84-7,1.38-.25,1.63,0,2.43-.93s.92-2.87,1.44-4.09c.63-1.48,1.68-2.39,1.95-4,.41-2.33,0-5.21,0-7.59,0-1.9-.16-2.87,1.23-4.25,1.21-1.19,2.74-1.62,3.88-2.93,2.67-3.09.17-8.26,3.31-10.84.76-.62,2.4.15,1.6-1.61a14.75,14.75,0,0,0-3.26-2.57c-1.4-.77-2.37-1-3.44-2.54-.94-1.31-.79-2.06-.78-4,0-1.34-.1-2.7-.07-4,.08-2.76,1.69-5,1.79-7.67.15-3.76-.22-7.54,0-11.3-.48,1.35-1.21,2.82-1.76,4.11-.67,1.61-1.84,2.81-2.76,4.39a49.75,49.75,0,0,1-2.7,4.37c-1.25,1.75-1.84,3.91-3.11,5.61a10.55,10.55,0,0,1-3.14,2.54,3.34,3.34,0,0,0-1.15,1.48c-.95.54-2.11-.11-3.11,0-4.08.67-7.24,4.22-10.1,6.84a61.3,61.3,0,0,1-13.17,8.86,30,30,0,0,0-8.27,5.55c-3.22,3.27-4.57,6.91-6.31,11-4,9.43-11.52,17.47-19.49,23.64-2.43,1.89-3.39,1.35-6.28,2.15a17.37,17.37,0,0,0-5.15,2.73c1.08-2.17-5.26-1.72-6-1.7a32.34,32.34,0,0,0-7.56,1.38c-1.9.51-2.72.1-4.62.29s-3.34,1.19-5.06,1.59a35.43,35.43,0,0,0-4.22,1c-2.74,1-5.5,1.54-8.26,2.64-4.38,1.74-8.56,4.43-13.27,5a24.72,24.72,0,0,1,4.81-10l2-2.1a4.17,4.17,0,0,0,1.17-3.43c.78-2.1,2.14-4.91,2.26-7-4,1.06-7.67,4.07-11.2,6a50.69,50.69,0,0,1-14.62,5.65c-.58,2.51-3.85,4-5.95,4.95s-4.28,2.4-6.44,3.59c-5.64,3.1-11.95,5.81-18.45,6.45-4.66.46-9.55.06-14.24.07C445.42,318.68,442.18,319.53,431.7,321.21Z"/><path class="cls-8" d="M749.51,384.19c-5.06-.34-10.6-.66-16.58-1,2.66-10.5,4.58-32.64-17.77-52.65-30.59-27.38-67,18.05-67,18.05s.84-61.08-68.6-61.08c-24.12,0-40.06,8.37-50.59,19.3-13.64,14.15-33.95,20.09-52.65,14a51.65,51.65,0,0,0-20.77-2c-15.36,1.39-24.78,8-30.54,16-10.21,14.09-26.07,23.25-43.46,23.45-13.21.16-26.91,5.83-34.42,25.15-30.27,1.67-48.19,3.73-48.19,6,0,5.51,108.8,10,243,10,87.87,0,164.84-1.91,207.53-4.78Z"/><path class="cls-12" d="M681.8,307.7c-2.5,1.51-10.88,8.53-15.47,8.58-1.43,0-2.87,0-4.31,0-3.51,0-5.26.29-8.15,2.36A4.68,4.68,0,0,1,652,320a4.25,4.25,0,0,1-1.91.05c-1.52.34-2.74,1.4-4.27,1.83a13.32,13.32,0,0,1-5.22.61c-2.07-.22-3.76-1.46-5.86-1.68-2.58-.26-5.43.15-8,.08-3.13-.1-2.76.75-5.18,2.84-5.8,5-12.93,8.51-19.09,13a37.65,37.65,0,0,1-4,2.9q-4.65,3.18-9.34,6.34-9.43,6.38-18.49,13.15A184.42,184.42,0,0,1,554,371.5a56.05,56.05,0,0,1-9.47,4.18,16.79,16.79,0,0,1-4.18,3c-1.88.83-3.4.69-5.4.72a30.86,30.86,0,0,1-9.11-1.32c-3.09-.85-5.16-2.22-8-3.4a17.21,17.21,0,0,0-11.59.06c-1.72.64-3.29.73-4.89,1.49-2.08,1-4.25,2.49-6.54,3.05-3.05.74-6.45,1-9.55,1.62-5.72,1.17-10,3.51-15.23,5.64q-6.48,2.21-12.86,4.67a47.34,47.34,0,0,1-7.64,2.95,8.85,8.85,0,0,0-3.61.41q-5.82,2.09-11.51,4.4c-5.26,1.82-12.35,4.07-18.17,3.06-1.65-.29-2.15-.21-3.2-1.7-3-4.29-1.34-10.49-1.71-15.27-2.69-.65-5-2.27-7.48-3.43-3.07-1.47-4.66-4.43-7.56-6-2.29-1.22-2.65-.92-3.38-3.61q-1.26-5.06-2.2-10.15.62-2.76-1.59-3.78c-5.9,5.73-11.24,11.76-20.17,13.38-5.22.95-11.71.19-16.94.2a78.06,78.06,0,0,1-19.33-2.11c-2-.49-1.87.1-3.6-.07a24.29,24.29,0,0,1-5.41-4.26,44.74,44.74,0,0,1-6.66-7c-1.34-1.81-2.32-3.56-4.26-4.89-7.8-5.31-12.94-12.53-18.17-20.06-1.54-2.23-2.91-4.78-4.57-6.9a15,15,0,0,0-.66-1.41,16.89,16.89,0,0,1-4.28-2.74c-5.66-4.19-9.6-9.83-13.92-15.11-.79-1-1.81-2.77-3.2-3.26a4.06,4.06,0,0,0-2.71.11c-3.34.93-6.35,3.7-9.52,5.16-5.19,2.39-10.46,2.7-16.18,2.43-3-.14-4.34-1.67-7-3.13-4.46-2.47-9.34-3.55-13.89-5.82a67.56,67.56,0,0,0-8.24-3.52c-3.84-1.29-6.48-4.44-9.72-6.7a23.33,23.33,0,0,1-4-2.86,19.76,19.76,0,0,1-1.28-2.23,29.44,29.44,0,0,0-5.76-7.76c-10.16-12.24-22-23.48-32.58-35.41-3.86-4.34-7.45-9.47-12.15-13.09-2.73,1.62-4.63,4.58-8.16,5-.67.08-2.84.21-3.43-.15-1-.62-2.31-4.16-2.6-5.16-1-3.52-1.25-9.29-4.46-11.8-.3-.23-2.14-1.38-2.47-1.52-2.3-.93-5,.6-7.33-.86-.45-.52-.91-1-1.38-1.51a45.91,45.91,0,0,1-4.79-3,39.7,39.7,0,0,1-6.72-6.41,12.64,12.64,0,0,0-3.93-4.11,3.23,3.23,0,0,0-3.48,1Q88.25,209,80,215.3c-9.48,7.12-20.19,13.17-29.44,20.5-2.48,2-4.29,1.86-7.39,1.76-2.11-.06-5.18,0-7.12-.74-1.38-.51-1.83-1.91-2.61-3A14,14,0,0,0,27.25,229c-3.37-1.51-5.31,0-8.11,2.27A50.5,50.5,0,0,1,15,234.92c-1.06.59-2.14,1.13-3.26,1.62a42.38,42.38,0,0,0-3.56,3.53C4.51,243.4,2.59,248,0,252.17V500H750V277.42c-3.49,1.31-7,2.6-10.46,3.93A337.56,337.56,0,0,0,681.8,307.7Z"/><rect class="cls-13" x="705.7" y="269.34" width="5.4" height="37.17" rx="2.27" ry="2.27" transform="translate(-29.55 87.53) rotate(-6.93)"/><path class="cls-14" d="M713.9,280.31l-2.64.08-2.92.1a5.17,5.17,0,0,0-1.18,0c-.6.17-.58.72-1,1.2a3.56,3.56,0,0,1-2.08,1.47c-1,.14-2.08-.1-3.07.06-.82.13-1.42.83-2.23,1-1.33.24-2.9-.87-4-1.33a6.27,6.27,0,0,0-2.8-.75c-.75.05-1,.4-1.57.81-.86.59-2,.13-2.67.66s-1.06,1.62-2.21,1.54-1.92-.73-3-.74c-.46,0-.92.12-1.37.12a10.63,10.63,0,0,1-3.19-.72s-2.13-.62-2.28-1.08c1-.28,1.81-.76,1.83-1.81a16.3,16.3,0,0,0-.38-2.52c0-.34-.14-.9.15-1.1s.68-.05,1-.34c1.07-.91.13-2.82.37-4,.11-.57.46-.67.82-1.06-.78-6,3.52-12.88,6.27-20.76a9.94,9.94,0,0,0,.37-2,8.82,8.82,0,0,0-.12-2.16,9.52,9.52,0,0,1-1.3-2.41c-2.52-7.16,6.29-13.63,4.85-20.54.39-.7.76-1.4,1.12-2.1,1.42-2.77,2.53-5.43,2.63-8,.2-.58.4-1.17.61-1.75.4-1.16.8-2.33,1.14-3.52a6.3,6.3,0,0,0,0-2.8c-.25-1.19-.27-2.36-.47-3.56a7,7,0,0,1-.22-1.93c.07-.59.44-.86.72-1.35a16.51,16.51,0,0,0,1.49-3.58c.11-.41.1-1.86.67-1.93,1.36-.17,1.69,3.73,1.83,4.44a10.35,10.35,0,0,0,1.87,4.76,4.83,4.83,0,0,1,.87,1.16,8.27,8.27,0,0,1,.06,2.17,14.24,14.24,0,0,0,.71,3.37,3.53,3.53,0,0,0,.26,1,7.06,7.06,0,0,0,1.5,1.93,1.94,1.94,0,0,1,.75,1.15,24.35,24.35,0,0,0,2,5.89,29.82,29.82,0,0,0,2.48,3.21c.32.42.74.83,1,1.26.39.58.22.57.48,1.33s.92,1.17,1.46,1.73a8.43,8.43,0,0,1,.92,1.73c1.24,2.06,2.35,3.72,2.72,6.19.23,1.61.13,3.24.36,4.84a12,12,0,0,0,2.18,4.93,20.49,20.49,0,0,1,2.24,3.06c.1.24.13.55.21.8a5.92,5.92,0,0,0,1.32,2.12c.68.8,1.44,1.59,2.09,2.4a9.82,9.82,0,0,1,.93,2.29c.67,1.57,1.62,3,2.26,4.6a32.52,32.52,0,0,1,1.36,5,19,19,0,0,1,.45,3.9,7,7,0,0,0,.08,1.45A10.08,10.08,0,0,0,732,274a3.44,3.44,0,0,1,.7,2c-.12.55-.84.54-1.33.71-.76.25-1,.39-.91,1.19a16.16,16.16,0,0,0,.15,2c-1.11,1.1-2.92.92-4.34,1l-3.58.11a20.06,20.06,0,0,1-5.62-.54,3.7,3.7,0,0,0-1.84,0C714.78,280.46,714.4,280.78,713.9,280.31Z"/><path class="cls-11" d="M26.86,238.59c3.3-.74,7.91,3.72,10.19,5.65,1.83,1.56,3.49,5.36,5.73,6.21,1.84.69,4.47-.37,6.44,0,1.7.34,1.23,1,3,.24a17.83,17.83,0,0,0,3.68-3.58,61.65,61.65,0,0,1,5-4.67,29.08,29.08,0,0,1,6.89-3.8,62.69,62.69,0,0,0,10.54-5.94c4.14-2.94,8.54-5,13.06-7.52,1.5-.84,4-1.59,5.29-2.7.92-.81.7-1.5,1.43-2.46,4.08-.3,2.45,10.21,5.21,12.21,3,2.18,5.38-4.06,8.68-2.86.45,2.31,1.06,3.1,3,4.43s3.63,2,4.66,3.85c.88,1.56,1,3.63,2.5,4.95.6.54,1.45.85,2.08,1.45,1.27,1.21,2.3,2.61,3.64,3.79,2.45,2.16,4,5.22,7.41,3.74,4-1.74,5-1.8,9.05,1.11,3.36,2.42,7,4.6,10.33,7a8.45,8.45,0,0,1,1.39,1.24c4.52,4.72,6,11.72,9.72,17,3.28,4.67,8.77,7.2,11.71,12.2,2,3.33,3.81,7.11,6.4,10,1.06,1.19,1.94,1.28,3.24,1.88,3.19,1.47,5.3,4.53,8.42,6.18,2.57,1.35,5,.83,7.53,2,4.61,2.12,8.7,5.67,13.47,7.44,2.24.83,2.89,1.52,4.41,3.69,3.33,4.76,6,10,9,15,.63,1.05,3.77,7.57,5.23,7.09-.87-.37-1.81,0-2.73-.17-2-.29-3-1.1-4.51-2.62-2.23-2.25-3.56-5.27-5.68-7.48-1.51-1.58-4.91-3-6.84-4a15.89,15.89,0,0,0-7-2c-6.11-.11-11.8,2.45-17.62,4-1.71.44-3.77.79-5.08-.54-1-1.07-1.32-3-1.86-4.34-.46-1.12-.52-2.43-1-3.48-.65-1.62-2-2.78-3.16-4.06a32.74,32.74,0,0,0-5.72-4.93,44.86,44.86,0,0,1-4.8-4.22c-1.26-1.26-2-3-3.12-4.24s-2.8-1.62-3.79-3.1-1.1-3.54-1.68-5.3c-1.48-4.44-3.86-8.55-5.77-12.81-.91-2-2.38-8.8-5.61-7.47-2.06.85-2.49,2.25-5,2.44-9.49.7-16-8.71-24.51-11.41,2,3,3.42,6.21,5.85,8.84a4.41,4.41,0,0,0,2.58,1.8c.5.08,1.27-.34,1.74-.14,1.48.62.51,3.09,1.1,4.53.81,2,2.52,2.23,3.9,3.41,2.36,2,3.15,4,3.8,6.87,1.58,7,.42,14.95.42,22.08,0,4.45,0,8.89,0,13.34,0,1.37-.37,3.64.19,5,1.07-1.65.69-4,.67-5.85,0-2.16,0-2.55-1.71-3.78-2.33-1.63-2.8-4.8-5-5.9-1.74-.87-2.44-.23-2.6-2.48-.23-3.22.09-6.32-.76-9.54s-1-3.16-3.46-4c-1.18-.39-1.86-1.53-2.77-2.42-2.7-2.62-6.07-4.35-9.17-6.42s-5.36-4.9-8.27-7.19c-1.49-1.17-3.45-2.54-4.35-4.23-.7-1.33-.48-2.64-.9-4-.56-1.84-1.56-4-2.28-5.82a38.89,38.89,0,0,0-4.12-7.75c-1.84,3.95-4-1.36-5.07-3.22-1.48-2.66-3.09-5.22-4.76-7.75-.5-.74-1.63-3.09-2.56-3.47-1.78-.75-6.67,1.7-8.13,2.41a54.91,54.91,0,0,1-9.66,3.92c-1.75.47-5.41,1-6.41,2.76,1.48.51,1.12,3,1,4.24-3.16.59-6.5.27-9.72.78a8.23,8.23,0,0,1-3.56.19c-2.42-.85-3.21-4.8-5.34-6.28-1.48-1-3.2-1.16-4.68-2.16a8.26,8.26,0,0,1-1.8-1.79c-1.22-1.55-2.56-3.82-3.65-5.56A18.07,18.07,0,0,1,26.86,238.59Z"/><path class="cls-11" d="M439.55,415c4.11.61,9.78-2.81,13.39-4.22a269.67,269.67,0,0,1,29-9.93,213.13,213.13,0,0,0,20.64-6.4c3-1.14,5.92-1.36,8.9-2.47,2.1-.78,5-1.21,6.89.2,1.25.91,2.38,2.94,3.81,3.47,1.93.72,5.53-.06,7.66-.06,1.91,0,3.91.18,5.81.07,2.49-.15,4.3-1.78,6.67-2.44,1.95-.54,3.93-1.37,5.81-1.8,2.87-.67,6.19,0,9.16-.53s6.27-.88,9.1-2.21c5-2.36,8.81-6.6,13.67-9.17a26.14,26.14,0,0,0,3.36-1.64c2.09-1.51,4.27-3.1,6.31-4.7,8.88-7,16.91-15.11,26.27-21.52,1-.68,2.54-1.09,3.35-2,.66-.77.61-1.67,1.39-2.23a39.12,39.12,0,0,1,4.42.09h6.33c2.45,0,6.71.89,9-.14.77-.34,1.58-1.12,2.34-1.51a41.75,41.75,0,0,0,4.52-2.8c6.3-4.28,13.68-4.58,21.26-4.8,2.82-.08,6.7.89,9.26-.41,1.83-.94,3.46-3.57,4.58-5.22,2.82-4.17,6.94-7.33,11.23-9.88,4.88-2.91,10.45-3.75,15.79-5.51,1.63-.53,3.15-.6,4.68-1,2-.51,3.92-1.88,5.67-2.94,3-1.81,5.64-4,8.48-6,1.2-.85,2.63-2.27,4.23-2.25q1.18,1.72-1.05,3.45a39,39,0,0,0-4.09,9.9q-1.2,4.95-2.35,9.9a3.21,3.21,0,0,0-.19,3.2c3.14.18,5.68.13,5.85,4,.11,2.58,0,5.22,0,7.8,0,4.91.85,10.46-.27,15.27-.45,1.48-.91,3-1.37,4.43a12.45,12.45,0,0,1-2.52,4.33c-.49,2-.15,3.46-1,5.6-1,2.53-3.94,5.85-3.31,8.81.11-2.92,0-5.9,0-8.82,0-1.62.47-5,.06-6.82-.72-3.34-2.8-3.59-5.77-3.41-2.13.12-2.94.4-2.87-2.42,0-2.44,1.42-3.18,1.92-5.25.69-2.88-.28-6.85-1.08-9.63-1.19-4.17-6.22-1.86-8.69-.21-4.09,2.72-7.74,6.66-12.84,7.27-1,.11-1.8,0-2.77.1-1.87.1-2.77,1.09-4.52,1.54-1.67.14-3.35.25-5,.33a23.71,23.71,0,0,0-4.53,1.38c-2.92.67-5.22-.14-8,1.27a158.1,158.1,0,0,0-14.29,8.21c-2.54,1.62-5.44,4.09-8.33,4.94-1.56.46-2.12-.11-2.63,1.74-.29,1.07.06,3,.06,4.07,0,4.89,1.08,10.64-1.48,15.06-.93,1.6-1,.85-2.66,1.62-1.94.91-3.72,4-5.08,5.39-2.45,2.59-5.69,4.85-7.54,7.92a23.21,23.21,0,0,1-1.81,3.09,16.37,16.37,0,0,1-1.59,1.82,54.72,54.72,0,0,1-8.14,5.77c-2.42,1.56-4.85,3.79-7.64,4.65a18.8,18.8,0,0,0-4.07,1.28c-4.19,2.29-8,5-12.45,6.83-1.82.74-4.33,2.26-6.37,1.52,5.1-3.15,11.17-5.2,14.57-10.46.79-1.22.84-2.41,1.41-3.62a29.4,29.4,0,0,1,3.27-4.92c1.12-1.48,2.42-4.6,3.92-5.75s2.42.21,3.66-.62c.91-.61,1.2-2.35,2.08-3.25,1.66-1.71,2.89-2.29,4-4.37,1.86-3.59,1.5-6.9,1.49-10.86,0-1.23-.23-2.63-.13-3.84.13-1.54,1.09-2.86,1.76-4.19a40.63,40.63,0,0,0,2.61-6.72,39.5,39.5,0,0,1,2.38-6.56,6.34,6.34,0,0,0,1.07-2.37c0-1.47-.21-1.5-1.45-1.64-2.23-.25-4.79,3-6,4.52-2.75,3.44-4.8,7.35-7.08,11.07s-7.31,5.39-11,7.4c-3.41,1.84-6.71,4.36-10.35,5.65-2.49.88-4.21,1.46-6.3,3.37a53.67,53.67,0,0,1-11.47,8.46c-1.29.66-2.75,1.3-4.1,2a29.57,29.57,0,0,1-5,1.65c-2,.61-3.7,1.82-5.64,2.63a47.1,47.1,0,0,1-17.83,3.09c-3.08-.06-6.38.42-9.4-.15a9.9,9.9,0,0,1-5.27-2.7c-1-.93-1.56-2-3-2.28-.59-.11-1.3.27-1.9.16-1.13-.2-1.35-1-2.33-1.4-2.14-1-5.09-.49-7.43-.48-7.77.06-14.6,4.59-22,6.41-2.14.52-4.33.89-6.5,1.32-3,.58-6,.38-8.88.79-1.92.26-3,1.57-4.92,1.77-2.64.29-5.5-.08-8.17-.05-1.8,0-3.71,0-5.28-1-1.35-.93-.95-1.45-2.86-1.52C450.4,412.38,448.76,412.45,439.55,415Z"/><path class="cls-8" d="M557.13,470.6c-27.39-2.21-53.61-11.84-77.12-26.78-11.7-7.44-25.44-10.22-38.95-10.45-29.31-.52-57.67-11.71-78.91-32.91-10.28-10.27-26.72-18.71-52.93-20.53a134,134,0,0,0-18-.09c-44.83,2.94-89.37-7.25-129.89-27.61-17.55-8.82-40.77-14.7-71.48-14.7-43.94,0-72,10.59-89.85,24.19V488.08c48.46.59,101.19.92,156.36.92,237.43,0,429.91-6.05,429.91-13.5C586.27,473.77,576,472.12,557.13,470.6Z"/><path class="cls-8" d="M750,305.49a232.07,232.07,0,0,0-28.12,7.5c-29.15,9.68-49.33,22.57-63.21,36.47-32,32.08-71.1,55.79-114.57,67.13A133,133,0,0,0,527,422.34c-24.29,10-37.23,23.17-43.76,36.16a111.9,111.9,0,0,1-36,41.5H638.7q33.1-10.8,67.78-22.3,22.07-7.33,43.52-14.53Z"/><path class="cls-15" d="M750,406.9c-10.75,0-21.5,0-32.25,0-2.85,0-6.65-.7-9.36,0-2.25.6-4.53,2.85-6.4,4.1-3.2,2.13-6.49,4.15-9.78,6.13-3,1.81-5.94,4.28-9,5.86-2.1,1.08-4.67.9-6.89,1.32-1.85.35-2.83,1.32-4.54,2-2.09.81-2.69.36-4.51,2s-2.52,3.82-3.85,5.67a45.86,45.86,0,0,1-13.23,12.51c-3.5,2.06-6.65,1.76-10.42,1.82a25.16,25.16,0,0,1-3.89-.19c-7.23-1-14-2.1-21.36-2.1-5.69,0-11.7-.73-17.07,1.19-3.14,1.12-6.12,1.15-9.46,1.66-6.82,1.05-13.25,3.83-20.09,4.78-1.42.19-2.91-.21-4.24,0-3.48.42-5.25,2.9-7.79,5.17a52.89,52.89,0,0,1-19.76,10.79c-4.8,1.49-9.83,3.73-14.91,3.9-2.44.08-6,.6-8.22-.53-2-1-2.85-2.44-5.1-2.86-4.51-.86-9.22-1.47-13.79-1.91-8.49-.84-17.08-1.17-25.61-1.32-2.86-.06-4.63.06-7-1.5-3.15-2.08-5-5.67-7.29-8.76-1.62-2.23-3.21-4.39-5-6.52-.47-.56-1.46-2.29-2.1-2.66-2.5-1.44-8.49-.2-11.1-.19-9.46,0-18.93-.06-28.4,0-4.18,0-8-.38-11.65-2.6s-6.34-5.33-10.07-7.14c-5.68-2.76-11.68-2.24-17.77-2.33a96,96,0,0,0-28.56,3.36c-8.85,2.54-17.15,7.05-26.12,9.11-2.39.55-5.42,1.25-7.94.69-2.88-.65-4.74-3-6.91-4.88a65.7,65.7,0,0,0-11.95-8c-5.68-3-14.73-1.48-21-1.31a42.12,42.12,0,0,1-7.08-.41c-8.34-1.16-17.28-1.95-25.41-4.17a40.78,40.78,0,0,1-17-8.82c-1.63-1.44-1.89-2-4-1.82-4.34.43-8.57,1.81-13,2.14-6.41.48-12.94,2-19.35,2.18-2.43.07-2.19,0-3.12-2.19-1.86-4.4-4.56-7.34-7.21-11.21-1.79-2.63-2.27-5.75-3.67-8.55-2.51-5-9.12-6.82-14.09-8.73-9.91-3.79-19.76-7.93-29.6-11.95a54.27,54.27,0,0,0-21.82-4.23c-2.9,0-6.14-.42-9,0-1.4.19-2.57.75-4,1-4.07.83-9.41.41-13.56.14-3.34-.22-6.6-1.45-9.79-2.42A147.28,147.28,0,0,0,44,370.19c-3.62-.57-11,1-14-1.52-3.43-2.89-5-8.19-7.37-11.86a33.79,33.79,0,0,0-14.57-13c-2.48-1.2-5.21-2.76-8.07-4.3V500H750Z"/></g></svg>