<svg xmlns="http://www.w3.org/2000/svg" xmlns:xlink="http://www.w3.org/1999/xlink" viewBox="0 0 783.12 551.16"><defs><style>.cls-1,.cls-44{fill:none;}.cls-2{isolation:isolate;}.cls-3{opacity:0.8;}.cls-4{fill:url(#linear-gradient);}.cls-5{fill:#ffffe9;}.cls-6{clip-path:url(#clip-path);}.cls-7{fill:#fff9de;}.cls-12,.cls-18,.cls-33,.cls-35,.cls-8{opacity:0.3;}.cls-8{fill:url(#linear-gradient-2);}.cls-10,.cls-26,.cls-9{opacity:0.4;}.cls-10{fill:url(#linear-gradient-3);}.cls-11{fill:url(#linear-gradient-4);}.cls-12{fill:url(#linear-gradient-5);}.cls-13{fill:#b0d6d2;}.cls-14{fill:url(#linear-gradient-6);}.cls-15{fill:url(#linear-gradient-7);}.cls-16{fill:url(#linear-gradient-8);}.cls-17,.cls-27,.cls-39{opacity:0.5;}.cls-17,.cls-18,.cls-19,.cls-26,.cls-27,.cls-33,.cls-35,.cls-39{mix-blend-mode:overlay;}.cls-17{fill:url(#radial-gradient);}.cls-18{fill:url(#radial-gradient-2);}.cls-19{opacity:0.6;fill:url(#radial-gradient-3);}.cls-20{fill:url(#linear-gradient-9);}.cls-21{fill:url(#linear-gradient-10);}.cls-22{fill:url(#linear-gradient-11);}.cls-23{fill:url(#linear-gradient-12);}.cls-24{fill:url(#linear-gradient-13);}.cls-25{fill:url(#linear-gradient-14);}.cls-26{fill:url(#radial-gradient-4);}.cls-27{fill:url(#radial-gradient-5);}.cls-28{fill:url(#linear-gradient-15);}.cls-29{fill:url(#linear-gradient-16);}.cls-30{fill:#508e83;}.cls-31{fill:#76a396;}.cls-32{fill:#4f8472;}.cls-33{fill:url(#radial-gradient-6);}.cls-34{fill:#447f6b;}.cls-35{fill:url(#radial-gradient-7);}.cls-36{fill:url(#linear-gradient-17);}.cls-37{fill:url(#linear-gradient-18);}.cls-38{fill:url(#linear-gradient-19);}.cls-39{fill:url(#radial-gradient-8);}.cls-40{fill:url(#linear-gradient-20);}.cls-41{fill:url(#linear-gradient-21);}.cls-42{fill:url(#linear-gradient-22);}.cls-43{fill:#ffffeb;}.cls-44{stroke:#fff;stroke-miterlimit:10;}</style><linearGradient id="linear-gradient" x1="396.05" y1="500" x2="396.05" gradientUnits="userSpaceOnUse"><stop offset="0" stop-color="#fff0f0"/><stop offset="0.02" stop-color="#fff0e9"/><stop offset="0.06" stop-color="#fff0dd"/><stop offset="0.11" stop-color="#fff0d6"/><stop offset="0.25" stop-color="#fff0d4"/><stop offset="0.42" stop-color="#fff0d1"/><stop offset="0.52" stop-color="#fff0c9"/><stop offset="0.57" stop-color="#fff0c2"/><stop offset="0.65" stop-color="#fbeec1"/><stop offset="0.72" stop-color="#efe8bf"/><stop offset="0.8" stop-color="#dbdfbc"/><stop offset="0.88" stop-color="#bfd2b8"/><stop offset="0.96" stop-color="#9cc1b2"/><stop offset="1" stop-color="#83b5ae"/></linearGradient><clipPath id="clip-path" transform="translate(21.05)"><rect class="cls-1" width="750" height="500"/></clipPath><linearGradient id="linear-gradient-2" x1="421.32" y1="416.29" x2="559.34" y2="416.29" gradientUnits="userSpaceOnUse"><stop offset="0" stop-color="#83c1c4"/><stop offset="1" stop-color="#97afaf"/></linearGradient><linearGradient id="linear-gradient-3" x1="368.71" y1="352.49" x2="566.26" y2="352.49" xlink:href="#linear-gradient-2"/><linearGradient id="linear-gradient-4" x1="566.26" y1="344.71" x2="567.5" y2="344.71" xlink:href="#linear-gradient-2"/><linearGradient id="linear-gradient-5" x1="534.36" y1="399.48" x2="796.5" y2="399.48" xlink:href="#linear-gradient-2"/><linearGradient id="linear-gradient-6" x1="375.09" y1="351.64" x2="375.09" y2="185.44" gradientUnits="userSpaceOnUse"><stop offset="0.24" stop-color="#bcd4d4"/><stop offset="0.93" stop-color="#a7caca"/><stop offset="1" stop-color="#a4c9c9"/></linearGradient><linearGradient id="linear-gradient-7" x1="163.53" y1="351.64" x2="163.53" y2="204.72" gradientUnits="userSpaceOnUse"><stop offset="0.24" stop-color="#bcd4d4"/><stop offset="0.58" stop-color="#a7cbcb"/><stop offset="1" stop-color="#86bdbd"/></linearGradient><linearGradient id="linear-gradient-8" x1="389.9" y1="345.54" x2="389.9" y2="185.44" xlink:href="#linear-gradient-7"/><radialGradient id="radial-gradient" cx="594.59" cy="-56.92" r="96.72" gradientTransform="matrix(1.22, 0.55, -0.29, 0.48, -290.57, 3.3)" gradientUnits="userSpaceOnUse"><stop offset="0" stop-color="#fff"/><stop offset="0.08" stop-color="#fff" stop-opacity="0.91"/><stop offset="0.42" stop-color="#fff" stop-opacity="0.53"/><stop offset="0.7" stop-color="#fff" stop-opacity="0.24"/><stop offset="0.9" stop-color="#fff" stop-opacity="0.07"/><stop offset="1" stop-color="#fff" stop-opacity="0"/></radialGradient><radialGradient id="radial-gradient-2" cx="513.75" cy="35.97" r="96.72" xlink:href="#radial-gradient"/><radialGradient id="radial-gradient-3" cx="718.9" cy="-206.91" r="96.72" gradientTransform="matrix(1.22, -0.56, 0.29, 0.48, -178.44, 802.33)" xlink:href="#radial-gradient"/><linearGradient id="linear-gradient-9" x1="432.58" y1="349.02" x2="432.58" y2="253.02" gradientUnits="userSpaceOnUse"><stop offset="0" stop-color="#a4c9c9"/><stop offset="0.5" stop-color="#9ac8c5"/><stop offset="0.99" stop-color="#8bc6c0"/></linearGradient><linearGradient id="linear-gradient-10" x1="363.99" y1="349.02" x2="363.99" y2="253.02" gradientUnits="userSpaceOnUse"><stop offset="0" stop-color="#a4c9c9"/><stop offset="0.26" stop-color="#9ac6c6"/><stop offset="0.7" stop-color="#7ebfbe"/><stop offset="0.99" stop-color="#68b9b7"/></linearGradient><linearGradient id="linear-gradient-11" x1="70.37" y1="530.39" x2="362.56" y2="254.17" gradientUnits="userSpaceOnUse"><stop offset="0" stop-color="#a3bdbd"/><stop offset="0.37" stop-color="#99b8b8"/><stop offset="0.99" stop-color="#7eabab"/></linearGradient><linearGradient id="linear-gradient-12" x1="-40.35" y1="352.5" x2="107.23" y2="212.98" gradientUnits="userSpaceOnUse"><stop offset="0" stop-color="#a3bdbd"/><stop offset="0.29" stop-color="#99b7b9"/><stop offset="0.78" stop-color="#7da8b0"/><stop offset="0.99" stop-color="#6fa0ab"/></linearGradient><linearGradient id="linear-gradient-13" x1="56.31" y1="506.93" x2="255.42" y2="318.7" gradientUnits="userSpaceOnUse"><stop offset="0" stop-color="#a3bdbd"/><stop offset="0.29" stop-color="#99b9b9"/><stop offset="0.78" stop-color="#7dadb0"/><stop offset="0.99" stop-color="#6fa7ab"/></linearGradient><linearGradient id="linear-gradient-14" x1="280.79" y1="370.6" x2="402.92" y2="255.13" gradientUnits="userSpaceOnUse"><stop offset="0.01" stop-color="#6fa7ab"/><stop offset="0.22" stop-color="#7dadb0"/><stop offset="0.71" stop-color="#99b9b9"/><stop offset="1" stop-color="#a3bdbd"/></linearGradient><radialGradient id="radial-gradient-4" cx="373.56" cy="125.72" r="96.72" gradientTransform="matrix(1.27, -0.13, 0.09, 0.66, -384.57, 263.49)" xlink:href="#radial-gradient"/><radialGradient id="radial-gradient-5" cx="516.92" cy="165.69" r="96.73" gradientTransform="matrix(1.14, 0.51, -0.23, 0.39, -249.98, 24.33)" xlink:href="#radial-gradient"/><linearGradient id="linear-gradient-15" x1="647.44" y1="382.24" x2="647.44" y2="238.64" xlink:href="#linear-gradient-2"/><linearGradient id="linear-gradient-16" x1="636.56" y1="356.85" x2="636.56" y2="238.64" gradientUnits="userSpaceOnUse"><stop offset="0" stop-color="#7bb9ba"/><stop offset="1" stop-color="#6fa9af"/></linearGradient><radialGradient id="radial-gradient-6" cx="447.96" cy="257.57" r="96.72" gradientTransform="matrix(1.26, 0.2, -0.14, 0.66, -351.05, 137.63)" xlink:href="#radial-gradient"/><radialGradient id="radial-gradient-7" cx="578.33" cy="294.14" r="96.72" gradientTransform="matrix(1.26, 0.2, -0.14, 0.66, -351.05, 137.63)" xlink:href="#radial-gradient"/><linearGradient id="linear-gradient-17" x1="-11.89" y1="433.83" x2="522.88" y2="433.83" gradientUnits="userSpaceOnUse"><stop offset="0" stop-color="#376f57"/><stop offset="0.14" stop-color="#2e6551"/><stop offset="0.7" stop-color="#0d433b"/><stop offset="1" stop-color="#003633"/></linearGradient><linearGradient id="linear-gradient-18" x1="-11.89" y1="460.7" x2="522.88" y2="460.7" gradientUnits="userSpaceOnUse"><stop offset="0" stop-color="#376f57"/><stop offset="0.28" stop-color="#2c6450"/><stop offset="0.77" stop-color="#0f463d"/><stop offset="1" stop-color="#003633"/></linearGradient><linearGradient id="linear-gradient-19" x1="-20.47" y1="446.79" x2="429.37" y2="242.85" gradientUnits="userSpaceOnUse"><stop offset="0" stop-color="#376f57"/><stop offset="0.11" stop-color="#2f6b55"/><stop offset="0.69" stop-color="#0d574c"/><stop offset="1" stop-color="#004f49"/></linearGradient><radialGradient id="radial-gradient-8" cx="499.74" cy="490.66" r="96.72" gradientTransform="matrix(1.52, -0.32, 0.13, 0.48, -504.36, 416.56)" xlink:href="#radial-gradient"/><linearGradient id="linear-gradient-20" x1="245.85" y1="443.63" x2="762.07" y2="443.63" gradientUnits="userSpaceOnUse"><stop offset="0" stop-color="#2e3b31"/><stop offset="0.33" stop-color="#233728"/><stop offset="0.91" stop-color="#052b0f"/><stop offset="0.99" stop-color="#00290b"/></linearGradient><linearGradient id="linear-gradient-21" x1="245.85" y1="460.11" x2="706.19" y2="460.11" gradientUnits="userSpaceOnUse"><stop offset="0" stop-color="#376057"/><stop offset="1" stop-color="#00302e"/></linearGradient><linearGradient id="linear-gradient-22" x1="478.52" y1="443.44" x2="762.07" y2="443.44" gradientUnits="userSpaceOnUse"><stop offset="0" stop-color="#2f5249"/><stop offset="0.33" stop-color="#244942"/><stop offset="0.9" stop-color="#06302e"/><stop offset="1" stop-color="#002b2a"/></linearGradient></defs><title>mountain-sunrise</title><g class="cls-2"><g id="BACKGROUND"><g class="cls-3"><rect class="cls-4" x="21.05" width="750" height="500"/></g></g><g id="OBJECTS"><path class="cls-5" d="M581.67,167.31a60,60,0,1,1-60-60A60,60,0,0,1,581.67,167.31Z" transform="translate(21.05)"/><g class="cls-6"><path class="cls-7" d="M762.07,373.46c-34-32.83-121.2-56.18-223.4-56.18C406.85,317.28,300,356.12,300,404s106.85,86.76,238.67,86.76c102.2,0,189.38-23.35,223.4-56.18Z" transform="translate(21.05)"/><path class="cls-8" d="M512.33,396.77c-7.72-.47-16.13.29-23.93.29A285.09,285.09,0,0,0,436.67,402c-6.51,1.2-17.4,3.65-15,10.93,2.56,7.82,10.62,9.69,17.43,14.28,8.4,5.65,13.92,11.92,25.05,11.14,9.66-.67,20.88-3.68,29.81-6.75a294.41,294.41,0,0,0,32.8-14c4.18-2,7.9-4,12.41-5.19,3.49-.92,6.93-1.86,9.77-3.83,4.82-3.35,10.6-8.72,10.4-14.39Z" transform="translate(21.05)"/><g class="cls-9"><path class="cls-10" d="M526,342.15c-12.13-1.37-23.37-4.83-35.92-5.2-15.09-.45-30.28,0-45.38,0h-30c-12.6,0-24.92-.44-37.23,2.2-3.39.73-6.38.8-7.87,3.86-2.28,4.7.17,13.68,2.61,17.56,3.13,5,5.81,5.34,12,6.27,20.57,3.11,42.66,0,63.48,0,18.27,0,36.28-1.37,52.72-8.47,5.48-2.36,8.16-4.54,14.62-4.53,5.5,0,7.42-.25,11.9-2.72a34,34,0,0,1,14.52-4.22c3-.24,6-.44,9.08-.43,5.2,0,10.79-2,15.76-1.82Z" transform="translate(21.05)"/><path class="cls-11" d="M566.26,344.67l1.24.08C567.09,344.71,566.68,344.69,566.26,344.67Z" transform="translate(21.05)"/></g><path class="cls-12" d="M761,348.91c-18.44-2.06-37.16-3.34-55.4-6.49-24-4.16-51-1.57-75.38-1.57-13.32,0-26.28.13-39.51,1.21-16,1.31-29.67,5.77-44.71,9.19l-11.5.44c-1.24,2,6.3,10,8.38,12.16,4.25,4.44,10.36,6.17,17,7.35,6.06,1.06,13.38.87,19.1,2.61,4.3,1.31,7.73,4.9,11.53,6.94,3.1,1.67,9.49,3.27,11.47,6,3.2,4.41,1.33,8.28,7.45,11.22,2.66,1.27,6.47,1.65,8.9,3.1,2.77,1.65,5.4,4.51,7.65,6.66,7.34,7,14.21,13.6,24.16,17.58,11.39,4.56,20.93,12.56,32.56,17.06a192.62,192.62,0,0,0,39.19,9.92c13.11,1.86,26.68,7.49,39.08,6.49Z" transform="translate(21.05)"/><path class="cls-13" d="M562.67,226.38c-5.44-1.07-10.6-2.48-16-3.72-12.68-2.9-24.06-7.12-36-11.42-9.25-3.32-19.28-4.21-28.5-8.24-4.71-2.05-6-3.44-11.65-.6-1.39.7-1.09,2.88-2.47,3.54-1.13.54-3-.44-4,.08-2,1-3.86.66-5.33,2.95-8.48-4.18-14.16-11-24.5-4.53-7.46,4.63-10.68,13.32-20.15,14.29-5.23.53-10.06-.73-14.69-1.15-5.6-.5-8.56,2.21-14.66,2.76-6.83.63-9.14,1.4-15.32,3.47a66.44,66.44,0,0,1-15.5,3c-6,.5-10.48,1.75-15.85,1.71-5.86,0-11.73-1-17.48-1.71-11.51-1.34-22-4.61-33.2-6.92-9.82-2-19.65-3.32-29.32-5.81-4.75-1.22-9.2-4.07-14-4.61-6.29-.71-8.8,3.21-14,4.63-11.46,3.11-20.18.13-31.33-2.3-10.49-2.29-20.38-4.64-30.19-8.54-5.18-2.07-8.17-4.1-13.78-4.8-5.34-.67-11.57-.85-16.73-2.28-9.63-2.68-16.47-12.22-25.15-16.32a21.09,21.09,0,0,0-14.15-1c-5.13,1.66-7.11,6.79-12,9.26-4.3,2.15-10.73,1.48-14.81,3.87C66.75,195,66,198.2,60,200.1c-6.68,2.1-8-.06-14.61-.47-6.09-.38-9.75,3.12-14.7,4.66-3.63,1.12-5.12,1.06-8.7,2.89-3.22,1.64-3.28,2.2-7.3,2.89-5.24.89-11,.07-16,1.15l-10.56,41.2v41.81c47.62-.85,208.76-2.4,229.87,2,8.86,1.83,17.61,5.27,26.7,5.81,7.46.45,15.11-.67,22.63-.61,19.4.15,37.25-.21,56.51-2.47,18-2.12,35.32-6.31,52.67-10.94,23.42-6.25,45.14-15.58,69-20.7,20.15-4.32,40.26-7.41,60.5-11.11,21.4-3.91,40.54-11.65,58.67-22C574.29,228.72,571.73,228.16,562.67,226.38Z" transform="translate(21.05)"/><path class="cls-14" d="M762.07,255.83l-.42-1.07c-6.6-1.25-12.62-4.86-19.37-6.16s-14.54-2.6-21.09-3.79c-14.37-2.63-26-7.23-38.73-14.12-11.33-6.11-25.44-11.5-36.15-19-10.18-7.11-20.86-16.12-32.06-21.66-5.49-2.71-14.33-5.84-20.59-4.12-3.62,1-4,3.58-6.91,4.59-5.86,2-5.15,0-8.63-.05-8.84-.24-10,.72-16.34,6.67-5.21,4.88-8.79,6.67-15.85,9.27-7.34,2.7-11.1,6.71-17.74,10.18-5.57,2.91-14.63,5-20.93,7.51-13.31,5.35-27.6,7.81-41.2,12.76-9.33,3.4-13.73,5.66-24.21,3.75-9.18-1.68-12.55-5.47-21.39-3.51s-9.22,4.48-18.56-.64c-5.5-3-11.32-6.47-16.33-9.74-11.15-7.28-31.3-20.72-45.57-21.89-16.64-1.37-17.54,10-32.5,14.2-11,3.05-26.51,1.07-36.56,7.69a137.62,137.62,0,0,1-14.4,8.62c-6.45,3.3-7.83,7.25-13.07,11.52-15.06,12.24-67.6-19.28-73.74-1.08-15.83.73-30.41-2.71-45.68-6S96.8,228.93,83.59,223.64c-6.46-2.59-13.08-4.42-19.83-7.54-5.38-2.49-15.67-6.62-21.44-3.77-3.18,1.58-9.9,10.65-12.25,13-5.65,5.69-8.09,7.28-16.22,10-7.29,2.42-14.77,6.48-22.18,7.95-1.18.24-2.37.42-3.56.59V346.66c9.71,3.5,22.58,4,32.08,4.4a585.67,585.67,0,0,0,71.11-1.15c50.48-4,100.41-5.07,151.08-5.07,69.23,0,138.17-2.87,207.33-4.39,63.22-1.39,126.53,1.06,189.75.85,42.29-.14,81.64.4,122.61-4.68Z" transform="translate(21.05)"/><path class="cls-15" d="M275,274.52c2-2.6,9-2.6,11-6.94,4-12.14,10-25.14,28-21.67,1,0,3-1.74,3-2.6-3-12.14,7-15.61,16-22.55,2-1.73,0-6.93,1-10.4a7.64,7.64,0,0,1,4.95-5.6C323.32,204,322.14,215,307.5,219c-11,3.05-26.51,1.07-36.56,7.69a137.62,137.62,0,0,1-14.4,8.62c-6.45,3.3-7.83,7.25-13.07,11.52-15.06,12.24-67.6-19.28-73.74-1.08-15.83.73-30.41-2.71-45.68-6S96.8,228.93,83.59,223.64c-6.46-2.59-13.08-4.42-19.83-7.54-5.38-2.49-15.67-6.62-21.44-3.77-3.18,1.58-9.9,10.65-12.25,13-5.65,5.69-8.09,7.28-16.22,10-7.29,2.42-14.77,6.48-22.18,7.95-1.18.24-2.37.42-3.56.59V346.66c9.71,3.5,22.58,4,32.08,4.4a585.67,585.67,0,0,0,71.11-1.15c29.47-2.31,58.74-3.65,88.09-4.37C219.36,333.21,254.44,308.45,275,274.52Z" transform="translate(21.05)"/><path class="cls-16" d="M599.28,185.51a16.69,16.69,0,0,0-5.62.42c-3.62,1-4,3.58-6.91,4.59-5.86,2-5.15,0-8.63-.05-8.84-.24-10,.72-16.34,6.67-5.21,4.88-8.79,6.67-15.85,9.27-7.34,2.7-11.1,6.71-17.74,10.18-5.57,2.91-14.63,5-20.93,7.51-13.31,5.35-27.6,7.81-41.2,12.76-9.33,3.4-13.73,5.66-24.21,3.75-9.18-1.68-12.55-5.47-21.39-3.51s-9.22,4.48-18.56-.64c-5.5-3-11.32-6.47-16.33-9.74-11.15-7.28-31.3-20.72-45.57-21.89l-1.05-.07a7.64,7.64,0,0,0-4.95,5.6c-1,3.47,1,8.67-1,10.4-9,6.94-19,10.41-16,22.55,0,.86-2,2.6-3,2.6-18-3.47-24,9.53-28,21.67-2,4.34-9,4.34-11,6.94-20.56,33.93-55.64,58.69-95.61,71,20.93-.51,41.89-.7,63-.7,55.51,0,110.83-1.85,166.24-3.36,10.56-7.21,19.92-16.31,30.38-24.47,2-2.61,8-.87,12-3.47,12-6.94,22-13,35-18.21,11-4.34,18-13.87,28-20.81,2-1.73,6-1.73,6-2.6,6-6.94,2-19.08,12-19.94,12-.87,20-8.67,26-16.48,4-5.2,16-2.6,18-9.54,2-8.67,4-19.07,16-19.94,1,0,3-2.6,3-5.2h5C601.85,196,596.85,190.44,599.28,185.51Z" transform="translate(21.05)"/><path class="cls-17" d="M570.82,355c-15.25,25.58-80.56,22.59-145.86-6.7s-105.87-73.75-90.61-99.34,80.56-22.58,145.86,6.7S586.08,329.36,570.82,355Z" transform="translate(21.05)"/><path class="cls-18" d="M445.46,355.14c-15.26,25.58-80.57,22.58-145.87-6.7S193.72,274.69,209,249.1s80.56-22.59,145.87,6.69S460.71,329.55,445.46,355.14Z" transform="translate(21.05)"/><path class="cls-19" d="M754.29,249.52c15.5,25.47-24.65,70.24-89.67,100s-130.3,33.21-145.8,7.73,24.65-70.24,89.67-100S738.79,224,754.29,249.52Z" transform="translate(21.05)"/><path class="cls-20" d="M525.85,336.07c-8.08-3.27-9.67-12.55-20.74-13.46-2.06-.17-4.25,1-6.53.27-2.05-.67-2.86-3.24-4.78-4-3.45-1.33-9.71-.41-13.32-1-2-.32-3-1.3-5.11-1.47-2.49-.2-4.3,1.89-6.71.94-3.51-1.39-4.58-7.49-3.61-10.58-6.18-5.49-13.11-1.67-19.74-4.26-3.74-1.46-5.17-3.92-7.58-5.45a37.15,37.15,0,0,0-10.55-4.37c.63-8.56-10.42-8.15-14.92-12-2.52-2.14-2.79-4-6.57-6a37.71,37.71,0,0,1-8.38-6.1c-4.23-3.85-9.18-11.44-15.29-12.09-3.62-.39-6.41,2.82-8.78,2.63-3.19-.26-5.73-4.2-7.74-6.15-3.19,2.6-6.91,4.06-10.13,6.69-1.09.88-3.77,4-4.89,4.44-2.49,1-5.06-.27-5.63-.09-4.63,1.46-6.24,6.5-9.51,10.58a82.49,82.49,0,0,1-12.78,13c-7.82,6.27-15.91,9.45-24,15.22-6.39,4.52-12.69,9.48-18.82,14.38-4.67,3.74-13.5,8.85-16,13.94a19.24,19.24,0,0,1-2,2.84c3.68,4.83,20,3.57,26.59,3.79,10.26.35,19.78,2.16,29.73,3.33,11.29,1.33,23.88,0,34.55,3.06,6.7,1.91,22.62,1.28,27.28,4.84l223.69-5.7C595.91,342.91,532.38,338.72,525.85,336.07Z" transform="translate(21.05)"/><path class="cls-21" d="M398.26,309.2c0-.87-2-2.6-1-3.47,9-6.93,6-14.74,0-22.54-1-.87-4,1.73-5,.87-3-5.2-5-8.67-11-12.14-3.89-2-3.55-8.75-6.95-12.87a3.07,3.07,0,0,1-1.07.12c-3.19-.26-5.73-4.2-7.74-6.15-3.19,2.6-6.91,4.06-10.13,6.69-1.09.88-3.77,4-4.89,4.44-2.49,1-5.06-.27-5.63-.09-4.63,1.46-6.24,6.5-9.51,10.58a82.49,82.49,0,0,1-12.78,13c-7.82,6.27-15.91,9.45-24,15.22-6.39,4.52-12.69,9.48-18.82,14.38-4.67,3.74-13.5,8.85-16,13.94a19.24,19.24,0,0,1-2,2.84c3.68,4.83,20,3.57,26.59,3.79,10.26.35,19.78,2.16,29.73,3.33,11.29,1.33,23.88,0,34.55,3.06,6.7,1.91,22.62,1.28,27.28,4.84l86.52-2.87c-13.52-5.82-25.15-14.92-36.07-22.21C420.26,316.14,410.26,313.54,398.26,309.2Z" transform="translate(21.05)"/><path class="cls-22" d="M547,385.07c-33.3-13.82-69-34.47-104.8-42.29-10.38-2.27-22.26-3-32.17-6.49-7.79-2.72-14.44-6.87-22-9.77-26.61-10.21-58.35-15.59-83.08-30.32-12-7.17-18.14-17.54-26.2-26.66-3-3.4-11.48-10.35-15.75-10.45-10.4-.25-10.22,8.15-22,1.36a115,115,0,0,1-31.75-26.9c-4.39-5.43-7.7-9.24-15.27-11.07-3.21-.77-5.94.48-9.7-1.09s-5.37-4.56-8.53-6.48c-5-3-13.33-7.34-19-8.67-6.48-1.51-15.27-.44-22.73-1.08-17.17-1.49-22.61,2.15-37.2,9.3-6.36,3.11-14.17,5.21-19.77,9.08-6,4.17-9,11.53-15.23,16.08-5.32,3.92-12.95,6.18-18.78,10a107.45,107.45,0,0,0-15.77,13C21.93,267.66,19,271,11,271.92c-4.23.5-8.08-.32-11.95.89s-5.13,3.81-8.25,5a13.23,13.23,0,0,1-2.69.67v138c13.26,2.3,26.79,4.15,39.84,6.41,25.83,4.48,52.71,2.8,78.83,4.49,25.58,1.66,50.62,2.38,76.29,2.38,51.45,0,102.62-3.58,153.88-6.7,25.74-1.56,50.95-7,76.78-7.19,21.59-.16,43-1.17,64.59-2.58,22-1.44,58.55-.74,77.48-12.79C568.12,392.61,558.28,389.75,547,385.07Z" transform="translate(21.05)"/><path class="cls-23" d="M134,205.16c-17.17-1.49-22.61,2.15-37.2,9.3-6.36,3.11-14.17,5.21-19.77,9.08-6,4.17-9,11.53-15.23,16.08-5.32,3.92-12.95,6.18-18.78,10a107.45,107.45,0,0,0-15.77,13C21.93,267.66,19,271,11,271.92c-4.23.5-8.08-.32-11.95.89s-5.13,3.81-8.25,5a13.23,13.23,0,0,1-2.69.67V369C4.82,357.91,19,345,31,328.28c5-6.07,13-7.81,18-13.88,5-6.93,2-17.34,10-21.67s18-2.6,23-9.54c5-6.07,2-13,5-19.07,2-3.47,6-3.47,8-6.94,6-6.07-4-13.87,3-19.08s15-2.6,23-7.8c9-5.2,13-11.27,12-21.68a7,7,0,0,1,1.09-3.46Z" transform="translate(21.05)"/><path class="cls-24" d="M293,387.24c-38-23.41-86-26-119-54.63-18-14.74,6-33.81-2-48.55-6-9.54-8-19.08-6-30.35,1-2.6-8-6.07-9-9.54-2-11.27,2-22.54-7-31.21,0-.87-3-2.6-5-2.6a10.05,10.05,0,0,0-2-5c-3,0-6.08,0-8.93-.22a7,7,0,0,0-1.09,3.46c1,10.41-3,16.48-12,21.68-8,5.2-16,2.6-23,7.8s3,13-3,19.08c-2,3.47-6,3.47-8,6.94-3,6.06,0,13-5,19.07-5,6.94-15,5.2-23,9.54s-5,14.74-10,21.67c-5,6.07-13,7.81-18,13.88C19,345,4.82,357.91-11.89,369v47.43c13.26,2.3,26.79,4.15,39.84,6.41,25.83,4.48,52.71,2.8,78.83,4.49,25.58,1.66,50.62,2.38,76.29,2.38,51.45,0,102.62-3.58,153.88-6.7,19.28-1.17,38.27-4.52,57.44-6.2a80,80,0,0,0-9.39-2.7C352,408.91,321,404.58,293,387.24Z" transform="translate(21.05)"/><path class="cls-25" d="M547,385.07c-33.3-13.82-69-34.47-104.8-42.29-10.38-2.27-22.26-3-32.17-6.49-7.79-2.72-14.44-6.87-22-9.77-26.61-10.21-58.35-15.59-83.08-30.32-12-7.17-18.14-17.54-26.2-26.66-3-3.4-11.48-10.35-15.75-10.45-10.4-.25-10.22,8.15-22,1.36a115,115,0,0,1-31.75-26.9c-4.39-5.43-7.7-9.24-15.27-11.07-3.21-.77-5.94.48-9.7-1.09s-5.37-4.56-8.53-6.48c-5-3-13.33-7.34-19-8.67a41.18,41.18,0,0,0-8.53-.84c16.14,12.61,24.23,31,39.8,42.24,17,11.27,17,25.15,25,39,3,6.07,18,3.47,23,7.8,8,8.67,2,26.88,15,31.22A453.92,453.92,0,0,0,311,337c9,.86,11,13.87,17,13.87,29,.87,53,13.87,79,23.41,22,7.8,45,10.41,70,13.87,5,.87,9,4.34,14,6.07,20.69,5.13,41.92,6.94,63.3,7.18.51-.29,1-.58,1.5-.89C568.12,392.61,558.28,389.75,547,385.07Z" transform="translate(21.05)"/><path class="cls-26" d="M225.45,284.33c4.9,35.37-46.23,69.78-114.21,76.87s-127.06-15.83-132-51.2,46.22-69.79,114.2-76.88S220.54,249,225.45,284.33Z" transform="translate(21.05)"/><path class="cls-27" d="M410.12,402.21c-12.43,20.84-71.8,15.62-132.62-11.65s-100-66.26-87.62-87.1,71.81-15.62,132.62,11.65S422.54,381.38,410.12,402.21Z" transform="translate(21.05)"/><path class="cls-28" d="M762.07,249.1c-4.8-1.18-8,1.94-13.07.27-3.47-1.14-7-6-10-7.78-4.86-2.87-4.06-4.11-11-1.58-3.47,1.26-8.06,3.62-8.12,7.5-7.69-1-13.26,11.38-17.8,15.76-4.16,4-12.23,11.94-11.2,18.06-6.71.56-13.86,2.42-20.63,3.4-7.67,1.11-10.37,2.45-14.39,9.58-7.82-.42-13,5-19.78,7.13-6.51,2-14,2.16-20.83,3.25-4,.64-3.61-1.48-8.22,1.24-2.42,1.42-4.39,6.07-6.2,8.3-4.09,5.06-9.25,11.46-14.77,15.8-12,9.47-25.95,11.69-41,15.59-23.37,6.05-8.85,13.63,8,15.63A282.35,282.35,0,0,0,599,363c13.32-.63,34.27-4.24,46.83.15,2.63,7.31-7,8.13-10.93,12.85,5.56,6.16,33.2,4,42.1,4.34,15.17.65,29.74,2.84,45,1.54,13.47-1.14,26.45-2.87,40.07-3.21Z" transform="translate(21.05)"/><path class="cls-29" d="M619,349.09c12-2.6,24-6.07,35-13,3-1.73,9,1.73,10-1.73,4-8.67,13-14.74,23-10.41,3-12.14,16-18.21,13-31.21,0,0,2-3.47,3-3.47,8,2.6,12-2.6,16-6.07,1-1.73-1-6.07,0-6.07,13-6.94,22-13.87,14-26,1-.87,2-.87,4-.87,0-3,1-6.07,3.28-7.72a10.94,10.94,0,0,0-1.3-.93c-4.86-2.87-4.06-4.11-11-1.58-3.47,1.26-8.06,3.62-8.12,7.5-7.69-1-13.26,11.38-17.8,15.76-4.16,4-12.23,11.94-11.2,18.06-6.71.56-13.86,2.42-20.63,3.4-7.67,1.11-10.37,2.45-14.39,9.58-7.82-.42-13,5-19.78,7.13-6.51,2-14,2.16-20.83,3.25-4,.64-3.61-1.48-8.22,1.24-2.42,1.42-4.39,6.07-6.2,8.3-4.09,5.06-9.25,11.46-14.77,15.8-12,9.47-25.95,11.69-41,15.59-11.35,2.94-13.75,6.23-11.3,9.08C560.41,360.26,590.63,353.87,619,349.09Z" transform="translate(21.05)"/><path class="cls-30" d="M762.07,466c-1.88-1.23-4.52-1.23-7.32-.35a34.59,34.59,0,0,1-5.08,1.35c-1.55.29-4.59,1-5.4,2.3-2.06-1.41-7,1-8.69,2.6-2-1.43-4.46.76-6.23.63-2.7-.19-4.65-1.93-7.34-1.46-2.85.49-3.8,2.15-6.34,3.2-2.08.86-5.27,1.08-7.67,1.19-1.28.05-2.43.59-4,.24-1.17-.25-2.1-1.33-3.4-1.38s-1.72,1-2.92,1.09c-1.79.21-3.06-.43-4.68-.86-1.4-.38-1.78-1-3.58-.88-1.49.09-2.73,1.36-4.07,1.4-.92,0-3-.94-4-1.11-1.56-.23-2.65-.27-4.33-.64a33.09,33.09,0,0,0-9.27-.58c-1.47.06-4,.49-5.4.08-1.56-.44-2.23-1.42-3.66-1.75-2.53-.57-5.62.56-8-.27a27.44,27.44,0,0,1-5.59-3.26c-1.86-1.54-1.33-3.67-3.15-5.07-2.33-1.8-5-.57-6.93-2.67-1.75-1.91-.38-3.19-2-4.92-.33-.35-2.3-1.29-3-2a13.07,13.07,0,0,1-2.22-2.37c-1.53-2.15-1-3.9-3.74-4.91-2-.74-3.94-.37-5.78-1.66-2-1.42-8.64-6.39-10.65-4.16-2.41-1.22-5.13-.8-7.67-1.34-2.77-.58-4.4-1.32-7.54-1.18-.08.37-.29.78-.36,1.08-2.5-.28-4-3.15-7-3.45-2.63-.26-5-.44-7.42-.58-4.58-.27-9.28,3.26-14.58,2.62-3.88-.47-3.45-.46-5.67,2a24.61,24.61,0,0,1-5.67,4.62c-2.71,1.55-6.82,2.46-10.74,3.15-9.16-.14-16.7-2.59-25.17-5.31-9.62-3.09-19.62-5.93-29.54-9-4.33-2.61-8.58-5.61-12.74-8.08L452,411.65c-7.34-4.37-12.62-10.59-19.51-15.32-4.54-3.12-5.66-3.95-11.22-5.31a30.22,30.22,0,0,1-12-5.65c-2.89-2.25-7.35-6.2-9.26-9.39-3.19-5.32-2.62-6.8-11.24-6.47-1-4.41-6-2.62-9.47-3.93-3.1-1.19-5.59-3.83-8.65-5.38-6.13-3.11-11.76-8.57-18.68-10.13-.82-.19-2.13.93-3.5.63-.66-.14-2.27-1.91-3.18-2.33-2.39-1.12-3.75-2.84-6.63-3.05-1.8-.14-5.94.88-7.32,1-2.32.23-3.18-.52-6,.3-3.15.93-4,3.57-6.69,4.41-.87.28-6.07-.12-7.36.08-6.38,1-8.8,2.28-15.35.56-4.77-1.25-9.72-1.7-14-4.16-3.79-2.2-6.85-5.49-10.5-8-6.83-4.67-12.19-12.48-15.48-19.68-2-4.44-.88-8.57-2-13.3-1.06-4.56-5.31-7.5-6.69-12.11s1.21-8.64-5.32-11.12c-6.35-2.41-9.14,1.34-13.37-4.47-3.08-4.23-4.17-7.29-10.65-9.15-5.79-1.66-9.46-1.67-14.7-4.17-3.85-1.83-6.72-4.34-10.63-6.35-4.36-2.24-9.42-1.45-13.84-1.87-8.37-.81-23.34,1.29-30.85,4.75-4.4,2-8.35,4.55-11.15,8.11-4,5.11-6.15,5.52-11.48,9.21-4.75,3.29-4.87,6.15-7.5,10.31-1.58,2.5-3.28,3.16-5.85,4.93-1.72,1.18-4.37,3.59-6,4.46-8.73,4.66-20.94-1-29.2-4.2a50.3,50.3,0,0,1-11.32-6.35c-2.16-1.82-1.44-3.88-4.8-5.1-1-.36-5.22.43-6.83.17-5.26-.83-9-6.58-13.18-6.51s-3.3,2.76-5.47,4c-2.32,1.38-4.65,1.47-7.08,2.88-3.78,2.18-4.36,7.06-8.12,9.45-1.61,1-5.38,2-6.67,2.73s-3.45,2.42-5.16,3.58c-4.25,2.89-8.09,8.61-12.9,12.59-2.4.5-4.78.87-7.16,1.15V520.4h774Z" transform="translate(21.05)"/><path class="cls-31" d="M17,345.62c3-2.6,13,4.33,17,.87,4-2.61,8-6.07,14-6.94-4-18.21,14-12.14,27-17.34,3-.87,4-6.07,6-6.94,11.81-4.39,28.6-9.39,31.16-20.74l-.16.11c-1.72,1.18-4.37,3.59-6,4.46-8.73,4.66-20.94-1-29.2-4.2a50.3,50.3,0,0,1-11.32-6.35c-2.16-1.82-1.44-3.88-4.8-5.1-1-.36-5.22.43-6.83.17-5.26-.83-9-6.58-13.18-6.51s-3.3,2.76-5.47,4c-2.32,1.38-4.65,1.47-7.08,2.88-3.78,2.18-4.36,7.06-8.12,9.45-1.61,1-5.38,2-6.67,2.73s-3.45,2.42-5.16,3.58c-4.25,2.89-8.09,8.61-12.9,12.59-2.4.5-4.78.87-7.16,1.15v47.76C-1.18,357.51,9,353,17,345.62Z" transform="translate(21.05)"/><path class="cls-32" d="M244,359.49c-1-2.6-5-3.47-8-5.2-4-3.47,1-6.94,3-10.41,3-8.67-9-10.4-14-13-17-9.54-18-33.82-36-45.09,7,19.94,4,42.49,9,64.16,1,2.6,6,5.21,7,7.81,3,4.33,3,10.4,6,14.74,5.45,9.45,11.5,18.39,16.75,28a88.06,88.06,0,0,1,13.25-9,170.44,170.44,0,0,0,21.54-15.35C253.93,373.39,246.67,368.3,244,359.49Z" transform="translate(21.05)"/><path class="cls-33" d="M301.43,413.06c-7.22,35.07-67.71,55-135.11,44.61s-116.19-47.31-109-82.38,67.71-55,135.11-44.62S308.65,378,301.43,413.06Z" transform="translate(21.05)"/><path class="cls-34" d="M95,383.77c5-5.2,8-13.87,13-18.21,11-9.54,17-19.94,24-32.08,1-2.6,4-5.2,5-7.8,2-2.6,1-6.07,3-8.67,6-7.81,9-13,8-22.55,0-.87,2-3.47,3-3.47,9,.87,13-6.07,19-9.53,5-3.47,1-14.74,6-22.55a6.7,6.7,0,0,1,1.17-1.7c-8.57-.42-22.16,1.63-29.19,4.87-4.4,2-8.35,4.55-11.15,8.11-4,5.11-6.15,5.52-11.48,9.21-4.75,3.29-4.87,6.15-7.5,10.31-1.55,2.44-3.21,3.14-5.69,4.82C109.6,305.88,92.81,310.88,81,315.27c-2,.87-3,6.07-6,6.94-13,5.2-31-.87-27,17.34-6,.87-10,4.33-14,6.94-4,3.46-14-3.47-17-.87C9,353-1.18,357.51-11.89,361.29v87.23C28.16,434.71,65.06,413.86,95,383.77Z" transform="translate(21.05)"/><path class="cls-34" d="M272,449.67c3-5.21,1-12.14,4-17.35,5-10.4,12-19.07,18-29.48,2-2.6,3-6.07,6-8.67,3-4.33-1-9.53,0-13.87,1-.87,1-3.47,3-3.47,12,0,22-6.07,22-17.34,3,0,7,.87,8-.87,3.41-2.95,5.39-8.36,8.15-12.65a7,7,0,0,0-2.48-.65c-1.8-.14-5.94.88-7.32,1-2.32.23-3.18-.52-6,.3-3.15.93-4,3.57-6.69,4.41a34.18,34.18,0,0,1-5.05,0A42.22,42.22,0,0,1,300,354.29c-4,.87-5,5.2-8,6.07-3,1.73-10,.87-11,1.73-14,9.54-25,20.81-40,29.48-16,8.67-26,21.68-40,32.08-6,4.34-14,5.21-19,8.67C121.17,468.49,58.07,502-11.89,500V520.4H207c9.31-6.07,18.22-12.69,27-19.58C251,487,262,467.87,272,449.67Z" transform="translate(21.05)"/><path class="cls-30" d="M762.07,466c-1.88-1.23-4.52-1.23-7.32-.35a34.59,34.59,0,0,1-5.08,1.35c-1.55.29-4.59,1-5.4,2.3-2.06-1.41-7,1-8.69,2.6-2-1.43-4.46.76-6.23.63-2.7-.19-4.65-1.93-7.34-1.46-2.85.49-3.8,2.15-6.34,3.2-2.08.86-5.27,1.08-7.67,1.19-1.28.05-2.43.59-4,.24-1.17-.25-2.1-1.33-3.4-1.38s-1.72,1-2.92,1.09c-1.79.21-3.06-.43-4.68-.86-1.4-.38-1.78-1-3.58-.88-1.49.09-2.73,1.36-4.07,1.4-.92,0-3-.94-4-1.11-1.56-.23-2.65-.27-4.33-.64a33.09,33.09,0,0,0-9.27-.58c-1.47.06-4,.49-5.4.08-1.56-.44-2.23-1.42-3.66-1.75-2.53-.57-5.62.56-8-.27a27.44,27.44,0,0,1-5.59-3.26c-1.86-1.54-1.33-3.67-3.15-5.07-2.33-1.8-5-.57-6.93-2.67-1.75-1.91-.38-3.19-2-4.92-.33-.35-2.3-1.29-3-2a13.07,13.07,0,0,1-2.22-2.37c-1.53-2.15-1-3.9-3.74-4.91-2-.74-3.94-.37-5.78-1.66-2-1.42-8.64-6.39-10.65-4.16-2.41-1.22-5.13-.8-7.67-1.34-2.77-.58-4.4-1.32-7.54-1.18-.08.37-.29.78-.36,1.08-2.5-.28-4-3.15-7-3.45-2.63-.26-5-.44-7.42-.58-4.58-.27-9.28,3.26-14.58,2.62-3.88-.47-3.45-.46-5.67,2a24.61,24.61,0,0,1-5.67,4.62c-2.71,1.55-6.82,2.46-10.74,3.15-9.16-.14-16.7-2.59-25.17-5.31-9.62-3.09-19.62-5.93-29.54-9-4.33-2.61-8.58-5.61-12.74-8.08L452,411.65c-7.34-4.37-12.62-10.59-19.51-15.32-4.54-3.12-5.66-3.95-11.22-5.31a30.22,30.22,0,0,1-12-5.65c-2.89-2.25-7.35-6.2-9.26-9.39-3.19-5.32-2.62-6.8-11.24-6.47-1-4.41-6-2.62-9.47-3.93-3.1-1.19-5.59-3.83-8.65-5.38-6.13-3.11-11.76-8.57-18.68-10.13-.82-.19-2.13.93-3.5.63-.66-.14-2.27-1.91-3.18-2.33-1.59-.74-2.73-1.74-4.15-2.4-2.76,4.29-4.74,9.7-8.15,12.65-1,1.74-5,.87-8,.87,0,11.27-10,17.34-22,17.34-2,0-2,2.6-3,3.47-1,4.34,3,9.54,0,13.87-3,2.6-4,6.07-6,8.67-6,10.41-13,19.08-18,29.48-3,5.21-1,12.14-4,17.35-10,18.2-21,37.28-38,51.15-8.75,6.89-17.66,13.51-27,19.58h555Z" transform="translate(21.05)"/><path class="cls-35" d="M461,462.51c-7.22,35.07-67.71,55-135.11,44.62s-116.19-47.31-109-82.38S284.61,369.7,352,380.13,468.21,427.45,461,462.51Z" transform="translate(21.05)"/><path class="cls-36" d="M522.88,520.4a111.13,111.13,0,0,1-14.66-7.25c-17.08-10.42-33.47-22-51.47-31.4-19.54-10.21-39.26-20.42-57.72-31.44-7.54-4.5-12-10.52-21-11.92-9.77-1.51-14.25-1.43-22.95-6.26-26.92-15-55.78-21.63-83.05-34.51-5.83-2.75-13.39-7.13-20-7.78-4.52-.44-9,2.33-13,1.77s-6.22-3.56-10-5a38.2,38.2,0,0,0-22-1.09c-7.35,1.72-9.81,7.27-18.71,1.57-7.3-4.67-5.63-13.85-12.49-17.84-6.28-3.65-12-2-18.53-7.35-4.18-3.42-6.63-11.09-11.45-13.48-6.92-3.42-16.15,1.48-17,7.53-4.86-2.12-9.75.21-10,5.2C106.06,357.81,97,368.65,88.22,376c-10.78,9-23.07,16-38.5,18-6.23.81-11.27.1-18.72-1.71s-14.39-6.78-21.75-5.65c-7.76,1.18-11,8.47-18.2,11.29-1,.39-2,.73-2.94,1V520.4Z" transform="translate(21.05)"/><path class="cls-37" d="M522.88,520.4a111.13,111.13,0,0,1-14.66-7.25c-17.08-10.42-33.47-22-51.47-31.4-19.54-10.21-39.26-20.42-57.72-31.44-7.54-4.5-12-10.52-21-11.92-9.77-1.51-14.25-1.43-22.95-6.26-24.46-13.59-50.51-20.35-75.53-31.13a13.05,13.05,0,0,0-3.52,1c-6,2.6-10,1.73-17,3.47-5,1.73-1,7.8-3,13-12-5.2-21,2.6-28,11.27-5,5.2-13,6.94-19,13.88-6,6.07-18,2.6-20,5.2-10,15.61-30,27.74-50,25.14,0,2.6-3,5.2-5,6.07-9,5.2-20,6.07-31,4.34,0,1.73-2,3.47-3,3.47-6,1.73-8-6.94-15-5.21-5,1.74-6,8.67-8,8.67C47.12,496,17.7,501.9-11.89,502.22V520.4Z" transform="translate(21.05)"/><path class="cls-38" d="M64,449.67c9-6.94,31-4.34,34-19.08,0-3.47,7-1.73,7,1.73,6-3.46,12-.86,17-6.07,1,0,3-2.6,4-4.33,3-3.47,11,2.6,12,0,2-10.41,11-11.27,20-14.74,5-1.73,5-9.54,8-14.74,0-.87,2-3.47,3-2.6,10.37,5.14,21.83,5.51,28.71-.63-2.51.72-5.27.52-9.44-2.15-7.3-4.67-5.63-13.85-12.49-17.84-6.28-3.65-12-2-18.53-7.35-4.18-3.42-6.63-11.09-11.45-13.48-6.92-3.42-16.15,1.48-17,7.53-4.86-2.12-9.75.21-10,5.2C106.06,357.81,97,368.65,88.22,376c-10.78,9-23.07,16-38.5,18-6.23.81-11.27.1-18.72-1.71s-14.39-6.78-21.75-5.65c-7.76,1.18-11,8.47-18.2,11.29-1,.39-2,.73-2.94,1V471.7q2.46-.57,4.89-1.23C17,463.54,44,465.27,64,449.67Z" transform="translate(21.05)"/><path class="cls-39" d="M466.37,464.73c7.15,25.79-52.76,60.4-133.81,77.29S180,551.72,172.85,525.93s52.75-60.4,133.81-77.3S459.21,438.94,466.37,464.73Z" transform="translate(21.05)"/><path class="cls-40" d="M762.07,366.86c-4.64,1.85-7.35,5.67-12.9,6.6-9.87-10.31-10,.45-14.47,5.65-4,4.7-15.2,12.7-20.63,16.41-6.94,4.75-18.41,8.76-25.62,9.76-4,.54-8.28-.55-12.1.48-4.51,1.23-8.12,5-13,6-4.5,1-8.64-.93-13,1.1-3.17,1.47-4.75,7.82-8.14,9.21-5.75,2.35-19.11,1.94-25.34,2.8-8.4,1.15-18.42.09-26.44,1.88-9,2-16.7,5.53-26.15,6.86-7.46,1.05-18.88,4.86-26.44,2.94-6.48-1.65-13.58-7.86-20.6-10.38-4.68,7.69-13.28,5.72-21,2.49-9-3.79-13.51-4.54-23.39-6.4-8.39-1.58-15.69-8.88-24.16-9.58-7.86-.66-15.35,6.51-20.69,10.73-13.33,10.53-24,22.36-37.58,32.23-10.18,7.39-20.82,14.62-33.08,19.29-12.95,5-26.32,8.93-38.57,15.25-14.82,7.63-28,14.12-44,19.8-8.28,2.94-20.54,6.12-29,10.39h34.78a163.29,163.29,0,0,1,19.32-4c22.2-2.58,45.32-.54,67.38,1.47,15.65,1.43,31.51,2.18,47.48,2.5h44.41c27.86-.44,55.73-1.46,83-1.76,67.52-.72,135.07-2.44,202.58-1.92,5.72,0,11.47.13,17.22.24Z" transform="translate(21.05)"/><path class="cls-41" d="M550,485.21c11-2.6,16-12.13,27-16.47,3-1.73,6-.87,8-.87,4,1.74,10,3.47,14,1.74,10-4.34,12-16.48,24-18.21,11-2.6,22,1.73,32-3.47a14.67,14.67,0,0,0,7-6.07c3-5.2-3-12.14,3-16.47,13.85-9.48,28.22-16.66,41.19-25.56a71,71,0,0,1-17.74,5.45c-4,.54-8.28-.55-12.1.48-4.51,1.23-8.12,5-13,6-4.5,1-8.64-.93-13,1.1-3.17,1.47-4.75,7.82-8.14,9.21-5.75,2.35-19.11,1.94-25.34,2.8-8.4,1.15-18.42.09-26.44,1.88-9,2-16.7,5.53-26.15,6.86-7.46,1.05-18.88,4.86-26.44,2.94-6.48-1.65-13.58-7.86-20.6-10.38-4.68,7.69-13.28,5.72-21,2.49-9-3.79-13.51-4.54-23.39-6.4-8.39-1.58-15.69-8.88-24.16-9.58-7.86-.66-15.35,6.51-20.69,10.73-13.33,10.53-24,22.36-37.58,32.23-10.18,7.39-20.82,14.62-33.08,19.29-12.95,5-26.32,8.93-38.57,15.25-14.82,7.63-28,14.12-44,19.8-8.28,2.94-20.54,6.12-29,10.39h34.78a163.29,163.29,0,0,1,19.32-4c22.2-2.58,45.32-.54,67.38,1.47,15.65,1.43,31.51,2.18,47.48,2.5h44.41c6.43-.1,12.87-.24,19.3-.38,20.54-5.71,40-14,56.48-27.87C538,488.68,544,487,550,485.21Z" transform="translate(21.05)"/><path class="cls-42" d="M749.17,373.46c-9.87-10.31-10,.45-14.47,5.65-4,4.7-15.2,12.7-20.63,16.41a52.37,52.37,0,0,1-7.88,4.31c-13,8.9-27.34,16.08-41.19,25.56-6,4.33,0,11.27-3,16.47a14.67,14.67,0,0,1-7,6.07c-10,5.2-21,.87-32,3.47-12,1.73-14,13.87-24,18.21-4,1.73-10,0-14-1.74-2,0-5-.86-8,.87-11,4.34-16,13.87-27,16.47-6,1.74-12,3.47-15,6.94-16.5,13.91-35.94,22.16-56.48,27.87,21.4-.49,42.74-1.15,63.75-1.38,67.52-.72,135.07-2.44,202.58-1.92,5.72,0,11.47.13,17.22.24V366.86C757.43,368.71,754.72,372.53,749.17,373.46Z" transform="translate(21.05)"/><path class="cls-43" d="M568,370.76a139.8,139.8,0,0,1-18,0,144.78,144.78,0,0,1,18,0Z" transform="translate(21.05)"/><path class="cls-43" d="M596.67,376.54a13.36,13.36,0,0,1-2.74.21c-1.69.05-4,.08-6.6.08s-4.91,0-6.6-.08a13.2,13.2,0,0,1-2.73-.21,12.86,12.86,0,0,1,2.73-.2c1.69,0,4-.08,6.6-.08s4.91,0,6.6.08A13,13,0,0,1,596.67,376.54Z" transform="translate(21.05)"/><path class="cls-43" d="M611.33,369A79.47,79.47,0,0,1,598,369a76.74,76.74,0,0,1,13.33,0Z" transform="translate(21.05)"/><path class="cls-43" d="M608,389.84a27.49,27.49,0,0,1-4,.2c-2.48,0-5.89.08-9.67.08s-7.19,0-9.66-.08a27.49,27.49,0,0,1-4-.2,27.49,27.49,0,0,1,4-.2c2.47-.05,5.89-.09,9.66-.09s7.19,0,9.67.09A27.49,27.49,0,0,1,608,389.84Z" transform="translate(21.05)"/><path class="cls-43" d="M647.33,390.42a13.83,13.83,0,0,1-2.83.2c-1.75.05-4.16.08-6.83.08s-5.09,0-6.84-.08a13.83,13.83,0,0,1-2.83-.2,14.19,14.19,0,0,1,2.83-.21c1.75,0,4.17-.08,6.84-.08s5.08,0,6.83.08A14.19,14.19,0,0,1,647.33,390.42Z" transform="translate(21.05)"/><path class="cls-43" d="M691.33,391.57a24.77,24.77,0,0,1-3.8.2c-2.36.05-5.61.09-9.2.09s-6.84,0-9.19-.09a25,25,0,0,1-3.81-.2,25,25,0,0,1,3.81-.2c2.35-.05,5.6-.08,9.19-.08s6.84,0,9.2.08A24.77,24.77,0,0,1,691.33,391.57Z" transform="translate(21.05)"/><path class="cls-43" d="M632.67,401.4a28.89,28.89,0,0,1-4.1.2c-2.54,0-6,.08-9.9.08s-7.37,0-9.9-.08a28.74,28.74,0,0,1-4.1-.2,28.74,28.74,0,0,1,4.1-.2c2.53-.05,6-.09,9.9-.09s7.36,0,9.9.09A28.89,28.89,0,0,1,632.67,401.4Z" transform="translate(21.05)"/><path class="cls-43" d="M658,398.51a24.13,24.13,0,0,1-7.33,0,23.3,23.3,0,0,1,7.33,0Z" transform="translate(21.05)"/><path class="cls-43" d="M622,395a62.21,62.21,0,0,1-12,0,64.43,64.43,0,0,1,12,0Z" transform="translate(21.05)"/><path class="cls-43" d="M582.67,415.27a5.57,5.57,0,0,1-1.31.11c-.85,0-2.07.07-3.57.09-3,0-7.19.09-11.79.09s-8.77,0-11.79-.09c-1.5,0-2.72-.05-3.57-.09a5.57,5.57,0,0,1-1.31-.11,5.57,5.57,0,0,1,1.31-.11l3.57-.09c3-.05,7.19-.08,11.79-.08s8.77,0,11.79.08l3.57.09A5.57,5.57,0,0,1,582.67,415.27Z" transform="translate(21.05)"/><path class="cls-43" d="M597.33,407.18a23.55,23.55,0,0,1-3.71.2c-2.29.05-5.45.08-9,.08s-6.67,0-9-.08a23.68,23.68,0,0,1-3.71-.2,23.68,23.68,0,0,1,3.71-.2c2.29-.05,5.46-.09,9-.09s6.66,0,9,.09A23.55,23.55,0,0,1,597.33,407.18Z" transform="translate(21.05)"/><ellipse class="cls-43" cx="516.38" cy="351.11" rx="6" ry="0.28"/><path class="cls-43" d="M521.33,349.38a57.45,57.45,0,0,1-11.33,0,55.48,55.48,0,0,1,11.33,0Z" transform="translate(21.05)"/><path class="cls-43" d="M509.33,356.31a62.21,62.21,0,0,1-12,0,64.43,64.43,0,0,1,12,0Z" transform="translate(21.05)"/><ellipse class="cls-43" cx="544.38" cy="355.73" rx="4" ry="0.28"/><path class="cls-43" d="M540,359.78a57.45,57.45,0,0,1-11.33,0,57.45,57.45,0,0,1,11.33,0Z" transform="translate(21.05)"/><path class="cls-44" d="M512,365.56" transform="translate(21.05)"/><path class="cls-43" d="M519.33,361.51a19.26,19.26,0,0,1-6.66,0,19.94,19.94,0,0,1,6.66,0Z" transform="translate(21.05)"/><path class="cls-43" d="M562.67,366.72a44.78,44.78,0,0,1-10,0,43.25,43.25,0,0,1,10,0Z" transform="translate(21.05)"/><path class="cls-43" d="M582,368.45a19.32,19.32,0,0,1-6.67,0,20,20,0,0,1,6.67,0Z" transform="translate(21.05)"/><path class="cls-43" d="M618,376.54a32.55,32.55,0,0,1-8.67,0,33.7,33.7,0,0,1,8.67,0Z" transform="translate(21.05)"/><path class="cls-43" d="M619.33,382.32a9.51,9.51,0,0,1-4.66,0,9.83,9.83,0,0,1,4.66,0Z" transform="translate(21.05)"/><path class="cls-43" d="M564.67,381.75a144.78,144.78,0,0,1-18,0,139.8,139.8,0,0,1,18,0Z" transform="translate(21.05)"/><path class="cls-43" d="M547.33,422.79a64.43,64.43,0,0,1-12,0,62.21,62.21,0,0,1,12,0Z" transform="translate(21.05)"/><path class="cls-43" d="M500.67,419.32a87.64,87.64,0,0,1-14,0,84.63,84.63,0,0,1,14,0Z" transform="translate(21.05)"/><path class="cls-43" d="M530.67,417a134.37,134.37,0,0,1-17.34,0,129.75,129.75,0,0,1,17.34,0Z" transform="translate(21.05)"/><path class="cls-43" d="M509.33,425.1a16.21,16.21,0,0,1-6,0,15.66,15.66,0,0,1,6,0Z" transform="translate(21.05)"/><path class="cls-43" d="M579.33,423.94a23.3,23.3,0,0,1-7.33,0,24.13,24.13,0,0,1,7.33,0Z" transform="translate(21.05)"/><path class="cls-43" d="M569.33,421.05a119.78,119.78,0,0,1-16.66,0,124,124,0,0,1,16.66,0Z" transform="translate(21.05)"/><path class="cls-43" d="M637.33,417a10.5,10.5,0,0,1-1.57.11l-4.28.09c-3.62.05-8.62.08-14.15.08s-10.52,0-14.14-.08l-4.28-.09a10.56,10.56,0,0,1-1.58-.11,8.35,8.35,0,0,1,1.58-.12l4.28-.09c3.62-.05,8.62-.08,14.14-.08s10.53,0,14.15.08l4.28.09A8.29,8.29,0,0,1,637.33,417Z" transform="translate(21.05)"/><path class="cls-43" d="M666.67,385.79a101.57,101.57,0,0,1-15.34,0,105.19,105.19,0,0,1,15.34,0Z" transform="translate(21.05)"/><path class="cls-43" d="M642,371.34a84.63,84.63,0,0,1-14,0,87.64,87.64,0,0,1,14,0Z" transform="translate(21.05)"/></g></g></g></svg>